<svg width="28" height="29" viewBox="0 0 28 29" fill="none" xmlns="http://www.w3.org/2000/svg">
<path d="M18 20C23.5229 20 28 15.5228 28 10C28 4.47715 23.5229 0 18 0C12.4772 0 8 4.47715 8 10C8 15.5228 12.4772 20 18 20Z" fill="#4D6EC5"/>
<circle cx="12.5" cy="13.5" r="11.5" stroke="white" stroke-width="2"/>
<path d="M7.7207 10.352C8.0567 9.51201 8.6447 8.87001 9.4847 8.42601C10.3367 7.98201 11.3627 7.76001 12.5627 7.76001C13.1507 7.76001 13.7207 7.82601 14.2727 7.95801C14.8247 8.07801 15.3107 8.26401 15.7307 8.51601C16.1627 8.76801 16.5047 9.08601 16.7567 9.47001C17.0207 9.85401 17.1527 10.31 17.1527 10.838C17.1527 11.234 17.0927 11.582 16.9727 11.882C16.8647 12.182 16.7087 12.452 16.5047 12.692C16.3007 12.92 16.0607 13.124 15.7847 13.304C15.5087 13.484 15.2087 13.646 14.8847 13.79C14.5967 13.922 14.3447 14.048 14.1287 14.168C13.9127 14.288 13.7327 14.414 13.5887 14.546C13.4447 14.678 13.3307 14.834 13.2467 15.014C13.1747 15.182 13.1327 15.386 13.1207 15.626H10.3487C10.3487 15.206 10.3787 14.84 10.4387 14.528C10.5107 14.216 10.6247 13.946 10.7807 13.718C10.9367 13.478 11.1347 13.268 11.3747 13.088C11.6147 12.896 11.9027 12.71 12.2387 12.53L12.9227 12.206C13.1027 12.134 13.2767 12.056 13.4447 11.972C13.6127 11.888 13.7627 11.798 13.8947 11.702C14.0267 11.606 14.1347 11.498 14.2187 11.378C14.3027 11.258 14.3447 11.126 14.3447 10.982C14.3447 10.682 14.1707 10.436 13.8227 10.244C13.4867 10.052 13.0307 9.95601 12.4547 9.95601C11.9147 9.95601 11.4407 10.058 11.0327 10.262C10.6247 10.466 10.3427 10.796 10.1867 11.252L7.7207 10.352ZM11.7527 16.706C12.2447 16.706 12.6587 16.874 12.9947 17.21C13.3307 17.546 13.4987 17.96 13.4987 18.452C13.4987 18.944 13.3307 19.364 12.9947 19.712C12.6587 20.048 12.2447 20.216 11.7527 20.216C11.2607 20.216 10.8467 20.048 10.5107 19.712C10.1747 19.364 10.0067 18.944 10.0067 18.452C10.0067 17.96 10.1747 17.546 10.5107 17.21C10.8467 16.874 11.2607 16.706 11.7527 16.706Z" fill="white"/>
</svg>
