<svg width="20" height="21" viewBox="0 0 20 21" fill="none" xmlns="http://www.w3.org/2000/svg">
<g opacity="0.4">
<path d="M12.8571 14.4828C16.802 14.4828 19.9999 11.2407 19.9999 7.24138C19.9999 3.24208 16.802 0 12.8571 0C8.9122 0 5.71423 3.24208 5.71423 7.24138C5.71423 11.2407 8.9122 14.4828 12.8571 14.4828Z" fill="#F1FCFF"/>
<path d="M16.8571 9.77588C16.8571 14.2357 13.2945 17.8276 8.92857 17.8276C4.56261 17.8276 1 14.2357 1 9.77588C1 5.31607 4.56261 1.72415 8.92857 1.72415C13.2945 1.72415 16.8571 5.31607 16.8571 9.77588Z" stroke="#223A7A" stroke-width="2"/>
<path d="M5.51428 7.49626C5.75428 6.88798 6.17428 6.42309 6.77428 6.10157C7.38285 5.78005 8.11571 5.61929 8.97285 5.61929C9.39285 5.61929 9.8 5.66709 10.1943 5.76267C10.5886 5.84957 10.9357 5.98426 11.2357 6.16674C11.5443 6.34922 11.7886 6.5795 11.9686 6.85757C12.1571 7.13564 12.2514 7.46584 12.2514 7.84819C12.2514 8.13495 12.2086 8.38695 12.1229 8.60419C12.0457 8.82143 11.9343 9.01695 11.7886 9.19074C11.6429 9.35584 11.4714 9.50357 11.2743 9.63391C11.0771 9.76426 10.8629 9.88157 10.6314 9.98584C10.4257 10.0814 10.2457 10.1727 10.0914 10.2596C9.93714 10.3465 9.80857 10.4377 9.70571 10.5333C9.60285 10.6289 9.52142 10.7418 9.46142 10.8722C9.41 10.9938 9.38 11.1416 9.37142 11.3154H7.39142C7.39142 11.0112 7.41285 10.7462 7.45571 10.5203C7.50714 10.2943 7.58857 10.0988 7.7 9.93371C7.81142 9.75991 7.95285 9.60784 8.12428 9.4775C8.29571 9.33847 8.50142 9.20378 8.74142 9.07343L9.23 8.83881C9.35857 8.78667 9.48285 8.73019 9.60285 8.66936C9.72285 8.60853 9.83 8.54336 9.92428 8.47384C10.0186 8.40433 10.0957 8.32612 10.1557 8.23922C10.2157 8.15233 10.2457 8.05674 10.2457 7.95246C10.2457 7.73522 10.1214 7.55709 9.87285 7.41805C9.63285 7.27902 9.30714 7.2095 8.89571 7.2095C8.51 7.2095 8.17142 7.28336 7.88 7.43109C7.58857 7.57881 7.38714 7.81778 7.27571 8.14798L5.51428 7.49626ZM8.39428 12.0974C8.74571 12.0974 9.04142 12.2191 9.28142 12.4624C9.52142 12.7057 9.64142 13.0055 9.64142 13.3618C9.64142 13.7181 9.52142 14.0222 9.28142 14.2742C9.04142 14.5175 8.74571 14.6392 8.39428 14.6392C8.04285 14.6392 7.74714 14.5175 7.50714 14.2742C7.26714 14.0222 7.14714 13.7181 7.14714 13.3618C7.14714 13.0055 7.26714 12.7057 7.50714 12.4624C7.74714 12.2191 8.04285 12.0974 8.39428 12.0974Z" fill="#223A7A"/>
</g>
</svg>
