<svg width="28" height="29" viewBox="0 0 28 29" fill="none" xmlns="http://www.w3.org/2000/svg">
<path d="M18 20C23.5229 20 28 15.5228 28 10C28 4.47715 23.5229 0 18 0C12.4772 0 8 4.47715 8 10C8 15.5228 12.4772 20 18 20Z" fill="#E1E7F7"/>
<circle cx="12.5" cy="13.5" r="11.5" stroke="#223A7A" stroke-width="2"/>
<path d="M7.72 10.352C8.056 9.512 8.644 8.87 9.484 8.426C10.336 7.982 11.362 7.76 12.562 7.76C13.15 7.76 13.72 7.826 14.272 7.958C14.824 8.078 15.31 8.264 15.73 8.516C16.162 8.768 16.504 9.086 16.756 9.47C17.02 9.854 17.152 10.31 17.152 10.838C17.152 11.234 17.092 11.582 16.972 11.882C16.864 12.182 16.708 12.452 16.504 12.692C16.3 12.92 16.06 13.124 15.784 13.304C15.508 13.484 15.208 13.646 14.884 13.79C14.596 13.922 14.344 14.048 14.128 14.168C13.912 14.288 13.732 14.414 13.588 14.546C13.444 14.678 13.33 14.834 13.246 15.014C13.174 15.182 13.132 15.386 13.12 15.626H10.348C10.348 15.206 10.378 14.84 10.438 14.528C10.51 14.216 10.624 13.946 10.78 13.718C10.936 13.478 11.134 13.268 11.374 13.088C11.614 12.896 11.902 12.71 12.238 12.53L12.922 12.206C13.102 12.134 13.276 12.056 13.444 11.972C13.612 11.888 13.762 11.798 13.894 11.702C14.026 11.606 14.134 11.498 14.218 11.378C14.302 11.258 14.344 11.126 14.344 10.982C14.344 10.682 14.17 10.436 13.822 10.244C13.486 10.052 13.03 9.956 12.454 9.956C11.914 9.956 11.44 10.058 11.032 10.262C10.624 10.466 10.342 10.796 10.186 11.252L7.72 10.352ZM11.752 16.706C12.244 16.706 12.658 16.874 12.994 17.21C13.33 17.546 13.498 17.96 13.498 18.452C13.498 18.944 13.33 19.364 12.994 19.712C12.658 20.048 12.244 20.216 11.752 20.216C11.26 20.216 10.846 20.048 10.51 19.712C10.174 19.364 10.006 18.944 10.006 18.452C10.006 17.96 10.174 17.546 10.51 17.21C10.846 16.874 11.26 16.706 11.752 16.706Z" fill="#223A7A"/>
</svg>
