<svg width="28" height="29" viewBox="0 0 28 29" fill="none" xmlns="http://www.w3.org/2000/svg">
<path d="M18 20C23.5229 20 28 15.5228 28 10C28 4.47715 23.5229 0 18 0C12.4772 0 8 4.47715 8 10C8 15.5228 12.4772 20 18 20Z" fill="#4D6EC5"/>
<circle cx="12.5" cy="13.5" r="11.5" stroke="white" stroke-width="2"/>
<path d="M11.89 7.976C11.89 7.52 12.046 7.136 12.358 6.824C12.67 6.512 13.054 6.356 13.51 6.356C13.966 6.356 14.35 6.512 14.662 6.824C14.974 7.136 15.13 7.52 15.13 7.976C15.13 8.42 14.974 8.804 14.662 9.128C14.35 9.44 13.966 9.596 13.51 9.596C13.054 9.596 12.67 9.44 12.358 9.128C12.046 8.804 11.89 8.42 11.89 7.976ZM10.432 11.072H14.878V20H12.124V13.16H10.432V11.072Z" fill="white"/>
</svg>
