<svg width="19" height="19" viewBox="0 0 19 19" fill="none" xmlns="http://www.w3.org/2000/svg">
<path d="M15.3544 13.0699C17.9385 9.22436 16.9154 4.00975 13.0698 1.42565C9.22423 -1.15845 4.00962 -0.135356 1.42552 3.71232C-1.15858 7.55999 -0.135491 12.7725 3.71007 15.3566C6.53888 17.2572 10.2389 17.2572 13.0677 15.3566L16.2424 18.5271C16.8732 19.1579 17.8963 19.1579 18.527 18.5271C19.1577 17.8964 19.1577 16.8733 18.527 16.2426L15.3544 13.0699ZM8.39732 14.8419C4.83864 14.8419 1.95289 11.9561 1.95289 8.39745C1.95289 4.83877 4.83864 1.95302 8.39732 1.95302C11.956 1.95302 14.8418 4.83877 14.8418 8.39745C14.8375 11.9561 11.956 14.8377 8.39732 14.8419Z" fill="#00B2DB"/>
</svg>
