<svg width="34" height="41" viewBox="0 0 34 41" fill="none" xmlns="http://www.w3.org/2000/svg">
<g clip-path="url(#clip0)">
<path fill-rule="evenodd" clip-rule="evenodd" d="M27.6622 33.8214H14.0018C10.5003 33.8214 7.664 30.9953 7.664 27.5063V6.31507C7.664 2.82608 10.5003 0 14.0018 0H27.6622C31.1637 0 34 2.82608 34 6.31507V27.502C34 30.991 31.1637 33.8214 27.6622 33.8214Z" fill="#FAEBC6"/>
<path d="M1.16864 5.3503C0.55587 5.3503 0 5.90417 0 6.51474V39.8433C0.0131308 40.3928 0.44207 41.0078 1.16864 41.0078H26.0602C26.673 41.0078 27.2289 40.4539 27.2289 39.8433V11.9401C27.2245 11.6392 27.102 11.3426 26.8875 11.1289L21.4426 5.70356C21.2281 5.48549 20.9217 5.35466 20.6153 5.3503H1.16864ZM2.3329 7.67484H19.4467V11.9358C19.438 12.5027 19.9588 13.1002 20.6153 13.1002H24.8916V38.6789H2.3329V7.67484ZM21.7796 9.31901L23.2371 10.7713H21.7796V9.31901ZM17.7922 12.3108C17.4946 12.337 17.2101 12.4853 17.0131 12.7121L12.2729 18.1026L10.0363 16.4322C9.55046 16.0528 8.75386 16.1618 8.38182 16.6503C8.00978 17.1387 8.12796 17.9194 8.62693 18.2857L11.7389 20.6103C12.2029 20.9592 12.9338 20.8894 13.319 20.4533L18.7639 14.2516C19.0747 13.907 19.1535 13.3706 18.9477 12.9563C18.7376 12.5376 18.2562 12.2672 17.7922 12.3108ZM5.83445 23.1747C5.19104 23.1747 4.66581 23.6937 4.66581 24.3391C4.66581 24.9802 5.18666 25.5036 5.83445 25.5036H21.3901C22.0335 25.5036 22.5587 24.9846 22.5587 24.3391C22.5587 23.698 22.0378 23.1747 21.3901 23.1747H5.83445ZM5.83445 28.6001C5.19104 28.6001 4.66581 29.119 4.66581 29.7645C4.66581 30.4056 5.18666 30.929 5.83445 30.929H21.3901C22.0335 30.929 22.5587 30.41 22.5587 29.7645C22.5587 29.1234 22.0378 28.6001 21.3901 28.6001H5.83445ZM5.83445 34.0254C5.19104 34.0254 4.66581 34.5444 4.66581 35.1899C4.66581 35.831 5.18666 36.3543 5.83445 36.3543H21.3901C22.0335 36.3543 22.5587 35.8354 22.5587 35.1899C22.5587 34.5488 22.0378 34.0254 21.3901 34.0254H5.83445Z" fill="#232323"/>
</g>
<defs>
<clipPath id="clip0">
<rect width="34" height="41" fill="white"/>
</clipPath>
</defs>
</svg>
