<svg width="80" height="14" viewBox="0 0 80 14" fill="none" xmlns="http://www.w3.org/2000/svg">
<path d="M0 10.4043V1.63293H1.67519V4.43278C2.00336 4.12748 2.33296 3.91013 2.664 3.78072C2.99432 3.65131 3.38755 3.58625 3.84299 3.58625C4.50863 3.58625 5.10993 3.73711 5.64759 4.03883C6.17591 4.33037 6.61299 4.76275 6.91023 5.28789C7.2141 5.81911 7.36639 6.41326 7.36639 7.07032C7.36639 7.96332 7.09327 8.74193 6.54703 9.40686C5.90641 10.1762 5.04415 10.5608 3.96025 10.5608C3.44261 10.5608 2.99932 10.485 2.62968 10.3349C2.26004 10.184 1.89468 9.92665 1.53362 9.56344V10.4043H0ZM3.57845 5.0355C2.99503 5.0355 2.516 5.22926 2.13992 5.61535C1.76456 6.00215 1.57652 6.49477 1.57652 7.09392C1.57652 7.6852 1.76956 8.16924 2.15565 8.54603C2.54174 8.92282 3.0365 9.11157 3.63994 9.11157C4.23909 9.11157 4.72813 8.92497 5.10564 8.55175C5.48386 8.17925 5.67261 7.69306 5.67261 7.09392C5.67261 6.4869 5.47814 5.99214 5.09062 5.60963C4.70239 5.22711 4.19833 5.0355 3.57845 5.0355ZM15.9232 7.81818H10.5094C10.6124 8.21643 10.8362 8.53173 11.1808 8.76338C11.5261 8.99503 11.9465 9.11157 12.4434 9.11157C12.7888 9.11157 13.0762 9.06224 13.3057 8.96358C13.5359 8.86491 13.7597 8.69617 13.977 8.45594H15.8067C15.708 8.75409 15.5235 9.05938 15.2519 9.37254C14.5297 10.1647 13.606 10.5608 12.4806 10.5608C11.9716 10.5635 11.4664 10.4732 10.9899 10.2941C10.5467 10.1312 10.1383 9.88624 9.78586 9.57202C9.4493 9.26635 9.17812 8.8957 8.98867 8.4824C8.79208 8.06242 8.69099 7.6041 8.69267 7.14039C8.69267 6.5062 8.85568 5.9235 9.18243 5.39227C9.50832 4.86169 9.96953 4.42738 10.5187 4.13392C11.0889 3.8257 11.7281 3.66727 12.3762 3.67347C13.0619 3.67347 13.6796 3.82505 14.2301 4.1282C14.7693 4.42132 15.216 4.8591 15.52 5.39227C15.8303 5.93137 15.9854 6.53695 15.9854 7.20974C15.9854 7.42638 15.9647 7.62943 15.9232 7.81818ZM10.4608 6.42684H14.3345C14.228 6.00572 14.0078 5.68327 13.6753 5.45877C13.3429 5.23498 12.9182 5.12273 12.4005 5.12273C11.8993 5.12273 11.4839 5.23355 11.1536 5.45591C10.8226 5.67826 10.5916 6.00215 10.4608 6.42684ZM17.8415 10.4043V5.26215H17.0221V3.82433H17.8415V1.63293H19.5167V3.82433H20.5269V5.26215H19.5167V10.4043H17.8415ZM28.998 3.82433V10.4043H27.4643V9.552C27.1276 9.91163 26.7794 10.169 26.4205 10.3256C26.0608 10.4822 25.6354 10.5608 25.1421 10.5608C24.4693 10.5608 23.8644 10.415 23.3289 10.1233C22.8039 9.84215 22.3684 9.41928 22.072 8.9028C21.7703 8.38087 21.6194 7.79316 21.6194 7.14039C21.6194 6.47904 21.7717 5.88489 22.0749 5.35724C22.3742 4.83445 22.8138 4.40578 23.3439 4.11962C23.8859 3.82219 24.4979 3.67347 25.1793 3.67347C25.6848 3.67347 26.1195 3.7557 26.4848 3.91943C26.8509 4.08387 27.1769 4.34555 27.4643 4.70518V3.82433H28.998ZM25.3273 5.12273C24.7439 5.12273 24.2627 5.31577 23.883 5.70257C23.5034 6.08866 23.3132 6.57985 23.3132 7.17471C23.3132 7.75098 23.5048 8.21786 23.8888 8.57534C24.2727 8.93283 24.771 9.11157 25.3823 9.11157C25.9901 9.11157 26.4798 8.92997 26.8516 8.56605C27.2234 8.20284 27.4093 7.72738 27.4093 7.14039C27.4093 6.54481 27.2148 6.06006 26.8266 5.68541C26.4391 5.31005 25.9393 5.12273 25.3273 5.12273ZM31.8893 9.21668C31.7992 9.21535 31.7098 9.23184 31.6261 9.26518C31.5423 9.29853 31.466 9.34808 31.4015 9.41099C31.337 9.4739 31.2856 9.54894 31.2502 9.63178C31.2147 9.71463 31.196 9.80366 31.1951 9.89376C31.1951 10.2377 31.5104 10.5351 31.8764 10.5351C32.2675 10.5351 32.5957 10.2498 32.5957 9.89376C32.5957 9.52554 32.2675 9.21668 31.8893 9.21668ZM40.1752 3.82433H41.7767V9.15805C41.7767 9.81082 41.7159 10.3528 41.5951 10.7839C41.4862 11.1923 41.2849 11.5703 41.0067 11.8885C40.3418 12.65 39.3916 13.0304 38.1554 13.0304C37.301 13.0304 36.5602 12.8466 35.9318 12.4798C35.319 12.1299 34.8386 11.5879 34.5648 10.9376H36.468C36.714 11.1929 36.9706 11.373 37.2373 11.4796C37.5047 11.5861 37.8329 11.639 38.2233 11.639C38.8475 11.639 39.3215 11.4653 39.6461 11.1171C39.97 10.7696 40.1466 10.242 40.1752 9.53484C39.847 9.89805 39.5052 10.1597 39.1499 10.3199C38.7946 10.4808 38.3706 10.5608 37.8779 10.5608C37.2209 10.5608 36.631 10.4121 36.1077 10.114C35.5906 9.82363 35.1667 9.39247 34.8851 8.87063C34.5934 8.3394 34.4475 7.73954 34.4475 7.07032C34.4475 6.09652 34.7742 5.28717 35.427 4.64155C36.0798 3.99593 36.9006 3.67347 37.8901 3.67347C38.8925 3.67347 39.6539 4.00165 40.1752 4.65871V3.82433ZM38.0567 5.12273C37.4819 5.12273 37.0193 5.30719 36.6682 5.67612C36.3172 6.04576 36.1413 6.53337 36.1413 7.14039C36.1413 7.73954 36.3186 8.21786 36.6739 8.57534C37.0293 8.93283 37.5069 9.11157 38.106 9.11157C38.7138 9.11157 39.1985 8.93069 39.5596 8.56891C39.9206 8.20785 40.1015 7.72381 40.1015 7.11679C40.1015 6.52193 39.9135 6.04076 39.5381 5.67326C39.162 5.30648 38.6687 5.12273 38.0567 5.12273ZM47.1869 3.67347C47.8519 3.67347 48.4682 3.82791 49.0344 4.13749C49.5856 4.43158 50.0489 4.86652 50.3771 5.39799C50.706 5.92922 50.8698 6.50621 50.8698 7.12895C50.8698 7.74669 50.7046 8.3201 50.3743 8.84775C50.0419 9.37694 49.5754 9.80884 49.0223 10.0997C48.451 10.4073 47.8114 10.5659 47.1626 10.5608C46.5106 10.5662 45.8677 10.4076 45.293 10.0997C44.7382 9.80901 44.2698 9.37719 43.9352 8.84775C43.6066 8.33491 43.4333 7.73801 43.4362 7.12895C43.4362 6.65707 43.5334 6.20806 43.7286 5.7805C43.9163 5.36361 44.1865 4.98906 44.5229 4.67944C44.8732 4.36243 45.2796 4.11364 45.7212 3.94588C46.1883 3.76367 46.6856 3.67126 47.1869 3.67347ZM47.119 5.12273C46.5771 5.12273 46.1102 5.31863 45.7184 5.71115C45.3258 6.10367 45.1299 6.57198 45.1299 7.11679C45.1299 7.66589 45.3266 8.13563 45.7212 8.52601C45.9062 8.71509 46.1278 8.86452 46.3724 8.96519C46.617 9.06586 46.8795 9.11567 47.144 9.11157C47.7024 9.11157 48.1807 8.9171 48.579 8.52887C48.9772 8.13992 49.176 7.67376 49.176 7.12895C49.176 6.56412 48.9772 6.08866 48.579 5.70257C48.1807 5.31577 47.6938 5.12273 47.119 5.12273ZM58.7195 3.82433V10.4043H57.1673V9.77221C56.847 10.0618 56.5381 10.2663 56.2399 10.3835C55.9425 10.5015 55.5843 10.5608 55.1653 10.5608C54.6935 10.5608 54.2702 10.4707 53.897 10.2913C53.5326 10.1193 53.2201 9.85416 52.9911 9.52269C52.8102 9.25536 52.6807 8.95663 52.6093 8.64184C52.5357 8.32081 52.4985 7.89183 52.4985 7.35488V3.82433H54.1801V7.04172C54.1801 7.49788 54.2066 7.85393 54.2602 8.11132C54.3131 8.368 54.4039 8.57034 54.5312 8.71691C54.7735 8.98002 55.0974 9.11157 55.5042 9.11157C55.7959 9.11157 56.0555 9.05652 56.2836 8.94642C56.5109 8.83559 56.6847 8.68045 56.8041 8.47954C56.8941 8.33225 56.9563 8.14207 56.9914 7.90827C57.0264 7.67448 57.0436 7.34702 57.0436 6.9259V3.82433H58.7195ZM62.8792 10.4043L60.0643 3.82433H61.9304L63.5441 8.18354L65.1335 3.82433H67.0303L64.2155 10.4043H62.8792ZM67.9141 9.21739C67.558 9.21739 67.2613 9.51411 67.2613 9.89376C67.2613 10.2377 67.558 10.5344 67.9019 10.5344C68.2701 10.5344 68.5783 10.2498 68.5783 9.89376C68.5783 9.52554 68.2701 9.21739 67.9141 9.21739Z" fill="#373C42"/>
<path d="M70.1405 4.31631H71.519L70.1255 10.7675C69.7623 12.4334 69.2625 13.2664 68.6112 13.2664C68.4296 13.2664 68.308 13.1605 68.308 13.009C68.308 12.9639 68.3237 12.9332 68.3688 12.8574C68.4196 12.7813 68.446 12.6915 68.4446 12.6C68.444 12.5213 68.4279 12.4436 68.397 12.3712C68.3662 12.2988 68.3214 12.2333 68.265 12.1783C68.2087 12.1234 68.1421 12.0802 68.0689 12.0512C67.9958 12.0222 67.9176 12.008 67.839 12.0094C67.5208 12.0094 67.2784 12.2976 67.2784 12.6608C67.2784 13.1756 67.8082 13.5845 68.4746 13.5845C69.8531 13.5845 70.9284 12.0702 71.5947 9.23819L72.7301 4.31631H74.4118L74.5026 3.83155H72.8517C73.3057 1.4085 73.8963 0.333178 74.7449 0.333178C74.9566 0.333178 75.0781 0.408966 75.0781 0.529797C75.0781 0.560541 75.0624 0.605584 75.0173 0.681371C74.9529 0.774545 74.921 0.886378 74.9265 0.999535C74.9265 1.36274 75.1539 1.60512 75.4871 1.60512C75.8353 1.60512 76.1377 1.3177 76.1377 0.984521C76.1377 0.42398 75.5779 0 74.8207 0C74.0786 0 73.4723 0.333178 72.9125 1.04529C72.4577 1.65088 72.1396 2.34726 71.6705 3.83155H70.247L70.1405 4.31631ZM75.4871 10.4043C76.32 7.75391 76.5774 7.13331 77.2738 5.96718C77.8036 5.10349 78.2276 4.63447 78.485 4.63447C78.5915 4.63447 78.6673 4.69453 78.7431 4.8461C78.8639 5.10349 78.9847 5.17928 79.2879 5.17928C79.7426 5.17928 80 4.90687 80 4.42212C80 3.93737 79.7119 3.63493 79.2879 3.63493C78.9397 3.63493 78.5157 3.86158 78.1218 4.28556C77.4854 4.92189 76.8498 5.84564 76.6074 6.43621L76.3801 6.99675L77.228 3.66496L77.183 3.63493C76.0776 3.83155 75.9111 3.86158 74.805 4.0439V4.30129C75.1382 4.24052 75.1989 4.2255 75.3205 4.2255C75.6537 4.2255 75.8503 4.37708 75.8503 4.64948C75.8503 4.8461 75.7287 5.46741 75.6079 5.92142L74.321 10.4043H75.4871Z" fill="#373C42"/>
</svg>
