<svg width="955" height="167" viewBox="0 0 955 167" fill="none" xmlns="http://www.w3.org/2000/svg">
<path d="M78.9 132.6H64.5L60.1 125.8C60.1 125.8 50.2 134.1 35.3 134.1C17.2 134.1 0 120.8 0 92.3C0 66.2 17 49.4 40.2 49.4C47.3 49.4 54 51.4 54 51.4V10.8H79V132.6H78.9ZM53.7 71.3C53.7 71.3 49.5 69.1 42.7 69.1C33 69.1 26.1 77.1 26.1 91.9C26.1 106.3 32.5 113.4 41.8 113.4C49.3 113.4 53.7 110.3 53.7 110.3V71.3Z" fill="#FFFFFF"/>
<path d="M130.3 29.2001C130.3 37 126.1 42.1 117 42.1C107.6 42.1 104 36.9001 104 29.2001C104 21.0001 107.5 16.3 117 16.3C126.2 16.3 130.3 21.0001 130.3 29.2001ZM129.3 51.2001H104.3V109C104.3 119.5 105.4 134.3 125.5 134.3C134.3 134.3 141.2 129.4 141.2 129.4L140.1 113.1C140.1 113.1 137 114.5 133.4 114.5C130.9 114.5 129.3 112.8 129.3 108.5V51.2001Z" fill="#FFFFFF"/>
<path d="M160.1 56.8C160.1 56.8 173.9 49.6 190.4 49.6C219.1 49.6 225.6 63.4 225.6 85.9V110.1C225.6 112.8 227.5 114.7 229.7 114.7C233.5 114.7 236.3 113.1 236.3 113.1L237.4 129.4C237.4 129.4 229.6 134.3 219.3 134.3C210.2 134.3 205.6 127.6 204.5 121.9C204.5 121.9 195.4 134.3 178.4 134.3C167.3 134.3 155.3 128.5 155.3 111.7C155.3 84.9 193.8 85.2 200.5 85.2C200.5 75.9 196.9 70.9 186.5 70.9C173.8 70.9 160.9 77.3 160.9 77.3L160.1 56.8ZM200.3 98.4C189.3 98.9 180.5 100.9 180.5 108C180.5 111.5 182.7 115.4 188.2 115.4C194.8 115.4 200.3 110.2 200.3 110.2V98.4Z" fill="#FFFFFF"/>
<path d="M327.4 51.2001V71.9001L312.5 71.1001C313.4 72.8001 315 76.8001 315 79.6001C315 88.7001 310.6 108.6 282 108.6C280.1 108.6 277.9 108.6 277.3 108.4C277 108.9 275.9 109.8 275.9 111.4C275.9 113 278.3 113.6 283.9 113.6C304.3 113.6 321.6 119.3 321.6 137.1C321.6 153 306.8 166.9 282.7 166.9C263.4 166.9 247.9 158.9 247.9 142.7C247.9 131.2 263.8 121.4 263.8 121.4C258.9 119.4 257.4 115.9 257.5 109.8L263.3 103.2C254.8 99.4001 250.1 90.5001 250.1 79.3001C250.1 64.9001 259.7 49.5001 282.1 49.5001C290.3 49.5001 298.9 51.9001 298.9 51.9001L327.4 51.2001ZM276.6 132C276.6 132 271.3 135 271.3 140C271.3 145.2 276.8 148.6 283.7 148.6C290.6 148.6 297.2 145 297.2 139C297.2 134.6 292.3 132.1 284.3 132.1C281 132.2 276.4 132 276.6 132ZM272.5 79.0001C272.5 85.0001 276.3 90.0001 282.5 90.0001C288.9 90.0001 293 85.1001 293 78.9001C293 71.5001 288.8 67.9001 282.5 67.9001C276.4 67.8001 272.5 72.5001 272.5 79.0001Z" fill="#FFFFFF"/>
<path d="M501.5 34.9H515.8L521.8 46C527.9 36.7 537.3 33.3 544.1 33.3C550.9 33.3 553.5 35 553.5 35L552.2 56.5C552.2 56.5 548.1 54.6 542.5 54.6C533.6 54.6 526.6 60.9 526.6 60.9V116.4H501.5V34.9Z" fill="#FFFFFF"/>
<path d="M596.4 12.9C596.4 20.7 592.2 25.8 583.1 25.8C573.7 25.8 570.1 20.6 570.1 12.9C570.1 4.7 573.6 0 583.1 0C592.3 0.1 596.4 4.8 596.4 12.9ZM595.5 34.9H570.5V92.7C570.5 103.2 571.6 118 591.7 118C600.5 118 607.4 113.1 607.4 113.1L606.3 96.8C606.3 96.8 603.2 98.2 599.5 98.2C597 98.2 595.4 96.5 595.4 92.2V34.9H595.5Z" fill="#FFFFFF"/>
<path d="M646 82C646.8 89.7 654.8 96 666.1 96C679.3 96 689.5 90.2 689.5 90.2L692.2 110.6C692.2 110.6 680.6 118 663.3 118C638.7 118 620.4 105 620.4 76.9C620.4 50.8 635.9 33.4 659.5 33.4C684.9 33.4 694.2 50.8 694.2 68.1C694.2 74.4 692.8 82.1 692.8 82.1H646V82ZM669.6 68.2C670.5 59.1 666.6 53.6 658.6 53.6C651.2 53.6 645.6 59.6 645.6 69L669.6 68.2Z" fill="#FFFFFF"/>
<path d="M716 34.9H730.3L734.7 41.6C734.7 41.6 746.2 33.3 761.9 33.3C785.6 33.3 789.7 46.8 789.7 61.2V116.4H764.7V65.4C764.7 57.2 761.6 53.5 754.5 53.5C747.1 53.5 741.2 57.7 741.2 57.7V116.4H716.1V34.9H716Z" fill="#FFFFFF"/>
<path d="M819.5 34.9V20.1L844.1 14V34.9H864.4V54H844.2V88.1C844.2 93 846.6 95.3 850.8 95.3C856.3 95.3 863.8 92.8 863.8 92.8L865.4 112.4C865.4 112.4 855.8 117.9 841.9 117.9C827.3 117.9 819.3 108.8 819.3 92.5V54H806.4V34.9H819.5Z" fill="#FFFFFF"/>
<path d="M906.1 82C906.9 89.7 914.9 96 926.2 96C939.4 96 949.6 90.2 949.6 90.2L952.3 110.6C952.3 110.6 940.7 118 923.4 118C898.8 118 880.5 105 880.5 76.9C880.5 50.8 896 33.4 919.6 33.4C945 33.4 954.3 50.8 954.3 68.1C954.3 74.4 952.9 82.1 952.9 82.1H906.1V82ZM929.7 68.2C930.6 59.1 926.7 53.6 918.7 53.6C911.3 53.6 905.7 59.6 905.7 69L929.7 68.2Z" fill="#FFFFFF"/>
<path d="M442.8 74.5C433.5 84.5 417.8 85 407.9 75.7L389 96C410.2 115.8 443.3 114.7 463.1 93.5C482.9 72.3 481.8 39.2 460.6 19.4L441.7 39.6C451.6 48.9 452.1 64.5 442.8 74.5Z" fill="#00CFFF"/>
<path d="M362.5 39.2C342.7 60.4 343.8 93.5 365 113.3L383.9 93.1C373.9 83.8 373.3 68.2 382.5 58.2C391.7 48.2 407.4 47.6 417.4 56.8C417.5 56.9 417.5 56.9 417.6 57L436.5 36.7C415.4 16.9 382.3 18.1 362.5 39.2Z" fill="#FF0060"/>
</svg>
