<svg xmlns="http://www.w3.org/2000/svg" fill="none" viewBox="0 0 955 167">
    <path fill="#10255E" d="M78.9 132.6H64.5l-4.4-6.8s-9.9 8.3-24.8 8.3C17.2 134.1 0 120.8 0 92.3c0-26.1 17-42.9 40.2-42.9 7.1 0 13.8 2 13.8 2V10.8h25v121.8h-.1zM53.7 71.3s-4.2-2.2-11-2.2c-9.7 0-16.6 8-16.6 22.8 0 14.4 6.4 21.5 15.7 21.5 7.5 0 11.9-3.1 11.9-3.1v-39zM130.3 29.2001C130.3 37 126.1 42.1 117 42.1c-9.4 0-13-5.1999-13-12.8999 0-8.2 3.5-12.9001 13-12.9001 9.2 0 13.3 4.7001 13.3 12.9001zm-1 22h-25V109c0 10.5 1.1 25.3 21.2 25.3 8.8 0 15.7-4.9 15.7-4.9l-1.1-16.3s-3.1 1.4-6.7 1.4c-2.5 0-4.1-1.7-4.1-6V51.2001zM160.1 56.8s13.8-7.2 30.3-7.2c28.7 0 35.2 13.8 35.2 36.3v24.2c0 2.7 1.9 4.6 4.1 4.6 3.8 0 6.6-1.6 6.6-1.6l1.1 16.3s-7.8 4.9-18.1 4.9c-9.1 0-13.7-6.7-14.8-12.4 0 0-9.1 12.4-26.1 12.4-11.1 0-23.1-5.8-23.1-22.6 0-26.8 38.5-26.5 45.2-26.5 0-9.3-3.6-14.3-14-14.3-12.7 0-25.6 6.4-25.6 6.4l-.8-20.5zm40.2 41.6c-11 .5-19.8 2.5-19.8 9.6 0 3.5 2.2 7.4 7.7 7.4 6.6 0 12.1-5.2 12.1-5.2V98.4zM327.4 51.2001v20.7l-14.9-.8c.9 1.7 2.5 5.7 2.5 8.5 0 9.1-4.4 28.9999-33 28.9999-1.9 0-4.1 0-4.7-.2-.3.5-1.4 1.4-1.4 3s2.4 2.2 8 2.2c20.4 0 37.7 5.7 37.7 23.5 0 15.9-14.8 29.8-38.9 29.8-19.3 0-34.8-8-34.8-24.2 0-11.5 15.9-21.3 15.9-21.3-4.9-2-6.4-5.5-6.3-11.6l5.8-6.6c-8.5-3.7999-13.2-12.6999-13.2-23.8999 0-14.4 9.6-29.8 32-29.8 8.2 0 16.8 2.4 16.8 2.4l28.5-.7zM276.6 132s-5.3 3-5.3 8c0 5.2 5.5 8.6 12.4 8.6s13.5-3.6 13.5-9.6c0-4.4-4.9-6.9-12.9-6.9-3.3.1-7.9-.1-7.7-.1zm-4.1-52.9999c0 6 3.8 11 10 11 6.4 0 10.5-4.9 10.5-11.1 0-7.4-4.2-11-10.5-11-6.1-.1-10 4.6-10 11.1zM501.5 34.9h14.3l6 11.1c6.1-9.3 15.5-12.7 22.3-12.7 6.8 0 9.4 1.7 9.4 1.7l-1.3 21.5s-4.1-1.9-9.7-1.9c-8.9 0-15.9 6.3-15.9 6.3v55.5h-25.1V34.9zM596.4 12.9c0 7.8-4.2 12.9-13.3 12.9-9.4 0-13-5.2-13-12.9 0-8.2 3.5-12.9 13-12.9 9.2.1 13.3 4.8 13.3 12.9zm-.9 22h-25v57.8c0 10.5 1.1 25.3 21.2 25.3 8.8 0 15.7-4.9 15.7-4.9l-1.1-16.3s-3.1 1.4-6.8 1.4c-2.5 0-4.1-1.7-4.1-6V34.9h.1zM646 82c.8 7.7 8.8 14 20.1 14 13.2 0 23.4-5.8 23.4-5.8l2.7 20.4s-11.6 7.4-28.9 7.4c-24.6 0-42.9-13-42.9-41.1 0-26.1 15.5-43.5 39.1-43.5 25.4 0 34.7 17.4 34.7 34.7 0 6.3-1.4 14-1.4 14H646V82zm23.6-13.8c.9-9.1-3-14.6-11-14.6-7.4 0-13 6-13 15.4l24-.8zM716 34.9h14.3l4.4 6.7s11.5-8.3 27.2-8.3c23.7 0 27.8 13.5 27.8 27.9v55.2h-25v-51c0-8.2-3.1-11.9-10.2-11.9-7.4 0-13.3 4.2-13.3 4.2v58.7h-25.1V34.9h-.1zM819.5 34.9V20.1l24.6-6.1v20.9h20.3V54h-20.2v34.1c0 4.9 2.4 7.2 6.6 7.2 5.5 0 13-2.5 13-2.5l1.6 19.6s-9.6 5.5-23.5 5.5c-14.6 0-22.6-9.1-22.6-25.4V54h-12.9V34.9h13.1zM906.1 82c.8 7.7 8.8 14 20.1 14 13.2 0 23.4-5.8 23.4-5.8l2.7 20.4s-11.6 7.4-28.9 7.4c-24.6 0-42.9-13-42.9-41.1 0-26.1 15.5-43.5 39.1-43.5 25.4 0 34.7 17.4 34.7 34.7 0 6.3-1.4 14-1.4 14h-46.8V82zm23.6-13.8c.9-9.1-3-14.6-11-14.6-7.4 0-13 6-13 15.4l24-.8z"/>
    <path fill="#00CFFF" d="M442.8 74.5c-9.3 10-25 10.5-34.9 1.2L389 96c21.2 19.8 54.3 18.7 74.1-2.5 19.8-21.2 18.7-54.3-2.5-74.1l-18.9 20.2c9.9 9.3 10.4 24.9 1.1 34.9z"/>
    <path fill="#FF0060" d="M362.5 39.2c-19.8 21.2-18.7 54.3 2.5 74.1l18.9-20.2c-10-9.3-10.6-24.9-1.4-34.9s24.9-10.6 34.9-1.4l.2.2 18.9-20.3c-21.1-19.8-54.2-18.6-74 2.5z"/>
</svg>
