<svg xmlns="http://www.w3.org/2000/svg" viewBox="0 0 6803.7 3859.5">
	<defs/>
	<rect fill="#FFFFFF" width="100%" height="100%" />
	<path fill="#000091" d="M1397.7 1127.6c10.6-10.6 21.2-21.2 30.8-32.8 19.3-22.2 38.6-42.4 60.7-61.7 6.7-5.8 13.5-11.6 20.2-15.4 1.9-1.9 1.9-5.8 3.9-7.7-8.7 3.9-14.5 10.6-24.1 14.5-1.9 0-3.9-1.9-1.9-3.9 6.7-4.8 13.5-9.6 19.3-14.5h-1c-1.9 0-1.9-1.9-1.9-3.9-24.1-3.9-41.4 12.5-57.8 27-3.9 1.9-7.7-1.9-8.7-1.9-27 8.7-47.2 32.8-74.2 43.4v-3.9c-10.6 3.9-21.2 10.6-32.8 12.5-16.4 3.9-30.8 1.9-45.3 1.9-22.2 1.9-44.3 6.7-66.5 11.6-1 0-1 0-1.9 1-11.6 2.9-23.1 7.7-33.7 13.5l-3.9 3.9c-3.9 3.9-7.7 8.7-12.5 10.6-11.6 5.8-20.2 15.4-29.9 24.1-1 1-1.9 1-2.9 1-9.6 9.6-19.3 19.3-28.9 27.9-1 1-3.9 1-5.8 1 0-1 1-1 1-1.9 1.9-2.9 2.9-4.8 4.8-7.7l5.8-8.7c2.9-3.9 4.8-7.7 7.7-10.6 1-1 1-1.9 0-1.9-1-1-1.9-1-2.9-1 8.7-8.7 20.2-16.4 30.8-23.1-1 0-2.9-1-1.9-1.9 1-1.9 1.9-2.9 2.9-4.8 0-1 0-1 1-1.9 0-1-1-1-1-1.9l-8.7 5.8c-4.8 3.9-7.7 11.6-14.5 11.6h-2.9c-1 0-1.9 0-1.9-1v-1c0-1 1-1 1-1.9s1-1 1-1.9c0 0 0-1 1-1 0-1 1-1.9 1-1.9 0-1 1-1 1-1.9 1-1 1.9-2.9 1.9-3.9s1-1 1-1.9c1-1 1-1.9 1.9-2.9 1-1.9 0-2.9-1-2.9 2.9-4.8 7.7-7.7 12.5-10.6h-1c6.7-3.9 14.5-7.7 21.2-11.6l2.9-2.9c-10.6 3.9-19.3 8.7-28.9 14.5 0 0-1.9 1-2.9 1.9 0 0-1.9 1-4.8-1.9v-1c1.9-3.9 7.7-5.8 10.6-8.7 1.9 0 3.9 0 3.9 1.9 58.8-45.3 138.8-34.7 206.2-57.8 5.8-3.9 10.6-7.7 16.4-10.6 8.7-3.9 16.4-12.5 27-18.3 14.5-10.6 25.1-24.1 30.8-41.4 0-1.9-1.9-3.9-1.9-3.9-24.1 25.1-51.1 45.3-80 59.8-38.6 20.2-80 16.4-120.5 22.2 1.9-3.9 5.8-3.9 8.7-3.9 0-5.8 3.9-7.7 7.7-10.6h5.8c1.9 0 1.9-3.9 3.9-3.9 3.9 0 9.6-1.9 7.7-1.9-5.8-7.7-16.4 5.8-25.1 0 3.9-3.9 1.9-8.7 5.8-10.6h7.7c0-3.9 3.9-7.7 3.9-7.7 27-16.4 53-28.9 78.1-43.4-5.8 0-8.7 5.8-14.5 1.9 3.9 0 0-5.8 3.9-5.8 20.2-5.8 36.6-16.4 56.9-24.1-7.7 0-12.5 5.8-20.2 0 3.9-1.9 5.8-5.8 10.6-5.8v-5.8c0-1.9 1.9-1.9 3.9-1.9-1.9 0-3.9-1.9-3.9-1.9 1.9-3.9 7.7-1.9 10.6-5.8-1.9 0-5.8 0-5.8-1.9 5.8-7.7 14.5-8.7 24.1-10.6-1.9-3.9-7.7 0-7.7-3.9 0-1.9 1.9-1.9 3.9-1.9h-3.9c-3.9-1.9-1.9-5.8-1.9-7.7 10.6-12.5 10.6-28.9 16.4-43.4-1.9 0-3.9 0-3.9-1.9-18.3 20.2-47.2 27-74.2 34.7h-12.5c-8.7 3.9-22.2 3.9-30.8-1.9-7.7-3.9-10.6-8.7-18.3-14.5-14.5-8.7-28.9-16.4-45.3-22.2-45.3-14.5-92.5-22.2-139.7-20.2 20.2-10.6 42.4-11.6 63.6-18.3 30.8-8.7 59.8-20.2 92.5-18.3-5.8-1.9-12.5 0-18.3 0-25.1-1.9-51.1 5.8-78.1 10.6-18.3 3.9-34.7 10.6-53 14.5-10.6 3.9-16.4 14.5-28.9 12.5v-5.8c18.3-22.2 40.5-43.4 69.4-45.3 32.8-5.8 63.6 0 96.4 3.9 24.1 1.9 45.3 7.7 69.4 12.5 8.7 0 10.6 14.5 18.3 16.4 10.6 3.9 22.2 0 32.8 7.7 0-3.9-1.9-7.7 0-10.6 7.7-7.7 16.4 1.9 24.1-1.9 14.5-8.7-12.5-25.1-20.2-38.6 0-1.9 1.9-3.9 1.9-3.9 14.5 12.5 25.1 27 43.4 36.6 8.7 3.9 30.8 8.7 27-1.9-8.7-20.2-27-36.6-42.4-54.9V718c-3.9 0-3.9-1.9-5.8-3.9v-7.7c-7.7-3.9-5.8-10.6-8.7-16.4-5.8-8.7-1.9-22.2-5.8-32.8-3.9-10.6-5.8-20.2-7.7-30.8-5.8-30.8-12.5-57.8-16.4-87.7-3.9-34.7 20.2-61.7 36.6-92.5 12.5-22.2 27-43.4 51.1-57.8 5.8-22.2 20.2-40.5 34.7-57.8 14.5-17.3 38.6-28.9 55.9-36.6 25.1-11.6 48.2-18.3 48.2-18.3H294.2v963.8h893.4c34.7-25.1 69.4-36.6 117.6-60.7 23.1-9.7 75.2-33.8 92.5-51.2m-279.5-131.1c-3.9 0-10.6 1.9-8.7-1.9 1.9-8.7 14.5-8.7 22.2-12.5 3.9-1.9 8.7-5.8 12.5-3.9 3.9 5.8 8.7 3.9 12.5 7.7-11.5 10.6-25.9 5.8-38.5 10.6M838.8 957s-1.9-1.9-1.9-3.9c24.1-30.8 41.4-59.8 58.8-92.5 24.1-12.5 43.4-30.8 61.7-51.1 30.8-32.8 63.6-61.7 102.2-80 14.5-5.8 32.8-3.9 47.2 1.9-5.8 7.7-14.5 5.8-22.2 10.6-1.9 0-3.9 0-5.8-1.9 1.9-1.9 1.9-3.9 1.9-5.8-18.3 20.2-43.4 28.9-57.8 53-10.6 18.3-18.3 41.4-41.4 47.2-7.7 1.9 1.9-5.8-1.9-3.9-57 34.9-96.5 77.3-140.8 126.4m151.3-120.4c-1.9 3.9-3.9 3.9-5.8 7.7-1.9 3.9-3.9 5.8-7.7 7.7-1.9 0-3.9 0-3.9-1.9 1.9-7.7 7.7-14.5 14.5-16.4 2.9-1 2.9.9 2.9 2.9m84.8 272.7c-1 1.9-2.9 3.9-4.8 5.8 1.9 0 3.9 1.9 1.9 2.9-3.9 3.9-8.7 7.7-13.5 9.6h-2.9c-1.9 1.9-4.8 3.9-6.7 6.7-1.9 1.9-12.5 1-9.6-1.9 4.8-3.9 8.7-8.7 13.5-12.5 2.9-1.9 5.8-4.8 7.7-7.7 1-1.9 1.9-2.9 3.9-3.9 2.8-1.9 12.4-2.8 10.5 1m-32.8-14.5c-7.7 4.8-14.5 9.6-21.2 14.5-7.7 4.8-16.4 7.7-24.1 11.6-1-1-1.9-1-2.9-1-6.7 3.9-12.5 8.7-18.3 14.5l-2.9 2.9-2.9 2.9-3.9 3.9c-1 1-1 1.9-2.9 2.9-1 1-3.9 1-3.9-1-1 1-1.9 1-2.9 1.9s-1.9 1-2.9 1.9h-1.9c-1.9 1.9-4.8 3.9-6.7 5.8-3.9 3.9-7.7 6.7-10.6 11.6v1l-1 1s0 1-1 1c0 1-1 1-1 1.9 0 0-1 1-1.9 1l-1-1s0-1-1-1c-1-1-1-1.9-1.9-2.9v-1c1.9-1.9 3.9-3.9 5.8-6.7 1-1 1-1.9 1.9-1.9 1-1 1.9-2.9 2.9-3.9 0-1 1-1 1-1.9 1.9-2.9 3.9-4.8 5.8-7.7l1-1c1-1 1.9-2.9 2.9-3.9s1-1.9 1.9-3.9v-1c1-1.9 1-2.9 1.9-3.9v-1c0-1 0-1 1-1.9 0-1 0-1.9 1-2.9v-1c1.9-3.9 4.8-6.7 7.7-9.6h-1c-2.9 1.9-4.8 3.9-6.7 5.8-1.9 1.9-5.8-1-2.9-2.9 1.9-1 2.9-2.9 3.9-3.9 2.9-2.9 5.8-6.7 9.6-9.6 1.9-1.9 3.9-2.9 5.8-3.9l1-1c1-1.9 2.9-2.9 3.9-4.8 17.3-16.4 47.2-16.4 69.4-27 8.7-3.9 20.2 1.9 28.9 0 5.8 0 10.6 0 16.4 3.9-16.4 3-30.9 13.6-46.3 23.2m37.6-127.2c-1.9-1.9 5.8 0 7.7-3.9h-14.5c-1.9 0-1.9-1.9-1.9-3.9-8.7 1.9-20.2 5.8-28.9 7.7-12.5 3.9-24.1 12.5-38.6 16.4-20.2 7.7-36.6 24.1-57.8 30.8-1.9 0-1.9-1.9-1.9-3.9 1.9-5.8 8.7-7.7 12.5-12.5 0-1.9 0-3.9-1.9-3.9 14.5-20.2 34.7-30.8 53-47.2v-5.8c5.8-7.7 14.5-10.6 18.3-20.2 1.9-5.8 9.6-12.5 18.3-16.4-1.9-1.9-5.8-1.9-5.8-5.8-7.7 0-14.5 3.9-22.2-1.9 3.9-2.9 7.7-4.8 11.6-6.7-1.9 0-2.9-1-3.9-2.9-1.9-3.9 3.9-7.7 8.7-8.7 7.7-1.9 16.4-1.9 22.2-7.7-12.5-1.9-27 3.9-40.5-3.9 8.7-24.1 24.1-43.4 45.3-54.9 1.9 0 5.8 0 5.8 1.9 0 8.7-5.8 16.4-14.5 18.3 14.5 3.9 28.9 3.9 43.4 10.6-1.9 3.9-5.8 1.9-7.7 1.9 8.7 5.8 20.2 1.9 28.9 8.7-5.8 5.8-10.6 0-16.4 0 56.9 16.4 116.6 28.9 163.8 65.5-40.5 20.2-81.9 28.9-125.3 38.6-5.8 0-8.7 0-14.5-1.9 0 1.9 0 5.8-1.9 5.8-7.7 0-12.5 0-18.3 3.9-6.6 5.9-17.2 7.8-23 2"/>
	<path fill="#e1000f" d="M2949.4 275.6H1914.3s1.9 0 9.6 4.8c8.7 4.8 19.3 10.6 26 13.5 13.5 6.7 26 15.4 34.7 28.9 3.9 5.8 8.7 16.4 5.8 24.1-3.9 8.7-5.8 24.1-14.5 27-10.6 5.8-25.1 5.8-38.6 3.9-7.7 0-14.5-1.9-22.2-3.9 27 10.6 53 24.1 71.3 49.2 1.9 3.9 8.7 5.8 16.4 5.8 1.9 0 1.9 3.9 1.9 5.8-3.9 3.9-7.7 5.8-5.8 10.6h5.8c8.7-3.9 7.7-22.2 20.2-16.4 8.7 5.8 12.5 18.3 7.7 27-7.7 7.7-14.5 12.5-22.2 18.3-1.9 3.9-1.9 8.7 0 12.5 5.8 7.7 7.7 14.5 8.7 22.2 5.8 12.5 7.7 27 12.5 40.5 7.7 27 14.5 54.9 12.5 81.9 0 14.5-7.7 27-1.9 41.4 3.9 14.5 12.5 25.1 20.2 38.6 7.7 10.6 14.5 18.3 20.2 28.9 10.6 18.3 30.8 36.6 22.2 57.8-5.8 12.5-25.1 10.6-38.6 18.3-10.6 8.7-1.9 24.1 3.9 32.8 8.7 16.4-10.6 27-24.1 31.8 3.9 5.8 10.6 3.9 12.5 7.7 1.9 8.7 10.6 14.5 5.8 24.1-7.7 10.6-28.9 16.4-18.3 32.8 7.7 12.5 2.9 27-1.9 40.5-5.8 14.5-18.3 24.1-32.8 27-10.6 3.9-24.1 3.9-34.7 1.9-3.9-1.9-7.7-3.9-10.6-3.9-30.8-3.9-61.7-12.5-92.5-12.5-8.7 1.9-18.3 3.9-25.1 6.7-7.7 5.8-15.4 12.5-22.2 19.3-1 1.9-2.9 2.9-3.9 4.8-1 1-1.9 1.9-1.9 2.9l-1.9 1.9c-5.8 6.7-9.6 13.5-14.5 21.2 0 1-1 1-1 1 0 1-1 1.9-1.9 2.9-5.8 10.6-10.6 22.2-13.5 33.7-12.5 41.4-6.7 77.1 1.9 85.8 1.9 1.9 59.8 20.2 100.2 38.6 19.3 8.7 31.8 14.5 43.4 22.2h1016.8V275.6h-.5z"/>
	<path fill="gray" d="M1976 628.4c7.7 1.9 18.3 1.9 18.3 5.8-3.9 14.5-25.1 18.3-36.6 32.8h-5.8c-5.8 3.9-3.9 12.5-8.7 12.5-5.8-1.9-10.6 0-16.4 1.9 7.7 7.7 16.4 12.5 27 10.6 1.9 0 5.8 3.9 5.8 7.7 0 0 1.9 0 3.9-1.9 1.9 0 3.9 0 3.9 1.9v7.7c-5.8 7.7-14.5 3.9-22.2 5.8 14.5 3.9 28.9 3.9 42.4 0 10.6-3.9 0-22.2 7.7-30.8-3.9 0 0-5.8-3.9-5.8 3.9-3.9 7.7-8.7 10.6-10.6 3.9 0 8.7-1.9 10.6-5.8 0-3.9-7.7-5.8-5.8-8.7 10.6-7.7 20.2-18.3 16.4-28.9-1.9-5.8-16.4-5.8-25.1-9.6-8.7-3.9-20.2 0-30.8 1.9-8.7 0-18.3 5.8-27 7.7-12.5 3.9-24.1 10.6-34.7 18.3 12.5-5.8 25.1-7.7 39.5-10.6 10.7-1.9 19.3-3.8 30.9-1.9"/>
	<path d="M294.2 2444.1v-722.8H514c79.7 0 142 19.3 187 57.8 45.6 38.6 68.7 91.2 69.4 158.1 0 43-10 80.3-29.9 111.8-19.9 32.1-48.2 57.2-84.8 75.2l225.5 320H706.7l-191.8-292h-74.2v292H294.2zm146.5-416.3h81.9c30.8 0 54.6-8 71.3-24.1 17.3-16.1 26-38.9 26-68.4 0-27.6-8.7-49.5-26-65.5-17.3-16.1-41.1-23.8-71.3-23.1h-81.9v181.1zm542.6 416.3v-722.8h419.2v125.3h-273.7v166.7h232.3v125.3h-232.3v180.2h273.7v125.3H983.3zm141.7-784.5l115.7-139.7H1391l-133 139.7h-133zm455.9 784.5v-722.8h238c79 0 141 19.3 186 57.8 45.6 38.6 68.4 91.2 68.4 158.1 0 66.8-22.8 119.2-68.4 157.1-45.6 38.6-107.6 57.8-186 57.8h-91.6v292h-146.4zm146.4-416.3h97.3c31.5 0 55.9-8.4 73.2-25.1 17.3-16.1 26-38.6 26-67.5 0-27.6-9-49.5-27-65.5-17.3-16.1-41.4-23.8-72.3-23.1h-97.3v181.2zm463.6 133.9v-440.4h146.5v452c0 48.2 12.9 86.1 38.6 113.7 25.7 27 61.4 40.5 107 40.5 45 0 80.3-13.5 106-40.5 25.7-27 38.6-64.9 38.6-113.7v-452H2774v440.4c0 95.1-26 169.3-78.1 222.6s-123.4 80-214 80c-90 0-160.9-26.7-213-80-52-53.9-78-128.1-78-222.6zm773.9 282.4v-722.8h204.3c75.2 0 134 17.3 176.4 52 43 34.7 64.6 82.9 64.6 144.6 0 59.8-25.4 107.3-76.1 142.6 37.9 17.3 67.1 40.5 87.7 69.4 20.6 29.6 30.8 63.3 30.8 101.2 0 66.2-24.1 118.2-72.3 156.1-47.5 37.9-112.8 56.9-195.6 56.9h-219.8zm145.5-125.3h82.9c34.1 0 60.7-8.4 80-25.1 19.3-17.3 28.9-40.8 28.9-70.4 0-29.6-9.6-52.7-28.9-69.4-19.3-16.1-45.9-24.1-80-24.1h-82.9v189zm0-314.2h61.7c27.6 0 49.2-7.1 64.6-21.2 15.4-13.5 23.1-33.1 23.1-58.8 0-24.4-7.7-43.4-23.1-56.9-14.8-14.1-36.3-21.2-64.6-21.2h-61.7v158.1zm501.2 439.5v-722.8H3757v589.8h273.7v133h-419.2zm558 0v-722.8H4315v722.8h-145.5zm323.8-213.9c-18.6-46.9-27.9-96.1-27.9-147.5 0-51.4 9.3-100.2 27.9-146.5 18.6-46.9 44.3-87.7 77.1-122.4 33.4-34.7 73.9-62.3 121.4-82.9 48.2-20.6 99.9-30.8 155.2-30.8s107 10.3 155.2 30.8c48.2 20.6 88.7 48.2 121.4 82.9s58.5 75.5 77.1 122.4c18.6 46.3 27.9 95.1 27.9 146.5 0 60.4-12.5 116.9-37.6 169.6-25.1 52.7-59.8 96.7-104.1 132l43.4 41.4c50.8 46.3 100.9 69.1 150.3 68.4 20.6 0 37.9-2.6 52-7.7v124.3c-22.5 9-47.9 13.2-76.1 12.5-77.7 0-152.6-31.5-224.6-94.4l-85.8-77.1c-31.5 8.4-64.6 12.5-99.3 12.5-55.3 0-107-10.3-155.2-30.8-47.5-20.6-88-47.9-121.4-81.9-32.5-34.6-58.2-75.1-76.9-121.3zm188-321.9c-43.7 46.9-65.9 105.1-66.5 174.4 0 69.4 22.2 127.5 66.5 174.4 43.7 46.9 99.3 70.4 166.7 70.4 44.3 0 83.8-10.6 118.5-31.8 35.3-21.2 63-50.8 82.9-88.7 19.9-37.3 29.9-78.7 29.9-124.3 0-69.4-22.2-127.5-66.5-174.4-43.7-46.9-98.9-70.4-165.8-70.4-67.5 0-123 23.5-166.7 70.4h1zm684.3 253.4v-440.4H5512v452c0 48.2 12.9 86.1 38.6 113.7 25.7 27 61.4 40.5 107 40.5 45 0 80.3-13.5 106-40.5 25.7-27 38.6-64.9 38.6-113.7v-452h146.5v440.4c0 95.1-26 169.3-78.1 222.6-52 54-123.4 80.6-214 80-90 0-160.9-26.7-213-80-52-53.9-78-128.1-78-222.6zm773.9 282.4v-722.8h419.2v125.3H6285v166.7h232.3v125.3H6285v180.2h273.7v125.3h-419.2zM294.2 3489.8V2767h419.2v125.3H440.7V3059H673v125.3H440.7v305.5H294.2zm558 0V2767H1072c79 0 141.7 19.3 187.9 57.8 45.6 38.6 68.4 91.2 68.4 158.1 0 43-10 80.6-29.9 112.8-19.9 32.1-48.2 56.9-84.8 74.2l225.5 320h-174.4l-191.8-292h-74.2v292H852.2zm146.5-416.3h81.9c30.8 0 54.9-8 72.3-24.1 17.3-16.1 25.7-38.9 25.1-68.4 0-27.6-8.4-49.5-25.1-65.5-16.7-16.1-40.8-23.8-72.3-23.1h-81.9v181.1zm481.9 416.3l272.7-722.8h190.8l272.7 722.8h-155.2l-69.4-187.9H1704l-68.4 187.9h-155zm268.9-313.2H1948l-99.3-270.8-99.2 270.8zm588.9 313.2V2767h187l321.9 517.5V2767h145.5v722.8h-187l-321.9-519.5v519.5h-145.5zm805.7-361.4c0-51.4 9.3-100.2 27.9-146.5 18.6-46.9 44.3-87.7 77.1-122.4 33.4-34.7 73.9-62 121.4-81.9 48.2-20.6 100.2-30.8 156.1-30.8 63.6 0 121.4 12.9 173.5 38.6 52.7 26.3 95.7 62.3 129.1 107.9l-114.7 89.6c-21.2-30.2-47.9-54.3-80-72.3s-68.1-27-107.9-27c-67.5 0-123 23.5-166.7 70.4-43.7 46.9-65.9 105.1-66.5 174.4 0 69.4 22.2 127.9 66.5 175.4 43.7 46.9 99.3 70 166.7 69.4 39.8 0 75.8-8.7 107.9-26 32.1-18 58.8-42.4 80-73.2l114.7 88.7c-28.3 39.2-63.6 71.3-106 96.4-42.4 25.1-89.3 40.8-140.7 47.2l-89.6 150.3h-129.1l90.6-152.3c-61-10.9-115.3-34.4-162.9-70.4-47.5-36-84.2-80.6-109.9-134-25.6-53.3-38.2-110.5-37.5-171.5zm727.6 361.4l272.7-722.8h190.8l272.7 722.8h-155.2l-68.4-187.9h-288.2l-69.4 187.9h-155zm269.9-313.2h197.6l-99.3-270.8-98.3 270.8zm587.9 313.2V2767H4876v722.8h-146.5zm293-100.2l106-97.3c21.8 28.3 46.3 50.1 73.2 65.5 27.6 15.4 56.2 23.1 85.8 23.1 28.9 0 51.4-7.4 67.5-22.2 16.7-14.8 25.1-35.3 25.1-61.7 0-15.4-4.5-29.6-13.5-42.4-9.6-12.9-22.2-23.5-37.6-31.8-15.4-9-33.1-18-53-27-19.9-9.6-40.2-19-60.7-27.9s-40.5-19.9-59.8-32.8c-19.9-12.9-37.6-27-53-42.4-15.4-15.4-27.9-35-37.6-58.8s-14.5-49.8-14.5-78.1c0-58.5 21.8-107.9 65.5-148.4s98.9-60.7 165.8-60.7c100.2 0 184.1 40.5 251.5 121.4l-107 96.4c-46.3-60.4-94.1-90.6-143.6-90.6-24.4 0-44.7 7.4-60.7 22.2-16.1 14.8-23.8 32.8-23.1 54 0 13.5 3.9 26 11.6 37.6 7.7 10.9 17.7 20.9 29.9 29.9 12.9 8.4 27.6 16.7 44.3 25.1l51.1 24.1c18.6 8.4 36.9 16.7 54.9 25.1 18.6 9 36 19.9 52 32.8 16.7 12.2 31.5 26.3 44.3 42.4 12.9 15.4 22.8 33.7 29.9 54.9 7.7 21.8 11.6 45.9 11.6 72.3-1.3 65.5-24.7 117.9-70.4 157.1-45 39.2-101.2 58.8-168.7 58.8-59.1 0-110.2-10-153.2-29.9-43-20.7-80.9-50.9-113.6-90.7zm668.8 100.2V2767h419.2v125.3h-272.7V3059h232.3v125.3h-232.3v180.2h272.7v125.3h-419.2z"/>
</svg>
