<svg width="32" height="31" viewBox="0 0 32 31" fill="none" xmlns="http://www.w3.org/2000/svg">
<path fill-rule="evenodd" clip-rule="evenodd" d="M27.3929 23.0181H10.729C8.24887 23.0181 6.23621 20.9419 6.23621 18.3834V4.63467C6.23621 2.0762 8.24887 0 10.729 0H27.3929C29.8731 0 31.8857 2.0762 31.8857 4.63467V18.3875C31.8818 20.9459 29.8731 23.0181 27.3929 23.0181Z" fill="#4D6EC5" fill-opacity="0.2"/>
<path d="M27.0362 11.4477C26.9966 11.4027 26.957 11.3619 26.9173 11.321C26.3666 10.7488 25.5861 10.3851 24.7264 10.2911C24.5243 10.2706 24.3183 10.2747 24.1202 10.2747H19.5085V9.13444C19.5085 8.174 18.9697 7.37703 18.106 7.05824C17.8326 6.95607 17.5514 6.95198 17.2819 6.95607H10.4952C9.80976 6.95607 9.18377 7.31164 8.7757 7.92878C8.46271 8.40287 8.4627 8.95462 8.4627 9.4001V10.2788H3.53011C1.8344 10.2788 0.344721 11.558 0.0634243 13.2542C-0.00392833 13.6547 4.4229e-05 14.0593 4.4229e-05 14.4476V27.244C4.4229e-05 27.6118 0.0356972 27.9388 0.107012 28.2494C0.301146 29.0872 0.820162 29.8433 1.57293 30.3869C2.14344 30.7997 2.85659 31 3.74802 31H24.35C25.4871 31 26.5172 30.5136 27.1709 29.6635C27.6939 28.981 27.9712 28.184 27.9712 27.3584V13.9122C27.9633 12.9926 27.6384 12.1425 27.0362 11.4477ZM2.82093 29.0831L2.75754 29.0504C2.6783 29.0096 2.59905 28.9646 2.52774 28.9156C2.51189 28.9033 2.47228 28.8747 2.43662 28.8502L2.397 28.8216C2.35342 28.7848 2.3138 28.748 2.27418 28.7071C2.21872 28.654 2.16721 28.5927 2.11966 28.5355L2.03647 28.421C1.99288 28.3557 1.95327 28.2862 1.91761 28.2167C1.90969 28.2004 1.88987 28.1595 1.87403 28.1227C1.85818 28.09 1.85026 28.0655 1.83837 28.0491C1.79083 27.9183 1.75517 27.7794 1.72347 27.6118L1.71555 27.5219C1.71159 27.4647 1.71158 27.4116 1.71158 27.3339V18.2812H10.7368V18.4978C10.7368 18.6 10.7368 18.7021 10.7329 18.8084C10.725 19.1435 10.721 19.4909 10.7765 19.8302C10.931 20.7783 11.8066 21.5222 12.7693 21.5222H15.1346C16.0181 21.5222 16.7709 21.0031 17.0957 20.1612C17.2463 19.7811 17.2344 19.3479 17.2265 18.9678C17.2265 18.8861 17.2225 18.8002 17.2225 18.7226V18.2853H26.2478V27.3094V27.4483C26.2478 27.4647 26.2438 27.5137 26.2398 27.5546C26.2359 27.5996 26.2319 27.6241 26.2319 27.6445C26.224 27.6936 26.2121 27.7467 26.2002 27.7957C26.1804 27.8734 26.1566 27.951 26.1329 28.0369L26.0814 28.1554C26.0299 28.2657 25.9665 28.3761 25.8833 28.4946C25.8635 28.5151 25.8437 28.5396 25.8278 28.5559C25.804 28.5845 25.7803 28.6131 25.7684 28.6254C25.7089 28.6908 25.6416 28.7562 25.5782 28.8134L25.499 28.8747C25.4356 28.9197 25.3722 28.9605 25.3048 28.9973C25.2573 29.0259 25.2058 29.0504 25.1622 29.0709L25.1147 29.0913C25.0671 29.1118 25.0156 29.124 24.9681 29.1404C24.8928 29.1649 24.8175 29.1812 24.7383 29.1976L24.6392 29.2139C24.5719 29.2221 24.5006 29.2221 24.4332 29.2221H4.30268H3.43899C3.39937 29.2221 3.35974 29.218 3.32012 29.2139L3.28051 29.2098C3.14581 29.1894 3.00318 29.1526 2.82093 29.0831ZM15.7091 19.4623L15.511 19.4787C15.503 19.5114 15.4951 19.5441 15.4951 19.5481C15.4832 19.5727 15.4713 19.5972 15.4515 19.6217C15.4357 19.6381 15.4119 19.6585 15.3921 19.6748C15.3802 19.6871 15.3683 19.6953 15.3564 19.7075L15.3287 19.7239C15.3049 19.7321 15.2772 19.7402 15.2455 19.7484C15.2297 19.7484 15.2138 19.7484 15.194 19.7484H12.7654L12.6544 19.7321C12.6425 19.728 12.6267 19.7198 12.6148 19.7157C12.599 19.7075 12.5831 19.6953 12.5593 19.6789C12.5474 19.6667 12.5316 19.6462 12.5078 19.6176L12.4642 19.5155C12.4563 19.4868 12.4524 19.4664 12.4484 19.4501V18.273H15.507V19.4255L15.7091 19.4623ZM17.7019 8.81566C17.7138 8.82792 17.7296 8.84835 17.7296 8.84835C17.7455 8.87288 17.7574 8.90148 17.7613 8.8974L17.7811 8.96279L17.7891 10.2747H10.1782V9.13444C10.1782 9.08131 10.1782 9.02818 10.1782 8.99957C10.1861 8.96688 10.1941 8.93418 10.1941 8.92601C10.2059 8.8974 10.2218 8.87288 10.2456 8.84018C10.2654 8.81974 10.2852 8.79931 10.2931 8.79114C10.3208 8.7707 10.3486 8.75435 10.3525 8.75435C10.3803 8.74618 10.404 8.738 10.4397 8.72983H17.2938H17.4998C17.5078 8.72983 17.5196 8.73392 17.5355 8.738C17.5553 8.74209 17.5791 8.74618 17.5989 8.75026C17.6147 8.75844 17.6306 8.76661 17.6425 8.77479C17.6583 8.77887 17.69 8.8034 17.7019 8.81566ZM25.8318 12.4163L25.7327 12.6043L25.7763 12.6493C25.7882 12.6615 25.8159 12.6983 25.8436 12.7269C25.8635 12.7514 25.8833 12.776 25.8833 12.776C25.8833 12.776 25.8833 12.776 25.8833 12.7719C25.915 12.8168 25.9467 12.8659 25.9744 12.9108C26.014 12.9762 26.0497 13.0457 26.0933 13.1275L26.1408 13.2501C26.1804 13.3645 26.2121 13.4871 26.2359 13.622L26.2517 16.5033H1.71158V13.9612V13.8182L1.51349 13.81L1.71158 13.7691L1.71952 13.6547C1.72744 13.6056 1.73536 13.5566 1.74724 13.5075C1.76309 13.4299 1.78686 13.3522 1.81063 13.2746C1.81856 13.246 1.83044 13.2133 1.8344 13.2051L1.86611 13.1356C1.91761 13.0294 1.98101 12.9149 2.05628 12.8046C2.07609 12.7841 2.09194 12.7637 2.10382 12.7474C2.12759 12.7188 2.15533 12.682 2.16325 12.6697C2.21475 12.6125 2.27022 12.5594 2.32569 12.5062C2.34946 12.4858 2.37323 12.4613 2.40097 12.4408C2.47228 12.3877 2.54756 12.3387 2.62283 12.2937C2.68622 12.2569 2.74961 12.2242 2.813 12.1915C2.84866 12.1752 2.88431 12.1629 2.92393 12.1507C2.99921 12.1261 3.07449 12.1057 3.14976 12.0853C3.18938 12.0771 3.22504 12.0689 3.28843 12.0567C3.40333 12.0444 3.51426 12.0444 3.64897 12.0444H24.4451C24.5006 12.0444 24.556 12.0485 24.6075 12.0485L24.6828 12.0526C24.7977 12.073 24.9166 12.1016 25.0513 12.1466C25.075 12.1547 25.0988 12.1629 25.1265 12.1711C25.1384 12.1793 25.1543 12.1834 25.1662 12.1915C25.1979 12.2038 25.2296 12.2201 25.2454 12.2283C25.3484 12.2814 25.4435 12.3427 25.5505 12.4245C25.5941 12.4613 25.6376 12.5062 25.6812 12.5471L25.8318 12.4163Z" fill="#223A7A"/>
</svg>
