<svg width="38" height="37" viewBox="0 0 38 37" fill="none" xmlns="http://www.w3.org/2000/svg">
<path d="M23.232 29.7201C31.3881 29.7201 38 23.0671 38 14.8601C38 6.65308 31.3881 0 23.232 0C15.0759 0 8.46399 6.65308 8.46399 14.8601C8.46399 23.0671 15.0759 29.7201 23.232 29.7201Z" fill="#F1FCFF"/>
<path d="M12.3447 5.70264C12.2174 5.70264 12.0945 5.72472 11.9804 5.77331C11.976 5.77773 11.9716 5.77773 11.9672 5.78215C5.34265 5.9986 0 11.4143 0 18.1287C0.00439001 21.1591 1.11507 24.0789 3.10374 26.3406V36.0191C3.10374 36.558 3.53396 36.9998 4.07393 36.9998C4.07832 36.9998 4.07832 36.9998 4.08271 36.9998H17.0025C17.5381 36.9998 17.9727 36.558 17.9727 36.0191V30.948H23.75C24.2856 30.948 24.7202 30.5062 24.7202 29.9673C24.7202 29.234 24.7202 27.1711 24.7202 26.1463L26.722 26.133C27.2576 26.133 27.6922 25.6913 27.6922 25.1524C27.6922 24.958 27.6351 24.7681 27.5254 24.609C27.5254 24.609 26.801 23.5312 26.0811 22.2369C25.7211 21.5875 25.3611 20.8852 25.1065 20.2667C24.8475 19.6439 24.7114 19.0741 24.7114 18.8709C24.707 18.5749 24.6938 18.3408 24.6982 18.142C24.6982 18.1376 24.6982 18.1331 24.6982 18.1287C24.6938 11.2774 19.1536 5.70264 12.3447 5.70264ZM12.3447 7.65954C18.1044 7.65954 22.7491 12.3331 22.7491 18.1287C22.7447 18.4247 22.7622 18.6721 22.7622 18.8929C22.7666 19.613 23.0081 20.2888 23.3066 21.0133C23.6095 21.7422 23.9914 22.4975 24.3734 23.1866C24.6807 23.7388 24.729 23.7741 24.9836 24.1894L23.7324 24.1982C23.1968 24.1982 22.7622 24.64 22.7622 25.1789C22.7622 25.1789 22.7622 27.5201 22.7622 28.9911H16.9937C16.4582 28.9911 16.0192 29.424 16.0192 29.9673C16.0192 29.9717 16.0192 29.9717 16.0192 29.9761V35.0473H5.04413V25.9917C5.04413 25.7399 4.95194 25.4969 4.78073 25.3114C2.95448 23.3677 1.94039 20.8012 1.94039 18.1287C1.94039 12.3331 6.58502 7.65954 12.3447 7.65954ZM11.4096 10.8842V11.8605V12.4126C10.6941 12.5496 10.0312 12.8323 9.4517 13.2343L9.06099 12.8455L8.37176 12.152L7.00207 13.5391L7.68252 14.2238L8.07763 14.6213C7.68253 15.2044 7.40157 15.8714 7.26109 16.5871H6.71234H5.73775V18.544H6.71234H7.26109C7.39718 19.264 7.67813 19.931 8.07324 20.5141L7.68252 20.9028L7.00207 21.5964L8.37176 22.9834L9.06099 22.2899L9.4517 21.8968C10.0312 22.2943 10.6941 22.577 11.4096 22.714V23.2661V24.2468H13.3544V23.2661V22.714C14.0656 22.577 14.7285 22.2943 15.308 21.8923L15.7031 22.2899L16.3923 22.9834L17.762 21.5964L17.0728 20.9028L16.6864 20.5141C17.0859 19.931 17.3669 19.264 17.503 18.544H18.0517H19.0219V16.5826H18.0517H17.503C17.3669 15.867 17.0815 15.2 16.6864 14.6169L17.0728 14.2238L17.762 13.5391L16.3923 12.152L15.7031 12.8455L15.3124 13.2387C14.7329 12.8411 14.07 12.554 13.3588 12.4171V11.8649V10.8842H11.4096ZM12.3798 14.2724C13.2622 14.2724 14.0568 14.6213 14.6451 15.1912L14.7461 15.2928C15.308 15.8847 15.6548 16.6798 15.6548 17.5677C15.6548 18.4512 15.308 19.2419 14.7548 19.8294L14.6363 19.9487C14.0524 20.5097 13.2622 20.8543 12.3798 20.8543C11.5106 20.8543 10.7336 20.5141 10.1497 19.9664L9.99606 19.8118C9.4517 19.2242 9.11367 18.4424 9.11367 17.5677C9.11367 17.338 9.13562 17.1172 9.17952 16.9007C9.30244 16.2911 9.59657 15.7522 10.0005 15.3149L10.1365 15.1735C10.7204 14.6169 11.5062 14.2724 12.3798 14.2724Z" fill="#223A7A"/>
</svg>
