<svg width="41" height="40" viewBox="0 0 41 40" fill="none" xmlns="http://www.w3.org/2000/svg">
<g filter="url(#filter0_d)">
<circle cx="20.8647" cy="16" r="16" fill="#4D6EC5"/>
<path d="M27.469 12.3074L23.2761 16.5002L27.469 20.6933C27.9968 21.2211 27.9965 22.0767 27.469 22.6042C26.9412 23.1319 26.0856 23.1316 25.5581 22.6042L21.3648 18.411L17.1715 22.6042C16.6437 23.1319 15.7881 23.1319 15.2606 22.6042C14.7328 22.0764 14.7328 21.2208 15.2606 20.6933L19.4539 16.5002L15.2609 12.3067C14.7331 11.7789 14.7334 10.9233 15.2609 10.3958C15.5248 10.1319 15.8705 10 16.2164 10C16.5623 10 16.908 10.1319 17.1719 10.3958L21.3645 14.589L25.5577 10.3962C25.8217 10.1323 26.1673 10.0003 26.5132 10.0003C26.8592 10.0003 27.2048 10.1323 27.4687 10.3962C27.9965 10.924 27.9965 11.7796 27.469 12.3074Z" fill="white"/>
</g>
<defs>
<filter id="filter0_d" x="0.864746" y="0" width="40" height="40" filterUnits="userSpaceOnUse" color-interpolation-filters="sRGB">
<feFlood flood-opacity="0" result="BackgroundImageFix"/>
<feColorMatrix in="SourceAlpha" type="matrix" values="0 0 0 0 0 0 0 0 0 0 0 0 0 0 0 0 0 0 127 0"/>
<feOffset dy="4"/>
<feGaussianBlur stdDeviation="2"/>
<feColorMatrix type="matrix" values="0 0 0 0 0 0 0 0 0 0 0 0 0 0 0 0 0 0 0.15 0"/>
<feBlend mode="normal" in2="BackgroundImageFix" result="effect1_dropShadow"/>
<feBlend mode="normal" in="SourceGraphic" in2="effect1_dropShadow" result="shape"/>
</filter>
</defs>
</svg>
