<svg width="73" height="124" viewBox="0 0 73 124" fill="none" xmlns="http://www.w3.org/2000/svg">
<g filter="url(#filter0_d)">
<circle cx="36.8647" cy="36" r="16" fill="#4D6EC5"/>
<path d="M43.469 32.3074L39.2761 36.5002L43.469 40.6933C43.9968 41.2211 43.9965 42.0767 43.469 42.6042C42.9412 43.1319 42.0856 43.1316 41.5581 42.6042L37.3648 38.411L33.1715 42.6042C32.6437 43.1319 31.7881 43.1319 31.2606 42.6042C30.7328 42.0764 30.7328 41.2208 31.2606 40.6933L35.4539 36.5002L31.2609 32.3067C30.7331 31.7789 30.7334 30.9233 31.2609 30.3958C31.5248 30.1319 31.8705 30 32.2164 30C32.5623 30 32.908 30.1319 33.1719 30.3958L37.3645 34.589L41.5577 30.3962C41.8217 30.1323 42.1673 30.0003 42.5132 30.0003C42.8592 30.0003 43.2048 30.1323 43.4687 30.3962C43.9965 30.924 43.9965 31.7796 43.469 32.3074Z" fill="white"/>
</g>
<g filter="url(#filter1_d)">
<circle cx="36.8647" cy="88" r="16" fill="white"/>
<path d="M43.469 84.3074L39.2761 88.5002L43.469 92.6933C43.9968 93.2211 43.9965 94.0767 43.469 94.6042C42.9412 95.1319 42.0856 95.1316 41.5581 94.6042L37.3648 90.411L33.1715 94.6042C32.6437 95.1319 31.7881 95.1319 31.2606 94.6042C30.7328 94.0764 30.7328 93.2208 31.2606 92.6933L35.4539 88.5002L31.2609 84.3067C30.7331 83.7789 30.7334 82.9233 31.2609 82.3958C31.5248 82.1319 31.8705 82 32.2164 82C32.5623 82 32.908 82.1319 33.1719 82.3958L37.3645 86.589L41.5577 82.3962C41.8217 82.1323 42.1673 82.0003 42.5132 82.0003C42.8592 82.0003 43.2048 82.1323 43.4687 82.3962C43.9965 82.924 43.9965 83.7796 43.469 84.3074Z" fill="#00B2DB"/>
</g>
<rect x="1.36475" y="0.5" width="71" height="123" rx="4.5" stroke="#7B61FF" stroke-dasharray="10 5"/>
<defs>
<filter id="filter0_d" x="16.8647" y="20" width="40" height="40" filterUnits="userSpaceOnUse" color-interpolation-filters="sRGB">
<feFlood flood-opacity="0" result="BackgroundImageFix"/>
<feColorMatrix in="SourceAlpha" type="matrix" values="0 0 0 0 0 0 0 0 0 0 0 0 0 0 0 0 0 0 127 0"/>
<feOffset dy="4"/>
<feGaussianBlur stdDeviation="2"/>
<feColorMatrix type="matrix" values="0 0 0 0 0 0 0 0 0 0 0 0 0 0 0 0 0 0 0.15 0"/>
<feBlend mode="normal" in2="BackgroundImageFix" result="effect1_dropShadow"/>
<feBlend mode="normal" in="SourceGraphic" in2="effect1_dropShadow" result="shape"/>
</filter>
<filter id="filter1_d" x="16.8647" y="72" width="40" height="40" filterUnits="userSpaceOnUse" color-interpolation-filters="sRGB">
<feFlood flood-opacity="0" result="BackgroundImageFix"/>
<feColorMatrix in="SourceAlpha" type="matrix" values="0 0 0 0 0 0 0 0 0 0 0 0 0 0 0 0 0 0 127 0"/>
<feOffset dy="4"/>
<feGaussianBlur stdDeviation="2"/>
<feColorMatrix type="matrix" values="0 0 0 0 0 0 0 0 0 0 0 0 0 0 0 0 0 0 0.15 0"/>
<feBlend mode="normal" in2="BackgroundImageFix" result="effect1_dropShadow"/>
<feBlend mode="normal" in="SourceGraphic" in2="effect1_dropShadow" result="shape"/>
</filter>
</defs>
</svg>
