<svg width="41" height="37" viewBox="0 0 41 37" fill="none" xmlns="http://www.w3.org/2000/svg">
<path d="M20.4189 13.8472C16.6665 13.8472 13.6111 10.8005 13.6111 7.05891C13.6111 3.32249 16.6665 0.275879 20.4189 0.275879C24.1713 0.275879 27.2266 3.32249 27.2266 7.06413C27.2214 10.8058 24.1713 13.8472 20.4189 13.8472ZM20.4189 2.36618C17.8247 2.36618 15.7074 4.47216 15.7074 7.06413C15.7074 9.65611 17.8194 11.7621 20.4189 11.7621C23.0183 11.7621 25.1303 9.65611 25.1303 7.06413C25.1251 4.47216 23.0131 2.36618 20.4189 2.36618Z" fill="#DB8F00"/>
<path d="M33.3739 36.224C29.6215 36.224 26.5662 33.1774 26.5662 29.4357C26.5662 25.6941 29.6215 22.6475 33.3739 22.6475C37.1263 22.6475 40.1817 25.6941 40.1817 29.4357C40.1817 33.1774 37.1263 36.224 33.3739 36.224ZM33.3739 24.743C30.7798 24.743 28.6625 26.849 28.6625 29.4409C28.6625 32.0329 30.7745 34.1389 33.3739 34.1389C35.9734 34.1389 38.0854 32.0329 38.0854 29.4409C38.0854 26.849 35.9681 24.743 33.3739 24.743Z" fill="#DB8F00"/>
<path d="M7.46354 36.224C3.71114 36.224 0.655762 33.1774 0.655762 29.4357C0.655762 25.6941 3.71114 22.6475 7.46354 22.6475C11.2159 22.6475 14.2713 25.6941 14.2713 29.4357C14.2713 33.1774 11.2159 36.224 7.46354 36.224ZM7.46354 24.743C4.86411 24.743 2.75208 26.849 2.75208 29.4409C2.75208 32.0329 4.86411 34.1389 7.46354 34.1389C10.0577 34.1389 12.175 32.0329 12.175 29.4409C12.175 26.849 10.0577 24.743 7.46354 24.743Z" fill="#DB8F00"/>
<path d="M30.481 30.4806H10.3564C9.37111 30.4806 8.4959 29.9737 8.00326 29.1272C7.51063 28.2806 7.51063 27.2668 8.00326 26.415L18.0656 9.03413C18.5582 8.18756 19.4387 7.68066 20.4187 7.68066C21.404 7.68066 22.2792 8.18756 22.7718 9.03413L32.8341 26.415C33.3267 27.2616 33.3267 28.2754 32.8341 29.1272C32.3415 29.9737 31.461 30.4806 30.481 30.4806ZM20.4187 9.77097C20.3086 9.77097 20.0414 9.80232 19.8789 10.0793L9.81658 27.4601C9.65411 27.7423 9.76417 27.9879 9.81658 28.082C9.86899 28.1761 10.0314 28.3903 10.3564 28.3903H30.481C30.8059 28.3903 30.9632 28.1709 31.0208 28.082C31.0732 27.9879 31.1833 27.7423 31.0208 27.4601L20.9585 10.0793C20.796 9.80232 20.5235 9.77097 20.4187 9.77097Z" fill="#DB8F00"/>
</svg>
