<svg width="46" height="40" viewBox="0 0 46 40" fill="none" xmlns="http://www.w3.org/2000/svg">
<g clip-path="url(#clip0)">
<path fill-rule="evenodd" clip-rule="evenodd" d="M38.711 26.209H20.3152C16.621 26.209 13.6255 23.098 13.6255 19.2614V6.94764C13.6213 3.11101 16.6168 0 20.3152 0H38.711C42.4053 0 45.4008 3.11101 45.4008 6.94764V19.2614C45.4008 23.098 42.4053 26.209 38.711 26.209Z" fill="#F5E1EA"/>
<path d="M7.87733 27.2605C13.1153 27.2605 18.3492 27.2605 23.5914 27.2605C25.1979 27.3126 26.1811 25.8006 25.9844 24.232C25.9844 20.4519 25.9844 16.6718 25.9844 12.8916C25.9593 11.1927 26.3484 9.12884 24.4114 8.41626C23.5286 8.17294 22.5914 8.34674 21.6878 8.2946C20.6126 8.2946 19.5373 8.2946 18.4621 8.2946C14.4583 8.2946 10.4503 8.2946 6.44232 8.2946C5.19557 8.29895 3.93628 8.29026 2.68535 8.2946C1.41768 8.32067 0.421958 9.37651 0.40104 10.6887C0.40104 17.6624 0.40104 24.6361 0.40104 31.6098C0.384305 32.6439 1.67707 33.1958 2.37575 32.4571C4.20822 30.7278 6.04487 28.9898 7.87733 27.2605ZM23.7587 24.8621C23.7922 24.8577 23.8215 24.8534 23.8549 24.849C23.8215 24.8534 23.7922 24.8577 23.7587 24.8621ZM5.10772 26.6435C4.31281 27.3952 3.51372 28.1469 2.71882 28.8986C2.71882 22.8286 2.71463 16.763 2.71882 10.6974C9.70562 10.7061 16.6882 10.6974 23.675 10.6974C23.675 10.7017 23.6792 10.7104 23.6792 10.7148C23.6667 15.4291 23.675 20.1434 23.6708 24.8577H23.6667C20.2946 24.8577 16.9225 24.8577 13.5504 24.8577C11.5548 24.8577 9.56337 24.8577 7.56774 24.8577C6.51344 24.8881 5.88589 26.0396 5.10772 26.6435Z" fill="#232323"/>
<path d="M32.9169 17.8753C32.9336 16.6457 31.9546 15.6116 30.7957 15.5116C30.2184 15.4551 29.6285 15.516 29.0511 15.4986C27.5199 15.5638 27.5324 17.8362 29.0511 17.9057C29.5741 17.9101 30.0887 17.8927 30.6117 17.9014C30.6075 23.967 30.6117 30.0369 30.6075 36.1025C29.3607 34.9294 28.1223 33.7519 26.8756 32.5788C26.5242 32.1921 26.0389 32.0052 25.5033 32.066C20.2193 32.0617 14.9353 32.0704 9.64708 32.066V32.0617C9.63034 31.7575 9.65126 31.4447 9.65126 31.1406C9.65126 30.5105 9.11993 29.9109 8.49656 29.9413C7.869 29.9674 7.34185 30.4714 7.34185 31.1406C7.34185 31.4577 7.33349 31.7749 7.34185 32.0921C7.36277 33.1436 8.01543 34.056 8.98605 34.3689C10.4629 34.5992 11.9983 34.4037 13.4919 34.4645C17.479 34.4645 21.4661 34.4601 25.4531 34.4688C27.2856 36.1981 29.1181 37.9318 30.9505 39.6611C31.645 40.3954 32.942 39.8523 32.9252 38.8138C32.9252 37.9361 32.9252 37.0628 32.9252 36.1851C32.9169 30.0804 32.9169 23.98 32.9169 17.8753Z" fill="#232323"/>
<path d="M8.96512 17.4582C8.94001 16.8064 8.4547 16.259 7.81041 16.259C7.39622 16.259 6.98622 16.259 6.57203 16.259C5.96539 16.259 5.38804 16.8108 5.41733 17.4582C5.44661 18.1099 5.92774 18.6574 6.57203 18.6574C6.98622 18.6574 7.39622 18.6574 7.81041 18.6574C8.41287 18.6618 8.99022 18.1056 8.96512 17.4582Z" fill="#232323"/>
<path d="M12.5757 18.6618C12.9899 18.6618 13.3999 18.6618 13.8141 18.6618C15.3453 18.5966 15.3328 16.3285 13.8141 16.259C13.3999 16.259 12.9899 16.259 12.5757 16.259C11.9691 16.259 11.3917 16.8108 11.421 17.4582C11.4503 18.1099 11.9272 18.6618 12.5757 18.6618Z" fill="#232323"/>
<path d="M18.5794 18.6618C18.9935 18.6618 19.4035 18.6618 19.8177 18.6618C21.349 18.5966 21.3364 16.3285 19.8177 16.259C19.4035 16.259 18.9935 16.259 18.5794 16.259C17.9727 16.259 17.3954 16.8108 17.4247 17.4582C17.4539 18.1099 17.9351 18.6618 18.5794 18.6618Z" fill="#232323"/>
</g>
<defs>
<clipPath id="clip0">
<rect width="45" height="40" fill="white" transform="translate(0.400879)"/>
</clipPath>
</defs>
</svg>
