<svg width="16" height="20" viewBox="0 0 16 20" fill="none" xmlns="http://www.w3.org/2000/svg">
<path d="M15.0815 4.76182H12.7454C12.7128 3.4878 12.1837 2.27693 11.2711 1.38739C10.3585 0.497844 9.13444 0 7.86001 0C6.58557 0 5.36154 0.497844 4.44891 1.38739C3.53627 2.27693 3.00723 3.4878 2.97458 4.76182H0.641764C0.471558 4.76182 0.308323 4.82943 0.187969 4.94979C0.067615 5.07014 0 5.23337 0 5.40358V19.2015C0 19.3717 0.067615 19.535 0.187969 19.6553C0.308323 19.7757 0.471558 19.8433 0.641764 19.8433H15.0815C15.2517 19.8433 15.4149 19.7757 15.5353 19.6553C15.6556 19.535 15.7232 19.3717 15.7232 19.2015V5.40358C15.7232 5.23337 15.6556 5.07014 15.5353 4.94979C15.4149 4.82943 15.2517 4.76182 15.0815 4.76182ZM7.8584 1.08772C8.83316 1.08856 9.76785 1.47572 10.4577 2.16438C11.1476 2.85304 11.5364 3.78706 11.5389 4.76182C11.5394 5.20004 11.4612 5.6348 11.3079 6.04535C11.2117 6.3123 11.0835 6.56659 10.926 6.80263C10.7136 6.51637 10.4619 6.26145 10.1784 6.04535C9.98906 5.89504 9.78601 5.76289 9.57191 5.65066C9.8923 5.24753 10.0715 4.7504 10.0821 4.23557C10.0821 3.64581 9.84783 3.0802 9.4308 2.66317C9.01378 2.24614 8.44817 2.01186 7.8584 2.01186C7.26864 2.01186 6.70303 2.24614 6.286 2.66317C5.86897 3.0802 5.63469 3.64581 5.63469 4.23557C5.64124 4.41394 5.67035 4.59076 5.72133 4.76182C5.79938 5.08856 5.95205 5.39279 6.16735 5.65066C5.62777 5.925 5.15803 6.31902 4.79398 6.80263C4.39343 6.19982 4.18019 5.49198 4.18109 4.76823C4.18194 3.79292 4.56954 2.85774 5.25889 2.16779C5.94825 1.47783 6.88308 1.08942 7.8584 1.08772ZM7.83915 6.46249C8.28361 6.46902 8.71942 6.58629 9.10714 6.80368C9.49486 7.02107 9.82224 7.33172 10.0597 7.70751C9.42174 8.18856 8.64452 8.44877 7.84557 8.44877C7.04661 8.44877 6.26939 8.18856 5.63148 7.70751C5.86027 7.3267 6.18398 7.01178 6.57095 6.79354C6.95791 6.57531 7.39489 6.46124 7.83915 6.46249ZM6.84121 4.21632C6.84206 3.9471 6.9496 3.68919 7.14027 3.49913C7.33094 3.30906 7.58918 3.20233 7.8584 3.20233C7.99384 3.20054 8.12824 3.22617 8.25351 3.27767C8.37879 3.32916 8.49236 3.40547 8.58738 3.50199C8.6824 3.59851 8.75692 3.71326 8.80645 3.83933C8.85598 3.9654 8.8795 4.10018 8.8756 4.23557C8.87521 4.42361 8.82303 4.6079 8.72478 4.76823C8.63496 4.91735 8.50781 5.04047 8.35587 5.12544C8.20394 5.21041 8.03247 5.2543 7.8584 5.25277C7.6862 5.24988 7.51755 5.20332 7.36826 5.11746C7.21897 5.03159 7.09393 4.90922 7.00486 4.76182C6.9023 4.60509 6.84562 4.42281 6.84121 4.23557V4.21632ZM14.4397 18.5597H1.28353V6.04535H3.15427C3.43385 7.08205 4.0473 7.99773 4.89968 8.65069C5.75207 9.30366 6.79589 9.65751 7.86963 9.65751C8.94338 9.65751 9.98719 9.30366 10.8396 8.65069C11.692 7.99773 12.3054 7.08205 12.585 6.04535H14.4461L14.4397 18.5597Z" fill="#223A7A"/>
<path d="M11.9849 10.7432H3.73502C3.57078 10.7432 3.41325 10.8084 3.29711 10.9246C3.18097 11.0407 3.11572 11.1982 3.11572 11.3625C3.11572 11.5267 3.18097 11.6842 3.29711 11.8004C3.41325 11.9165 3.57078 11.9818 3.73502 11.9818H11.9849C12.1491 11.9818 12.3067 11.9165 12.4228 11.8004C12.539 11.6842 12.6042 11.5267 12.6042 11.3625C12.6042 11.1982 12.539 11.0407 12.4228 10.9246C12.3067 10.8084 12.1491 10.7432 11.9849 10.7432Z" fill="#223A7A"/>
<path d="M11.9849 12.8064H3.73502C3.57078 12.8064 3.41325 12.8716 3.29711 12.9878C3.18097 13.1039 3.11572 13.2614 3.11572 13.4257C3.11572 13.5899 3.18097 13.7475 3.29711 13.8636C3.41325 13.9798 3.57078 14.045 3.73502 14.045H11.9849C12.1491 14.045 12.3067 13.9798 12.4228 13.8636C12.539 13.7475 12.6042 13.5899 12.6042 13.4257C12.6042 13.2614 12.539 13.1039 12.4228 12.9878C12.3067 12.8716 12.1491 12.8064 11.9849 12.8064Z" fill="#223A7A"/>
<path d="M11.9849 14.8696H3.73502C3.57078 14.8696 3.41325 14.9349 3.29711 15.051C3.18097 15.1672 3.11572 15.3247 3.11572 15.4889C3.11572 15.6532 3.18097 15.8107 3.29711 15.9268C3.41325 16.043 3.57078 16.1082 3.73502 16.1082H11.9849C12.1491 16.1082 12.3067 16.043 12.4228 15.9268C12.539 15.8107 12.6042 15.6532 12.6042 15.4889C12.6042 15.3247 12.539 15.1672 12.4228 15.051C12.3067 14.9349 12.1491 14.8696 11.9849 14.8696Z" fill="#223A7A"/>
</svg>
