<svg width="13" height="19" viewBox="0 0 13 19" fill="none" xmlns="http://www.w3.org/2000/svg">
<path d="M3.82234 18C2.85159 18.0029 2.06234 17.1701 2.05959 16.1458L1 5H12L10.9404 16.1458C10.9377 17.1701 10.1484 18.0029 9.17766 18H3.82234Z" stroke="#D60051" stroke-width="1.5" stroke-linejoin="round"/>
<path d="M12.2108 2.48313H12.1228H9.33851V1.4278C9.33558 0.639676 8.64318 0.00269906 7.78649 0H5.21642C4.35973 0.00269906 3.66734 0.639676 3.6644 1.4278V2.48313H0.880161H0.792145C0.354998 2.48313 0 2.80972 0 3.21188V3.27126C0 3.67341 0.354998 4 0.792145 4H12.2078C12.645 4 13 3.67341 13 3.27126V3.21188C13.0029 2.80972 12.6479 2.48313 12.2108 2.48313ZM4.83795 1.7031C4.83795 1.51147 5.00812 1.35493 5.21642 1.35493H7.78649C7.9948 1.35493 8.16496 1.51147 8.16496 1.7031V2.48313H4.83795V1.7031Z" fill="#D60051"/>
<path d="M8.84779 8.88745L7.23512 10.5001L8.84779 12.1128C9.0508 12.3158 9.05067 12.6449 8.84779 12.8478C8.64479 13.0507 8.3157 13.0506 8.11281 12.8478L6.50002 11.235L4.88723 12.8478C4.68423 13.0507 4.35514 13.0507 4.15225 12.8478C3.94925 12.6448 3.94925 12.3157 4.15225 12.1128L5.76505 10.5001L4.15238 8.8872C3.94937 8.6842 3.94949 8.35512 4.15238 8.15225C4.25388 8.05075 4.38681 8 4.51986 8C4.65292 8 4.78585 8.05075 4.88735 8.15225L6.4999 9.76499L8.11269 8.15237C8.21419 8.05087 8.34713 8.00012 8.48018 8.00012C8.61323 8.00012 8.74617 8.05087 8.84767 8.15237C9.05067 8.35537 9.05067 8.68445 8.84779 8.88745Z" fill="#D60051"/>
</svg>
