<svg width="27" height="25" viewBox="0 0 27 25" fill="none" xmlns="http://www.w3.org/2000/svg">
<path d="M15.7826 19.6491C21.6886 19.6491 26.4763 15.2505 26.4763 9.82456C26.4763 4.3986 21.6886 0 15.7826 0C9.87666 0 5.08893 4.3986 5.08893 9.82456C5.08893 15.2505 9.87666 19.6491 15.7826 19.6491Z" fill="#ECE8F0"/>
<path d="M19.5063 6.49103L18.2969 5.37992C17.7877 4.91208 17.0875 4.64893 16.3555 4.64893C15.6235 4.64893 14.9233 4.91208 14.4141 5.37992L3.43396 15.4676C3.33848 15.5554 3.27482 15.6431 3.243 15.76L1.61985 20.994C1.5562 21.2279 1.61985 21.491 1.8108 21.6665C1.93811 21.7834 2.12907 21.8711 2.32003 21.8711C2.38368 21.8711 2.44733 21.8711 2.51099 21.8419L8.20793 20.3507C8.33523 20.3214 8.43071 20.263 8.52619 20.1752L19.5063 10.0875C20.0156 9.61968 20.302 8.97641 20.302 8.3039C20.302 7.60214 20.0156 6.95887 19.5063 6.49103ZM16.3237 11.0817L7.63505 19.0641L3.3703 20.1752L4.57971 16.2864L13.2683 8.3039L16.3237 11.0817ZM18.838 8.27466C18.838 8.59629 18.7107 8.88869 18.4561 9.09337L17.3421 10.1168L14.3186 7.33898L15.4325 6.31559C15.9418 5.84776 16.7374 5.84776 17.2466 6.31559L18.4561 7.4267C18.7107 7.66062 18.838 7.95302 18.838 8.27466Z" fill="#223A7A" stroke="#232323" stroke-width="0.25"/>
</svg>
