<svg width="24" height="25" viewBox="0 0 24 25" fill="none" xmlns="http://www.w3.org/2000/svg">
<path d="M14.0936 19.6491C19.5196 19.6491 23.9182 15.2505 23.9182 9.82456C23.9182 4.3986 19.5196 0 14.0936 0C8.66765 0 4.26904 4.3986 4.26904 9.82456C4.26904 15.2505 8.66765 19.6491 14.0936 19.6491Z" fill="#F1FCFF"/>
<path d="M17.5147 6.49152L16.4036 5.38041C15.9358 4.91257 15.2925 4.64941 14.62 4.64941C13.9475 4.64941 13.3042 4.91257 12.8364 5.38041L2.74865 15.4681C2.66093 15.5558 2.60245 15.6436 2.57321 15.7605L1.08199 20.9944C1.02351 21.2284 1.08199 21.4915 1.25742 21.667C1.37438 21.7839 1.54982 21.8716 1.72526 21.8716C1.78374 21.8716 1.84222 21.8716 1.9007 21.8424L7.13462 20.3512C7.25158 20.3219 7.3393 20.2634 7.42702 20.1757L17.5147 10.088C17.9826 9.62017 18.2457 8.9769 18.2457 8.30438C18.2457 7.60263 17.9826 6.95936 17.5147 6.49152ZM14.5908 11.0822L6.6083 19.0646L2.69018 20.1757L3.80128 16.2868L11.7837 8.30438L14.5908 11.0822ZM16.9007 8.27514C16.9007 8.59678 16.7837 8.88918 16.5498 9.09386L15.5264 10.1172L12.7487 7.33947L13.772 6.31608C14.2399 5.84824 14.9709 5.84824 15.4387 6.31608L16.5498 7.42719C16.7837 7.66111 16.9007 7.95351 16.9007 8.27514Z" fill="#223A7A" stroke="#232323" stroke-width="0.25"/>
</svg>
