<svg width="80" height="71" viewBox="0 0 80 71" fill="none" xmlns="http://www.w3.org/2000/svg">
<path fill-rule="evenodd" clip-rule="evenodd" d="M67.2232 47.068H32.3614C25.3604 47.068 19.6836 41.481 19.6836 34.5909V12.4771C19.6836 5.58699 25.3604 0 32.3614 0H67.2232C74.2241 0 79.9009 5.58699 79.9009 12.4771V34.5909C79.9089 41.481 74.232 47.068 67.2232 47.068Z" fill="#F1FCFF"/>
<path d="M36.9045 31.6962C37.1582 32.0863 37.5705 32.336 38.0462 32.3828C38.1017 32.3906 38.1572 32.3906 38.2127 32.3906C38.6408 32.3906 39.0452 32.219 39.3306 31.9147L49.8677 21.5366C53.3324 18.1267 53.3324 12.5709 49.8677 9.16096C48.1868 7.50672 45.9589 6.60156 43.5803 6.60156C41.6458 6.60156 39.7588 7.22581 38.2286 8.36505C36.6904 7.22581 34.8034 6.60156 32.8689 6.60156C30.4903 6.60156 28.2624 7.51452 26.5815 9.16096C24.9007 10.8152 23.981 13.0079 23.981 15.3488C23.981 17.6897 24.9086 19.8824 26.5815 21.5366L36.9045 31.6962ZM32.8768 9.64475C34.4149 9.64475 35.8659 10.2456 36.9758 11.338L37.1344 11.4941C37.737 12.0871 38.7201 12.0871 39.3227 11.4941L39.4813 11.338C40.5833 10.2534 42.0422 9.65255 43.5803 9.65255C45.1185 9.65255 46.5773 10.2534 47.6794 11.338C48.7815 12.4226 49.392 13.8584 49.392 15.3722C49.392 16.886 48.7815 18.3217 47.6794 19.4064L38.2365 28.7076L28.7777 19.3986C27.6757 18.3139 27.0652 16.8782 27.0652 15.3644C27.0652 13.8506 27.6757 12.4148 28.7777 11.3302C29.8798 10.2456 31.3387 9.64475 32.8768 9.64475Z" fill="#223A7A"/>
<path d="M64.7178 32.3752C63.6157 31.2905 62.141 30.6897 60.5712 30.6897C59.0013 30.6897 57.5345 31.2905 56.4245 32.3752L50.0896 38.6098C48.9241 37.057 47.1164 36.1518 45.1581 36.1518H26.6845C21.42 36.1518 18.4943 39.0312 16.3616 41.138L11.6837 45.7418L10.4706 44.5479C10.1773 44.2592 9.78878 44.0953 9.3765 44.0953C8.988 44.0953 8.61536 44.2358 8.32993 44.4933L1.36073 51.3522C1.06738 51.6409 0.900879 52.0232 0.900879 52.429C0.900879 52.8347 1.05945 53.2171 1.36073 53.5136L18.6767 70.5555C18.978 70.852 19.3744 71.0002 19.7708 71.0002C20.1673 71.0002 20.5637 70.852 20.8729 70.5477L27.7945 63.7356C28.3971 63.1426 28.405 62.175 27.8025 61.5742L26.5894 60.3803L27.9531 59.0382C29.0076 57.9926 29.6498 57.3605 31.3227 57.3605H47.4811C51.493 57.3605 54.934 55.48 57.4314 51.914C58.8189 49.932 60.1747 47.7394 61.4909 45.6169C62.7198 43.635 63.8774 41.7544 64.9001 40.3187C65.7881 39.078 66.2876 37.7202 66.3352 36.3937C66.3748 34.8877 65.804 33.452 64.7178 32.3752ZM24.3773 58.2345L13.872 47.8954L18.6846 43.1512C20.9284 40.9429 22.6965 39.195 26.6766 39.195H45.1501C46.8706 39.195 48.2105 40.5215 48.2105 42.207C48.2105 43.9003 46.8627 45.2346 45.1501 45.2346H34.7637C34.1691 45.2346 33.8044 45.4999 33.5982 45.7184C33.3445 45.9993 33.2097 46.366 33.2097 46.7562C33.2097 47.5131 33.7409 48.2856 34.7637 48.2856H45.1581C48.5594 48.2856 51.3185 45.5623 51.3185 42.207C51.3185 42.0431 51.3106 41.8871 51.2947 41.7232L58.6128 34.5288C59.6752 33.4832 61.4592 33.4832 62.5216 34.5288C63.029 35.0282 63.2431 35.5744 63.2193 36.3001C63.1955 37.0102 62.8784 37.8451 62.3471 38.5786C61.1975 40.1782 59.9844 42.1446 58.7 44.228C57.4473 46.2646 56.147 48.3636 54.8626 50.1973C52.8884 53.0142 50.5336 54.3251 47.4573 54.3251H31.3069C28.3574 54.3251 26.629 56.0262 25.5904 57.0484L24.3773 58.2345ZM24.4962 62.6666L19.755 67.325L4.63523 52.4446L9.36857 47.7862L24.4962 62.6666Z" fill="#223A7A"/>
</svg>
