<svg width="67" height="71" viewBox="0 0 67 71" fill="none" xmlns="http://www.w3.org/2000/svg">
<path d="M36.4058 60.1242C53.3025 60.1242 67 46.665 67 30.0621C67 13.4593 53.3025 0 36.4058 0C19.5091 0 5.81152 13.4593 5.81152 30.0621C5.81152 46.665 19.5091 60.1242 36.4058 60.1242Z" fill="#F1FCFF"/>
<path d="M53.9492 43.9226L53.94 43.726C53.7673 37.7208 51.6027 32.1087 47.683 27.5064C44.0269 23.208 39.2068 20.2054 33.7228 18.8202C27.3748 17.2117 20.3446 17.9892 14.5059 20.9829L14.4059 21.0365C14.3877 21.0454 14.3785 21.0543 14.3603 21.0633L14.2785 21.108C9.90403 23.4046 6.26617 26.8362 3.74697 31.0274C2.22817 33.5475 1.155 36.282 0.554757 39.1417C0.190973 40.8932 0 42.6894 0 44.4946C0 50.5713 2.1554 56.5141 6.05698 61.2235C11.2045 67.4344 18.8349 71 26.9745 71C30.1758 71 33.3044 70.4549 36.2875 69.3736C39.6616 68.1493 42.7264 66.2905 45.3911 63.8419C48.4196 61.0538 50.7842 57.5864 52.2303 53.8063C53.3671 50.8305 53.9492 47.6938 53.9492 44.4946C53.9673 44.298 53.9582 44.1103 53.9492 43.9226ZM36.0419 38.9629C37.1696 39.8834 38.5338 40.4374 39.9162 40.5268C40.1163 42.2783 40.2254 44.0299 40.2254 45.7367C40.2254 51.4918 39.1341 57.1217 37.0696 62.0189C36.7877 62.6802 36.4693 63.3772 36.0965 64.1279L36.0146 64.2083V64.2887C35.8145 64.6819 35.6144 65.0573 35.3871 65.4594L35.3143 65.5845C35.1143 65.9509 34.905 66.2994 34.705 66.6211C32.2312 67.4522 29.6393 67.8722 26.9928 67.8722C20.381 67.8722 14.0603 65.1556 9.56753 60.4103L36.0419 38.9629ZM37.3879 35.8977L37.2424 35.7101C36.4512 34.6109 36.2147 33.2794 36.6331 32.2517C36.7968 31.8585 37.0423 31.5368 37.3697 31.3134C37.4607 31.2508 37.5516 31.1972 37.688 31.1346L37.7971 31.0899C37.8517 31.0721 37.9063 31.0453 38.0245 31.0185L38.1245 31.0006C38.1791 30.9916 38.2337 30.9738 38.3701 30.9648L38.461 30.9559C38.5338 30.947 38.5975 30.947 38.6702 30.947C38.6793 30.947 38.6884 30.947 38.6975 30.947C38.8157 30.947 38.9431 30.9648 39.0613 30.9827C39.9526 31.1257 40.8347 31.6708 41.4804 32.4751L41.726 32.8147C41.7806 32.8951 41.8351 32.9755 41.8806 33.047C41.9079 33.0917 41.9261 33.1274 41.9443 33.1721L42.0898 33.4581C42.108 33.5028 42.1262 33.5475 42.1444 33.5921L42.3081 34.0836C42.3263 34.1551 42.3445 34.2177 42.3626 34.3249L42.3808 34.4232C42.399 34.5215 42.4172 34.6109 42.4263 34.7807C42.4536 35.1828 42.4081 35.5492 42.3081 35.8888C42.1535 36.3803 41.8806 36.7824 41.4986 37.0416C41.3168 37.1667 41.0985 37.265 40.8711 37.3276C39.7343 37.6582 38.3337 37.0773 37.3879 35.8977ZM50.1022 39.2757L49.711 38.9182C49.3473 38.5965 48.9744 38.2838 48.6015 37.971L48.3924 37.8012C47.9376 37.4348 47.4829 37.0684 47.01 36.711L46.6735 36.4607C46.3097 36.1926 45.9459 35.9245 45.5821 35.6654H45.573C45.5821 35.5582 45.5912 35.4509 45.6003 35.3347V35.2096C45.6094 35.022 45.6003 34.8343 45.5912 34.6466L45.573 34.4411C45.5548 34.2534 45.5367 34.0747 45.4912 33.8424L45.473 33.7441C45.4275 33.5206 45.3729 33.2883 45.3093 33.0738L45.2547 32.904C45.2002 32.7342 45.1365 32.5555 45.0365 32.3321L44.9728 32.1891C44.9273 32.0819 44.8728 31.9657 44.8091 31.8585L46.2187 30.7146C48.1741 33.3419 49.5201 36.2552 50.2204 39.4008C50.1931 39.3561 50.1476 39.3204 50.1022 39.2757ZM42.8446 29.4188C42.6718 29.2759 42.49 29.1418 42.3081 29.0167L42.208 28.9541C42.0443 28.8469 41.8806 28.7486 41.6714 28.6324L41.5714 28.5788C41.3804 28.4805 41.1803 28.3911 40.9803 28.3018L40.8711 28.266C40.6983 28.1945 40.5255 28.1409 40.2891 28.0694L40.189 28.0426C40.0799 28.0158 39.9708 27.989 39.8616 27.9622L39.8252 27.8907C39.6888 27.569 39.5433 27.2562 39.3978 26.9434L39.1522 26.4162C38.9885 26.0766 38.8157 25.737 38.6429 25.4064L38.4429 25.0132C38.1973 24.5574 37.9426 24.1017 37.6789 23.6638L37.588 23.5119C40.0526 24.7093 42.2717 26.3179 44.1997 28.3107L42.8446 29.4188ZM36.0874 27.3188L36.2329 27.6047C36.3602 27.855 36.4784 28.1141 36.5966 28.3733L36.6694 28.6771L36.433 28.2928C36.3784 28.3107 36.3238 28.3286 36.2693 28.3554C36.0146 28.4805 35.7691 28.6235 35.5417 28.7754C35.3325 28.9184 35.1233 29.0971 34.9051 29.3027C34.8596 29.3473 34.8232 29.392 34.7323 29.4903C34.6595 29.5708 34.5868 29.6512 34.514 29.7316L34.414 29.6959C34.1593 29.5976 33.9138 29.5082 33.6591 29.4188C33.3499 29.3027 33.0316 29.1954 32.7223 29.0882C32.4677 28.9988 32.2131 28.9184 31.9675 28.838C31.6583 28.7397 31.34 28.6414 31.0308 28.5431C30.7761 28.4716 30.5214 28.3911 30.2759 28.3197C29.9667 28.2303 29.6484 28.1499 29.3392 28.0694C29.0845 28.0069 28.8299 27.9354 28.5843 27.8818C28.2751 27.8103 27.9568 27.7388 27.6294 27.6584C27.3838 27.6047 27.1383 27.5511 26.8927 27.5064C26.5835 27.4439 26.2652 27.3813 25.956 27.3277L25.8377 27.3098C25.6285 27.2741 25.4194 27.2383 25.2103 27.2026C24.901 27.149 24.5827 27.1043 24.2735 27.0686L23.5368 26.9703C23.2276 26.9345 22.9093 26.8988 22.6 26.872C22.3545 26.8451 22.118 26.8273 21.8725 26.8005C21.5906 26.7737 21.3087 26.7647 20.9449 26.7468L20.7902 26.7379C20.6083 26.729 20.4174 26.72 20.2355 26.7111C19.9535 26.7022 19.6807 26.7022 19.3988 26.6932H19.126C18.9895 26.6932 18.8531 26.6932 18.7167 26.6932C18.6803 26.6932 18.653 26.6932 18.6167 26.6932C18.3347 26.6932 18.0528 26.7022 17.689 26.72L17.5071 26.729C17.3434 26.7379 17.1797 26.7379 17.016 26.7468C16.7523 26.7647 16.4885 26.7826 16.2338 26.8005L15.8701 26.8273C15.7246 26.8362 15.5881 26.8451 15.4517 26.863C15.188 26.8898 14.9333 26.9256 14.6696 26.9524L14.2967 26.9971C14.1694 27.0149 14.042 27.0328 13.9147 27.0507C13.6328 27.0954 13.36 27.14 13.078 27.1937L12.7506 27.2562C12.6324 27.2741 12.5233 27.292 12.405 27.3188C12.0594 27.3903 11.7229 27.4707 11.3773 27.5511L11.2045 27.5869C11.1136 27.6047 11.0227 27.6316 10.9408 27.6494C10.7044 27.712 10.4679 27.7745 10.2405 27.8371C11.9048 26.2196 13.7965 24.8613 15.8701 23.78C20.8903 21.1795 26.92 20.4377 32.4132 21.7067C32.5041 21.8139 32.595 21.9301 32.6951 22.0463L32.9042 22.3054C33.1316 22.6003 33.359 22.8952 33.5772 23.1991L33.6864 23.3599C33.8683 23.6191 34.0502 23.8783 34.223 24.1374L34.4321 24.4591C34.5685 24.6736 34.7141 24.897 34.8414 25.1204L35.0597 25.4868C35.187 25.7102 35.3143 25.9336 35.4689 26.2107L35.6417 26.5324C35.8236 26.8005 35.96 27.0596 36.0874 27.3188ZM7.90321 32.0551C7.99415 32.0104 8.0851 31.9657 8.18514 31.921C8.4125 31.8138 8.63988 31.7244 8.87634 31.6261L9.32196 31.4385C9.71303 31.2865 10.1132 31.1436 10.5225 31.0095C10.9408 30.8755 11.3683 30.7504 11.7957 30.6431L12.2959 30.527C12.5688 30.4644 12.8325 30.3929 13.1144 30.3393L13.7965 30.2142C14.0239 30.1695 14.2421 30.1337 14.4695 30.098C14.5877 30.0801 14.706 30.0623 14.8242 30.0533L15.188 30.0086C15.4063 29.9818 15.6336 29.9461 15.861 29.9282C15.9974 29.9193 16.1338 29.9014 16.2611 29.8925L16.5794 29.8657C16.8159 29.8478 17.0433 29.8299 17.2797 29.821C17.4252 29.812 17.5708 29.812 17.7254 29.8031L18.0346 29.7942C18.262 29.7852 18.4984 29.7763 18.7348 29.7763L19.4534 29.7852C19.708 29.7852 19.9626 29.7942 20.2173 29.8031C20.4083 29.812 20.5902 29.821 20.863 29.8388C21.1449 29.8567 21.436 29.8746 21.7179 29.8925L22.4728 29.964C22.7274 29.9908 22.982 30.0176 23.2458 30.0444C23.4368 30.0712 23.6278 30.098 23.8188 30.1159L23.9279 30.1337C24.2098 30.1784 24.5008 30.2142 24.7828 30.2589L25.4649 30.375C25.7559 30.4286 26.0469 30.4823 26.3289 30.5448C26.5562 30.5895 26.7927 30.6431 27.0201 30.6967C27.3111 30.7593 27.593 30.8308 27.884 30.8933C28.1205 30.947 28.3569 31.0095 28.5843 31.0721C28.8662 31.1436 29.1573 31.224 29.4392 31.3044C29.6757 31.3759 29.9212 31.4385 30.1577 31.5189C30.4396 31.5993 30.7216 31.6887 30.9944 31.778C31.24 31.8585 31.4855 31.9389 31.7311 32.0193C32.0039 32.1176 32.2767 32.207 32.5495 32.3142C32.8042 32.4036 33.0498 32.5019 33.3044 32.6002L33.3226 32.6091L33.3044 32.7253C33.2862 32.9666 33.2681 33.2079 33.2772 33.4581L33.2862 33.6011C33.2953 33.8066 33.3135 34.0032 33.3408 34.2088L33.3681 34.4143C33.4045 34.6556 33.459 34.8879 33.5318 35.156C33.5954 35.3973 33.6864 35.6386 33.7773 35.8799L33.8592 36.0765C33.9228 36.2194 33.9865 36.3624 34.0684 36.5233L7.55761 57.9975C4.72919 54.0655 3.17401 49.2845 3.17401 44.4767C3.17401 42.886 3.33774 41.2953 3.66515 39.7493C4.16535 37.3544 5.04748 35.0577 6.28434 32.9219C6.39348 32.8594 6.51173 32.7879 6.64815 32.7074L6.80274 32.6181C6.90278 32.5645 7.00284 32.5019 7.10288 32.4483C7.31205 32.341 7.53035 32.2338 7.75772 32.1176L7.90321 32.0551ZM39.989 63.2074C42.2171 57.9349 43.3903 51.8939 43.3903 45.7278C43.3903 43.7439 43.2721 41.7422 43.0265 39.7851C43.1357 39.7225 43.2357 39.66 43.3358 39.5885C43.5722 39.4187 43.7996 39.231 44.036 39.0076C44.0906 38.954 44.127 38.9004 44.227 38.7842C44.2725 38.7306 44.318 38.6859 44.3635 38.6323C44.8182 38.9629 45.2638 39.3025 45.7003 39.651L46.0277 39.9102C46.5461 40.3302 47.0645 40.7591 47.5556 41.197L47.8376 41.4473C48.3559 41.9119 48.8562 42.3766 49.3564 42.8681C49.8384 43.3507 50.3113 43.8333 50.766 44.3337L50.8024 44.4767C50.8024 47.3095 50.2931 50.0709 49.2836 52.6982C48.0104 56.0315 45.9186 59.0967 43.2448 61.5542C42.0716 62.6355 40.7984 63.5917 39.4524 64.4049C39.6433 64.0028 39.8253 63.6006 39.989 63.2074Z" fill="#223A7A"/>
</svg>
