<svg width="72" height="68" viewBox="0 0 72 68" fill="none" xmlns="http://www.w3.org/2000/svg">
    <path fill-rule="evenodd" clip-rule="evenodd" d="M61.8549 50.4912H24.2269C18.6265 50.4912 14.0818 45.937 14.0818 40.3248V10.1664C14.0818 4.55425 18.6265 0 24.2269 0H61.8549C67.4553 0 72 4.55425 72 10.1664V40.3338C71.9911 45.9459 67.4553 50.4912 61.8549 50.4912Z" fill="#F1FCFF"/>
    <path d="M61.0495 25.1112C60.96 25.0126 60.8706 24.9229 60.7811 24.8333C59.5376 23.5782 57.7751 22.7803 55.8338 22.5741C55.3775 22.5292 54.9123 22.5382 54.465 22.5382H44.0515V20.037C44.0515 17.9302 42.8348 16.182 40.8846 15.4827C40.2673 15.2586 39.6321 15.2496 39.0237 15.2586H23.6988C22.1511 15.2586 20.7376 16.0385 19.8161 17.3923C19.1093 18.4322 19.1093 19.6425 19.1093 20.6197V22.5472H7.97121C4.1422 22.5472 0.778402 25.3532 0.143216 29.0737C-0.00887043 29.9523 9.9872e-05 30.8398 9.9872e-05 31.6915V59.7611C9.9872e-05 60.568 0.0806065 61.2852 0.241639 61.9665C0.680007 63.8044 1.85198 65.4629 3.55177 66.6552C4.84003 67.5607 6.45036 68 8.46327 68H54.9839C57.5515 68 59.8775 66.9332 61.3536 65.0684C62.5345 63.5713 63.1608 61.8231 63.1608 60.0121V30.5171C63.1429 28.5 62.4093 26.6352 61.0495 25.1112ZM6.36984 63.7954L6.2267 63.7237C6.04777 63.634 5.86883 63.5354 5.7078 63.4278C5.67201 63.4009 5.58257 63.3382 5.50205 63.2844L5.41258 63.2216C5.31418 63.1409 5.22472 63.0603 5.13525 62.9706C5.01 62.8541 4.89369 62.7196 4.78633 62.5941L4.59847 62.3431C4.50006 62.1996 4.41061 62.0472 4.33009 61.8948C4.3122 61.8589 4.26746 61.7693 4.23167 61.6886C4.19588 61.6169 4.178 61.5631 4.15116 61.5272C4.0438 61.2403 3.96328 60.9355 3.89171 60.568L3.87382 60.3707C3.86488 60.2452 3.86487 60.1287 3.86487 59.9583V40.1008H24.2445V40.5759C24.2445 40.8 24.2445 41.0242 24.2356 41.2572C24.2177 41.9924 24.2087 42.7544 24.334 43.4985C24.6829 45.5784 26.66 47.21 28.8339 47.21H34.1749C36.1699 47.21 37.8697 46.0715 38.6033 44.2247C38.9432 43.3909 38.9164 42.4406 38.8985 41.6069C38.8985 41.4276 38.8896 41.2393 38.8896 41.069V40.1097H59.2692V59.9046V60.2094C59.2692 60.2452 59.2602 60.3528 59.2513 60.4425C59.2423 60.5411 59.2334 60.5949 59.2334 60.6397C59.2155 60.7473 59.1886 60.8638 59.1618 60.9714C59.1171 61.1417 59.0634 61.3121 59.0097 61.5003L58.8934 61.7603C58.7771 62.0024 58.634 62.2444 58.4461 62.5044C58.4014 62.5493 58.3566 62.603 58.3209 62.6389C58.2672 62.7017 58.2135 62.7644 58.1866 62.7913C58.0525 62.9347 57.9004 63.0782 57.7572 63.2037L57.5783 63.3382C57.4352 63.4368 57.292 63.5264 57.1399 63.6071C57.0326 63.6699 56.9163 63.7237 56.8179 63.7685L56.7105 63.8133C56.6032 63.8581 56.4869 63.885 56.3795 63.9209C56.2095 63.9747 56.0396 64.0106 55.8606 64.0464L55.637 64.0823C55.4849 64.1002 55.3238 64.1002 55.1718 64.1002H9.71574H7.76546C7.676 64.1002 7.58652 64.0912 7.49705 64.0823L7.40761 64.0733C7.10344 64.0285 6.78137 63.9478 6.36984 63.7954ZM35.4721 42.6917L35.0248 42.7275C35.0069 42.7992 34.989 42.871 34.989 42.8799C34.9621 42.9337 34.9353 42.9875 34.8906 43.0413C34.8548 43.0771 34.8011 43.122 34.7564 43.1578C34.7295 43.1847 34.7027 43.2027 34.6758 43.2296L34.6132 43.2654C34.5596 43.2833 34.4969 43.3013 34.4253 43.3192C34.3896 43.3192 34.3538 43.3192 34.309 43.3192H28.825L28.5745 43.2833C28.5477 43.2744 28.5119 43.2564 28.485 43.2475C28.4492 43.2296 28.4135 43.2027 28.3598 43.1668C28.3329 43.1399 28.2971 43.0951 28.2435 43.0323L28.1451 42.8082C28.1272 42.7454 28.1182 42.7006 28.1093 42.6648V40.0828H35.0158V42.611L35.4721 42.6917ZM39.972 19.3377C39.9989 19.3646 40.0347 19.4094 40.0347 19.4094C40.0705 19.4632 40.0973 19.5259 40.1062 19.517L40.151 19.6604L40.1689 22.5382H22.9831V20.037C22.9831 19.9204 22.9831 19.8039 22.9831 19.7411C23.001 19.6694 23.0188 19.5977 23.0188 19.5797C23.0457 19.517 23.0815 19.4632 23.1352 19.3915C23.1799 19.3466 23.2246 19.3018 23.2425 19.2839C23.3051 19.2391 23.3677 19.2032 23.3767 19.2032C23.4393 19.1853 23.493 19.1673 23.5735 19.1494H39.0506H39.5158C39.5337 19.1494 39.5605 19.1584 39.5963 19.1673C39.641 19.1763 39.6947 19.1853 39.7394 19.1942C39.7752 19.2122 39.811 19.2301 39.8379 19.248C39.8736 19.257 39.9452 19.3108 39.972 19.3377ZM58.3298 27.2359L58.1061 27.6483L58.2046 27.7469C58.2314 27.7738 58.294 27.8545 58.3566 27.9172C58.4014 27.971 58.4461 28.0248 58.4461 28.0248C58.4461 28.0248 58.4461 28.0248 58.4461 28.0159C58.5177 28.1145 58.5892 28.222 58.6519 28.3207C58.7413 28.4641 58.8218 28.6165 58.9202 28.7958L59.0276 29.0648C59.1171 29.3158 59.1887 29.5847 59.2423 29.8806L59.2781 36.201H3.86487V30.6247V30.3109L3.41756 30.293L3.86487 30.2033L3.88278 29.9523C3.90067 29.8447 3.91854 29.7371 3.94538 29.6296C3.98117 29.4592 4.03485 29.2889 4.08853 29.1186C4.10642 29.0558 4.13326 28.9841 4.1422 28.9662L4.21379 28.8137C4.33009 28.5807 4.47324 28.3296 4.64322 28.0876C4.68795 28.0427 4.72373 27.9979 4.75057 27.9621C4.80425 27.8993 4.86687 27.8186 4.88476 27.7917C5.00106 27.6662 5.12631 27.5497 5.25156 27.4331C5.30524 27.3883 5.35892 27.3345 5.42154 27.2897C5.58257 27.1731 5.75255 27.0656 5.92253 26.9669C6.06567 26.8863 6.20879 26.8145 6.35193 26.7428C6.43245 26.707 6.51296 26.6801 6.60243 26.6532C6.77241 26.5994 6.94239 26.5545 7.11237 26.5097C7.20183 26.4918 7.28236 26.4739 7.4255 26.447C7.68494 26.4201 7.93544 26.4201 8.23961 26.4201H55.1986C55.3238 26.4201 55.4491 26.429 55.5654 26.429L55.7354 26.438C55.9948 26.4828 56.2632 26.5456 56.5674 26.6442C56.621 26.6621 56.6747 26.6801 56.7374 26.698C56.7642 26.7159 56.8 26.7249 56.8268 26.7428C56.8984 26.7697 56.97 26.8056 57.0058 26.8235C57.2384 26.94 57.4531 27.0745 57.6946 27.2538C57.793 27.3345 57.8914 27.4331 57.9898 27.5228L58.3298 27.2359Z" fill="#223A7A"/>
</svg>
