<svg width="28" height="27" viewBox="0 0 28 27" fill="none" xmlns="http://www.w3.org/2000/svg">
<path fill-rule="evenodd" clip-rule="evenodd" d="M23.4648 19.3162H9.19039C7.06586 19.3162 5.3418 17.5739 5.3418 15.4269V3.88931C5.3418 1.7423 7.06586 0 9.19039 0H23.4648C25.5893 0 27.3134 1.7423 27.3134 3.88931V15.4303C27.31 17.5774 25.5893 19.3162 23.4648 19.3162Z" fill="#E5FAFF" fill-opacity="0.2"/>
<path d="M23.1595 9.60665C23.1255 9.56892 23.0916 9.53462 23.0576 9.50033C22.5859 9.02017 21.9173 8.71492 21.1809 8.63604C21.0078 8.61889 20.8313 8.62232 20.6616 8.62232H16.7112V7.66542C16.7112 6.85944 16.2496 6.19064 15.5098 5.92312C15.2756 5.83738 15.0347 5.83395 14.8039 5.83738H8.99026C8.40313 5.83738 7.86691 6.13576 7.51735 6.65365C7.24923 7.0515 7.24923 7.51451 7.24923 7.88836V8.62575H3.02392C1.57137 8.62575 0.295291 9.69925 0.0543299 11.1226C-0.00336505 11.4587 3.7887e-05 11.7982 3.7887e-05 12.1241V22.8625C3.7887e-05 23.1712 0.0305785 23.4456 0.0916673 23.7063C0.257964 24.4094 0.702559 25.0439 1.34738 25.5C1.83609 25.8464 2.44698 26.0145 3.21059 26.0145H20.8584C21.8325 26.0145 22.7149 25.6063 23.2748 24.8929C23.7228 24.3202 23.9604 23.6514 23.9604 22.9586V11.6748C23.9536 10.9031 23.6753 10.1897 23.1595 9.60665ZM2.41644 24.4059L2.36213 24.3785C2.29426 24.3442 2.22637 24.3065 2.16529 24.2653C2.15171 24.255 2.11778 24.231 2.08723 24.2104L2.05329 24.1864C2.01596 24.1556 1.98203 24.1247 1.94809 24.0904C1.90057 24.0458 1.85645 23.9944 1.81572 23.9463L1.74446 23.8503C1.70712 23.7954 1.67319 23.7371 1.64265 23.6788C1.63586 23.6651 1.61888 23.6308 1.60531 23.5999C1.59173 23.5725 1.58495 23.5519 1.57476 23.5382C1.53404 23.4284 1.50349 23.3118 1.47634 23.1712L1.46956 23.0958C1.46616 23.0478 1.46616 23.0032 1.46616 22.938V15.3412H9.19728V15.5229C9.19728 15.6087 9.19729 15.6944 9.19389 15.7836C9.18711 16.0648 9.18371 16.3564 9.23122 16.641C9.36358 17.4367 10.1136 18.0609 10.9383 18.0609H12.9644C13.7212 18.0609 14.3661 17.6254 14.6444 16.9188C14.7733 16.5999 14.7631 16.2363 14.7564 15.9173C14.7564 15.8488 14.753 15.7767 14.753 15.7116V15.3446H22.4841V22.9174V23.034C22.4841 23.0478 22.4807 23.0889 22.4773 23.1232C22.4739 23.1609 22.4705 23.1815 22.4705 23.1987C22.4637 23.2398 22.4535 23.2844 22.4434 23.3256C22.4264 23.3907 22.406 23.4559 22.3857 23.5279L22.3415 23.6274C22.2974 23.72 22.2431 23.8126 22.1719 23.912C22.1549 23.9292 22.1379 23.9498 22.1243 23.9635C22.104 23.9875 22.0836 24.0115 22.0734 24.0218C22.0225 24.0767 21.9648 24.1315 21.9105 24.1796L21.8427 24.231C21.7884 24.2687 21.7341 24.303 21.6764 24.3339C21.6356 24.3579 21.5915 24.3785 21.5542 24.3956L21.5135 24.4128C21.4727 24.4299 21.4286 24.4402 21.3879 24.4539C21.3234 24.4745 21.2589 24.4882 21.191 24.502L21.1062 24.5157C21.0485 24.5225 20.9874 24.5225 20.9297 24.5225H3.68572H2.94587C2.91193 24.5225 2.87799 24.5191 2.84405 24.5157L2.81012 24.5122C2.69473 24.4951 2.57255 24.4642 2.41644 24.4059ZM13.4565 16.3323L13.2868 16.3461C13.2801 16.3735 13.2733 16.4009 13.2733 16.4044C13.2631 16.4249 13.2529 16.4455 13.2359 16.4661C13.2224 16.4798 13.202 16.497 13.185 16.5107C13.1748 16.521 13.1647 16.5278 13.1545 16.5381L13.1307 16.5518C13.1104 16.5587 13.0866 16.5656 13.0594 16.5724C13.0459 16.5724 13.0323 16.5724 13.0153 16.5724H10.9349L10.8399 16.5587C10.8297 16.5553 10.8161 16.5484 10.806 16.545C10.7924 16.5381 10.7788 16.5278 10.7584 16.5141C10.7483 16.5038 10.7347 16.4867 10.7143 16.4627L10.677 16.3769C10.6702 16.3529 10.6668 16.3358 10.6634 16.3221V15.3343H13.2834V16.3015L13.4565 16.3323ZM15.1636 7.3979C15.1738 7.40819 15.1874 7.42534 15.1874 7.42534C15.201 7.44592 15.2111 7.46993 15.2145 7.4665L15.2315 7.52137L15.2383 8.62232H8.71876V7.66542C8.71876 7.62084 8.71876 7.57625 8.71876 7.55224C8.72555 7.5248 8.73233 7.49737 8.73233 7.49051C8.74251 7.4665 8.75609 7.44592 8.77645 7.41848C8.79342 7.40133 8.81039 7.38419 8.81717 7.37733C8.84093 7.36018 8.86469 7.34646 8.86808 7.34646C8.89184 7.3396 8.9122 7.33274 8.94274 7.32588H14.8141H14.9905C14.9973 7.32588 15.0075 7.32931 15.0211 7.33274C15.038 7.33617 15.0584 7.3396 15.0754 7.34303C15.089 7.34989 15.1025 7.35675 15.1127 7.36361C15.1263 7.36704 15.1534 7.38761 15.1636 7.3979ZM22.1277 10.4195L22.0429 10.5773L22.0802 10.615C22.0904 10.6253 22.1142 10.6561 22.1379 10.6802C22.1549 10.7007 22.1719 10.7213 22.1719 10.7213C22.1719 10.7213 22.1719 10.7213 22.1719 10.7179C22.199 10.7556 22.2262 10.7968 22.2499 10.8345C22.2839 10.8894 22.3144 10.9477 22.3517 11.0163L22.3925 11.1192C22.4264 11.2152 22.4535 11.3181 22.4739 11.4313L22.4875 13.8492H1.46616V11.7159V11.5959L1.29647 11.589L1.46616 11.5547L1.47295 11.4587C1.47974 11.4175 1.48652 11.3764 1.4967 11.3352C1.51028 11.2701 1.53064 11.2049 1.55101 11.1397C1.55779 11.1157 1.56797 11.0883 1.57137 11.0814L1.59852 11.0231C1.64264 10.934 1.69695 10.8379 1.76143 10.7453C1.7784 10.7282 1.79197 10.711 1.80216 10.6973C1.82252 10.6733 1.84627 10.6424 1.85306 10.6321C1.89718 10.5841 1.94469 10.5395 1.99221 10.4949C2.01257 10.4778 2.03293 10.4572 2.05669 10.4401C2.11778 10.3955 2.18226 10.3543 2.24674 10.3166C2.30105 10.2857 2.35534 10.2583 2.40964 10.2309C2.44019 10.2171 2.47073 10.2069 2.50467 10.1966C2.56915 10.176 2.63364 10.1588 2.69812 10.1417C2.73206 10.1348 2.7626 10.128 2.8169 10.1177C2.91532 10.1074 3.01035 10.1074 3.12574 10.1074H20.9399C20.9874 10.1074 21.0349 10.1108 21.079 10.1108L21.1435 10.1142C21.2419 10.1314 21.3438 10.1554 21.4592 10.1931C21.4795 10.2 21.4999 10.2069 21.5236 10.2137C21.5338 10.2206 21.5474 10.224 21.5576 10.2309C21.5847 10.2411 21.6119 10.2549 21.6255 10.2617C21.7137 10.3063 21.7951 10.3578 21.8868 10.4264C21.9241 10.4572 21.9614 10.4949 21.9988 10.5292L22.1277 10.4195Z" fill="white"/>
</svg>
