<svg width="32" height="31" viewBox="0 0 32 31" fill="none" xmlns="http://www.w3.org/2000/svg">
<path d="M17.3257 26.2514C25.367 26.2514 31.8857 20.3748 31.8857 13.1257C31.8857 5.87658 25.367 0 17.3257 0C9.28448 0 2.76574 5.87658 2.76574 13.1257C2.76574 20.3748 9.28448 26.2514 17.3257 26.2514Z" fill="#4D6EC5" fill-opacity="0.2"/>
<path d="M25.6747 19.1776L25.6704 19.0917C25.5882 16.4697 24.5581 14.0194 22.6926 12.0099C20.9527 10.1332 18.6588 8.82216 16.0489 8.21738C13.0278 7.51505 9.68213 7.85451 6.90344 9.16162L6.85584 9.18503C6.84718 9.18893 6.84283 9.19283 6.83418 9.19673L6.79524 9.21624C4.71339 10.219 2.98211 11.7173 1.78321 13.5473C1.0604 14.6476 0.549672 15.8415 0.264012 17.0901C0.0908853 17.8549 0 18.6391 0 19.4273C0 22.0805 1.02577 24.6752 2.88255 26.7315C5.3323 29.4433 8.96364 31.0001 12.8374 31.0001C14.3609 31.0001 15.8498 30.7621 17.2694 30.2899C18.8752 29.7554 20.3338 28.9438 21.6019 27.8747C23.0432 26.6574 24.1685 25.1435 24.8567 23.493C25.3977 22.1937 25.6747 20.8241 25.6747 19.4273C25.6834 19.3415 25.6791 19.2595 25.6747 19.1776ZM17.1526 17.0121C17.6893 17.414 18.3385 17.6559 18.9964 17.6949C19.0916 18.4596 19.1435 19.2244 19.1435 19.9696C19.1435 22.4824 18.6241 24.9406 17.6416 27.0788C17.5075 27.3675 17.356 27.6718 17.1785 27.9996L17.1396 28.0347V28.0698C17.0443 28.2415 16.9491 28.4054 16.8409 28.581L16.8063 28.6356C16.7111 28.7956 16.6115 28.9477 16.5163 29.0882C15.339 29.4511 14.1055 29.6344 12.846 29.6344C9.69944 29.6344 6.69137 28.4483 4.55325 26.3764L17.1526 17.0121ZM17.7931 15.6737L17.7239 15.5918C17.3473 15.1119 17.2348 14.5305 17.4339 14.0818C17.5118 13.9101 17.6287 13.7697 17.7845 13.6721C17.8278 13.6448 17.871 13.6214 17.936 13.5941L17.9879 13.5746C18.0139 13.5668 18.0398 13.5551 18.0961 13.5434L18.1437 13.5356C18.1697 13.5316 18.1956 13.5238 18.2606 13.5199L18.3038 13.516C18.3385 13.5121 18.3688 13.5121 18.4034 13.5121C18.4077 13.5121 18.4121 13.5121 18.4164 13.5121C18.4726 13.5121 18.5332 13.5199 18.5895 13.5277C19.0137 13.5902 19.4335 13.8282 19.7408 14.1794L19.8577 14.3276C19.8836 14.3627 19.9096 14.3979 19.9312 14.4291C19.9442 14.4486 19.9529 14.4642 19.9615 14.4837L20.0308 14.6086C20.0395 14.6281 20.0481 14.6476 20.0568 14.6671L20.1347 14.8817C20.1433 14.9129 20.152 14.9402 20.1606 14.987L20.1693 15.0299C20.1779 15.0729 20.1866 15.1119 20.1909 15.186C20.2039 15.3616 20.1823 15.5216 20.1347 15.6698C20.0611 15.8844 19.9312 16.06 19.7495 16.1732C19.6629 16.2278 19.559 16.2707 19.4508 16.298C18.9098 16.4424 18.2432 16.1888 17.7931 15.6737ZM23.8439 17.1486L23.6578 16.9926C23.4847 16.8521 23.3072 16.7155 23.1298 16.579L23.0302 16.5048C22.8138 16.3449 22.5974 16.1849 22.3723 16.0288L22.2122 15.9196C22.0391 15.8025 21.8659 15.6855 21.6928 15.5723H21.6885C21.6928 15.5255 21.6971 15.4787 21.7015 15.4279V15.3733C21.7058 15.2914 21.7015 15.2094 21.6971 15.1275L21.6885 15.0378C21.6798 14.9558 21.6712 14.8778 21.6495 14.7763L21.6409 14.7334C21.6192 14.6359 21.5933 14.5344 21.563 14.4408L21.537 14.3666C21.511 14.2925 21.4807 14.2145 21.4331 14.1169L21.4028 14.0545C21.3812 14.0077 21.3552 13.9569 21.3249 13.9101L21.9958 13.4107C22.9263 14.5578 23.5669 15.8298 23.9002 17.2033C23.8872 17.1838 23.8656 17.1681 23.8439 17.1486ZM20.39 12.8449C20.3078 12.7825 20.2212 12.724 20.1347 12.6693L20.087 12.642C20.0091 12.5952 19.9312 12.5523 19.8317 12.5016L19.7841 12.4782C19.6932 12.4352 19.598 12.3962 19.5028 12.3572L19.4508 12.3416C19.3686 12.3104 19.2863 12.287 19.1738 12.2558L19.1262 12.244C19.0743 12.2323 19.0223 12.2206 18.9704 12.2089L18.9531 12.1777C18.8881 12.0373 18.8189 11.9007 18.7497 11.7641L18.6328 11.5339C18.5549 11.3857 18.4726 11.2374 18.3904 11.093L18.2952 10.9213C18.1783 10.7223 18.0571 10.5233 17.9316 10.3322L17.8884 10.2658C19.0613 10.7887 20.1173 11.491 21.0349 12.3611L20.39 12.8449ZM17.1742 11.928L17.2435 12.0529C17.3041 12.1621 17.3603 12.2753 17.4166 12.3884L17.4512 12.5211L17.3387 12.3533C17.3127 12.3611 17.2867 12.3689 17.2608 12.3806C17.1396 12.4352 17.0227 12.4977 16.9145 12.564C16.815 12.6264 16.7154 12.7045 16.6115 12.7942C16.5899 12.8137 16.5726 12.8332 16.5293 12.8761C16.4947 12.9113 16.4601 12.9464 16.4254 12.9815L16.3778 12.9659C16.2566 12.923 16.1398 12.8839 16.0186 12.8449C15.8714 12.7942 15.7199 12.7474 15.5728 12.7006C15.4516 12.6615 15.3304 12.6264 15.2135 12.5913C15.0664 12.5484 14.9149 12.5055 14.7677 12.4626C14.6465 12.4313 14.5253 12.3962 14.4085 12.365C14.2613 12.326 14.1099 12.2909 13.9627 12.2558C13.8415 12.2284 13.7203 12.1972 13.6034 12.1738C13.4563 12.1426 13.3048 12.1114 13.149 12.0763C13.0321 12.0529 12.9153 12.0295 12.7984 12.0099C12.6513 11.9826 12.4998 11.9553 12.3526 11.9319L12.2963 11.9241C12.1968 11.9085 12.0973 11.8929 11.9977 11.8773C11.8506 11.8539 11.6991 11.8344 11.5519 11.8188L11.2013 11.7758C11.0542 11.7602 10.9027 11.7446 10.7555 11.7329C10.6386 11.7212 10.5261 11.7134 10.4093 11.7017C10.2751 11.69 10.1409 11.6861 9.9678 11.6783L9.8942 11.6744C9.80764 11.6705 9.71675 11.6666 9.63019 11.6627C9.49601 11.6588 9.36618 11.6588 9.232 11.6549H9.10216C9.03724 11.6549 8.97231 11.6549 8.90739 11.6549C8.89008 11.6549 8.8771 11.6549 8.85979 11.6549C8.72561 11.6549 8.59143 11.6588 8.4183 11.6666L8.33174 11.6705C8.25383 11.6744 8.17593 11.6744 8.09802 11.6783C7.97251 11.6861 7.84697 11.6939 7.72578 11.7017L7.55267 11.7134C7.48342 11.7173 7.41849 11.7212 7.35356 11.729C7.22805 11.7407 7.10686 11.7563 6.98135 11.768L6.8039 11.7875C6.74331 11.7953 6.6827 11.8031 6.6221 11.8109C6.48793 11.8305 6.35809 11.85 6.22392 11.8734L6.06811 11.9007C6.01184 11.9085 5.9599 11.9163 5.90364 11.928C5.73917 11.9592 5.57902 11.9943 5.41455 12.0294L5.33231 12.0451C5.28903 12.0529 5.24576 12.0646 5.20681 12.0724C5.09427 12.0997 4.98173 12.127 4.87353 12.1543C5.66558 11.4481 6.56585 10.855 7.55267 10.3829C9.94182 9.24746 12.8114 8.92361 15.4256 9.47766C15.4689 9.52449 15.5122 9.57521 15.5598 9.62593L15.6593 9.73908C15.7675 9.86784 15.8757 9.9966 15.9796 10.1293L16.0315 10.1995C16.1181 10.3127 16.2047 10.4258 16.2869 10.539L16.3865 10.6794C16.4514 10.7731 16.5206 10.8706 16.5812 10.9682L16.6851 11.1281C16.7457 11.2257 16.8063 11.3232 16.8799 11.4442L16.9621 11.5846C17.0487 11.7017 17.1136 11.8149 17.1742 11.928ZM3.76118 13.996C3.80447 13.9765 3.84775 13.9569 3.89536 13.9374C4.00356 13.8906 4.11177 13.8516 4.2243 13.8087L4.43638 13.7267C4.62249 13.6604 4.81293 13.598 5.0077 13.5395C5.2068 13.4809 5.41023 13.4263 5.61366 13.3795L5.8517 13.3288C5.98155 13.3014 6.10705 13.2702 6.24122 13.2468L6.56583 13.1922C6.67404 13.1727 6.77791 13.1571 6.88611 13.1415C6.94238 13.1337 6.99865 13.1259 7.05492 13.122L7.22806 13.1024C7.33193 13.0907 7.44013 13.0751 7.54834 13.0673C7.61326 13.0634 7.67818 13.0556 7.73878 13.0517L7.89025 13.04C8.00279 13.0322 8.111 13.0244 8.22353 13.0205C8.29278 13.0166 8.36203 13.0166 8.43561 13.0127L8.58278 13.0088C8.69098 13.0049 8.8035 13.001 8.91603 13.001L9.25797 13.0049C9.37916 13.0049 9.50033 13.0088 9.62152 13.0127C9.71242 13.0166 9.79899 13.0205 9.92883 13.0283C10.063 13.0361 10.2015 13.0439 10.3357 13.0517L10.6949 13.0829C10.8161 13.0946 10.9373 13.1064 11.0628 13.1181C11.1537 13.1298 11.2446 13.1415 11.3355 13.1493L11.3874 13.1571C11.5216 13.1766 11.6601 13.1922 11.7943 13.2117L12.1189 13.2624C12.2574 13.2858 12.3959 13.3092 12.5301 13.3366C12.6383 13.3561 12.7508 13.3795 12.859 13.4029C12.9975 13.4302 13.1317 13.4614 13.2702 13.4887C13.3827 13.5121 13.4952 13.5395 13.6034 13.5668C13.7376 13.598 13.8761 13.6331 14.0103 13.6682C14.1228 13.6994 14.2397 13.7267 14.3522 13.7619C14.4864 13.797 14.6206 13.836 14.7504 13.875C14.8673 13.9101 14.9841 13.9452 15.101 13.9804C15.2309 14.0233 15.3607 14.0623 15.4905 14.1091C15.6117 14.1481 15.7286 14.1911 15.8498 14.234L15.8584 14.2379L15.8498 14.2886C15.8411 14.394 15.8325 14.4993 15.8368 14.6086L15.8411 14.671C15.8454 14.7607 15.8541 14.8466 15.8671 14.9363L15.8801 15.026C15.8974 15.1314 15.9234 15.2328 15.958 15.3499C15.9883 15.4552 16.0316 15.5606 16.0748 15.6659L16.1138 15.7518C16.1441 15.8142 16.1744 15.8766 16.2134 15.9469L3.59671 25.3229C2.25065 23.6061 1.51053 21.5187 1.51053 19.4195C1.51053 18.725 1.58845 18.0304 1.74427 17.3554C1.98232 16.3097 2.40213 15.307 2.99076 14.3744C3.0427 14.3471 3.09897 14.3159 3.16389 14.2808L3.23747 14.2418C3.28508 14.2184 3.33269 14.1911 3.3803 14.1676C3.47985 14.1208 3.58374 14.074 3.69195 14.0233L3.76118 13.996ZM19.031 27.5977C20.0914 25.2956 20.6497 22.658 20.6497 19.9657C20.6497 19.0995 20.5935 18.2255 20.4766 17.371C20.5285 17.3437 20.5762 17.3164 20.6238 17.2852C20.7363 17.2111 20.8445 17.1291 20.957 17.0316C20.983 17.0082 21.0003 16.9848 21.0479 16.934C21.0696 16.9106 21.0912 16.8911 21.1128 16.8677C21.3293 17.0121 21.5413 17.1603 21.7491 17.3125L21.9049 17.4257C22.1516 17.609 22.3983 17.7963 22.632 17.9875L22.7662 18.0968C23.0129 18.2997 23.251 18.5026 23.489 18.7172C23.7184 18.9279 23.9435 19.1386 24.1599 19.3571L24.1772 19.4195C24.1772 20.6564 23.9348 21.862 23.4544 23.0092C22.8484 24.4645 21.8529 25.8029 20.5805 26.8759C20.0221 27.348 19.4162 27.7655 18.7756 28.1205C18.8665 27.945 18.9531 27.7694 19.031 27.5977Z" fill="#223A7A"/>
</svg>
