<svg width="28" height="27" viewBox="0 0 28 27" fill="none" xmlns="http://www.w3.org/2000/svg">
<path fill-rule="evenodd" clip-rule="evenodd" d="M23.465 19.3162H9.19057C7.06604 19.3162 5.34198 17.5739 5.34198 15.4269V3.88931C5.34198 1.7423 7.06604 0 9.19057 0H23.465C25.5895 0 27.3136 1.7423 27.3136 3.88931V15.4303C27.3102 17.5774 25.5895 19.3162 23.465 19.3162Z" fill="#F1FCFF"/>
<path d="M23.1595 9.60702C23.1255 9.56929 23.0916 9.53499 23.0576 9.50069C22.5859 9.02053 21.9173 8.71529 21.1809 8.6364C21.0078 8.61925 20.8313 8.62268 20.6616 8.62268H16.7112V7.66579C16.7112 6.8598 16.2496 6.19101 15.5098 5.92349C15.2756 5.83774 15.0347 5.83431 14.8039 5.83774H8.99026C8.40313 5.83774 7.86691 6.13613 7.51735 6.65402C7.24923 7.05187 7.24923 7.51488 7.24923 7.88872V8.62611H3.02392C1.57137 8.62611 0.295291 9.69962 0.0543299 11.123C-0.00336505 11.4591 3.7887e-05 11.7986 3.7887e-05 12.1244V22.8629C3.7887e-05 23.1716 0.0305785 23.446 0.0916673 23.7066C0.257964 24.4097 0.702559 25.0442 1.34738 25.5004C1.83609 25.8468 2.44698 26.0148 3.21059 26.0148H20.8584C21.8325 26.0148 22.7149 25.6067 23.2748 24.8933C23.7228 24.3205 23.9604 23.6518 23.9604 22.9589V11.6751C23.9536 10.9035 23.6753 10.1901 23.1595 9.60702ZM2.41644 24.4063L2.36213 24.3789C2.29426 24.3446 2.22637 24.3068 2.16529 24.2657C2.15171 24.2554 2.11778 24.2314 2.08723 24.2108L2.05329 24.1868C2.01596 24.1559 1.98203 24.1251 1.94809 24.0908C1.90057 24.0462 1.85645 23.9947 1.81572 23.9467L1.74446 23.8507C1.70712 23.7958 1.67319 23.7375 1.64265 23.6792C1.63586 23.6655 1.61888 23.6312 1.60531 23.6003C1.59173 23.5729 1.58495 23.5523 1.57476 23.5386C1.53404 23.4288 1.50349 23.3122 1.47634 23.1716L1.46956 23.0961C1.46616 23.0481 1.46616 23.0035 1.46616 22.9384V15.3415H9.19728V15.5233C9.19728 15.609 9.19729 15.6948 9.19389 15.784C9.18711 16.0652 9.18371 16.3567 9.23122 16.6414C9.36358 17.4371 10.1136 18.0613 10.9383 18.0613H12.9644C13.7212 18.0613 14.3661 17.6257 14.6444 16.9192C14.7733 16.6002 14.7631 16.2367 14.7564 15.9177C14.7564 15.8491 14.753 15.7771 14.753 15.7119V15.3449H22.4841V22.9178V23.0344C22.4841 23.0481 22.4807 23.0893 22.4773 23.1236C22.4739 23.1613 22.4705 23.1819 22.4705 23.199C22.4637 23.2402 22.4535 23.2848 22.4434 23.3259C22.4264 23.3911 22.406 23.4563 22.3857 23.5283L22.3415 23.6277C22.2974 23.7203 22.2431 23.8129 22.1719 23.9124C22.1549 23.9296 22.1379 23.9501 22.1243 23.9639C22.104 23.9879 22.0836 24.0119 22.0734 24.0222C22.0225 24.077 21.9648 24.1319 21.9105 24.1799L21.8427 24.2314C21.7884 24.2691 21.7341 24.3034 21.6764 24.3343C21.6356 24.3583 21.5915 24.3789 21.5542 24.396L21.5135 24.4131C21.4727 24.4303 21.4286 24.4406 21.3879 24.4543C21.3234 24.4749 21.2589 24.4886 21.191 24.5023L21.1062 24.516C21.0485 24.5229 20.9874 24.5229 20.9297 24.5229H3.68572H2.94587C2.91193 24.5229 2.87799 24.5195 2.84405 24.516L2.81012 24.5126C2.69473 24.4955 2.57255 24.4646 2.41644 24.4063ZM13.4565 16.3327L13.2868 16.3464C13.2801 16.3739 13.2733 16.4013 13.2733 16.4047C13.2631 16.4253 13.2529 16.4459 13.2359 16.4665C13.2224 16.4802 13.202 16.4973 13.185 16.5111C13.1748 16.5213 13.1647 16.5282 13.1545 16.5385L13.1307 16.5522C13.1104 16.5591 13.0866 16.5659 13.0594 16.5728C13.0459 16.5728 13.0323 16.5728 13.0153 16.5728H10.9349L10.8399 16.5591C10.8297 16.5556 10.8161 16.5488 10.806 16.5454C10.7924 16.5385 10.7788 16.5282 10.7584 16.5145C10.7483 16.5042 10.7347 16.487 10.7143 16.463L10.677 16.3773C10.6702 16.3533 10.6668 16.3361 10.6634 16.3224V15.3347H13.2834V16.3018L13.4565 16.3327ZM15.1636 7.39827C15.1738 7.40856 15.1874 7.42571 15.1874 7.42571C15.201 7.44629 15.2111 7.47029 15.2145 7.46686L15.2315 7.52174L15.2383 8.62268H8.71876V7.66579C8.71876 7.6212 8.71876 7.57662 8.71876 7.55261C8.72555 7.52517 8.73233 7.49773 8.73233 7.49087C8.74251 7.46686 8.75609 7.44629 8.77645 7.41885C8.79342 7.4017 8.81039 7.38455 8.81717 7.37769C8.84093 7.36054 8.86469 7.34682 8.86808 7.34682C8.89184 7.33997 8.9122 7.33311 8.94274 7.32625H14.8141H14.9905C14.9973 7.32625 15.0075 7.32968 15.0211 7.33311C15.038 7.33654 15.0584 7.33996 15.0754 7.34339C15.089 7.35025 15.1025 7.35711 15.1127 7.36397C15.1263 7.3674 15.1534 7.38798 15.1636 7.39827ZM22.1277 10.4199L22.0429 10.5776L22.0802 10.6154C22.0904 10.6256 22.1142 10.6565 22.1379 10.6805C22.1549 10.7011 22.1719 10.7217 22.1719 10.7217C22.1719 10.7217 22.1719 10.7217 22.1719 10.7182C22.199 10.756 22.2262 10.7971 22.2499 10.8349C22.2839 10.8897 22.3144 10.948 22.3517 11.0166L22.3925 11.1195C22.4264 11.2156 22.4535 11.3184 22.4739 11.4316L22.4875 13.8496H1.46616V11.7163V11.5963L1.29647 11.5894L1.46616 11.5551L1.47295 11.4591C1.47974 11.4179 1.48652 11.3768 1.4967 11.3356C1.51028 11.2704 1.53064 11.2053 1.55101 11.1401C1.55779 11.1161 1.56797 11.0887 1.57137 11.0818L1.59852 11.0235C1.64264 10.9343 1.69695 10.8383 1.76143 10.7457C1.7784 10.7285 1.79197 10.7114 1.80216 10.6977C1.82252 10.6737 1.84627 10.6428 1.85306 10.6325C1.89718 10.5845 1.94469 10.5399 1.99221 10.4953C2.01257 10.4782 2.03293 10.4576 2.05669 10.4404C2.11778 10.3959 2.18226 10.3547 2.24674 10.317C2.30105 10.2861 2.35534 10.2587 2.40964 10.2312C2.44019 10.2175 2.47073 10.2072 2.50467 10.1969C2.56915 10.1763 2.63364 10.1592 2.69812 10.1421C2.73206 10.1352 2.7626 10.1283 2.8169 10.118C2.91532 10.1078 3.01035 10.1078 3.12574 10.1078H20.9399C20.9874 10.1078 21.0349 10.1112 21.079 10.1112L21.1435 10.1146C21.2419 10.1318 21.3438 10.1558 21.4592 10.1935C21.4795 10.2004 21.4999 10.2072 21.5236 10.2141C21.5338 10.2209 21.5474 10.2244 21.5576 10.2312C21.5847 10.2415 21.6119 10.2552 21.6255 10.2621C21.7137 10.3067 21.7951 10.3581 21.8868 10.4267C21.9241 10.4576 21.9614 10.4953 21.9988 10.5296L22.1277 10.4199Z" fill="#223A7A"/>
</svg>
