<svg width="38" height="40" viewBox="0 0 38 40" fill="none" xmlns="http://www.w3.org/2000/svg">
<path d="M20.4755 33.8728C29.9787 33.8728 37.6825 26.2901 37.6825 16.9364C37.6825 7.58268 29.9787 0 20.4755 0C10.9724 0 3.26855 7.58268 3.26855 16.9364C3.26855 26.2901 10.9724 33.8728 20.4755 33.8728Z" fill="#F1FCFF"/>
<path d="M30.3423 24.7451L30.3372 24.6344C30.24 21.2511 29.0226 18.0894 26.8181 15.4966C24.7618 13.0749 22.0509 11.3833 18.9665 10.6029C15.3962 9.6967 11.4423 10.1347 8.15847 11.8213L8.10221 11.8515C8.09198 11.8565 8.08684 11.8616 8.07661 11.8666L8.03059 11.8918C5.57027 13.1857 3.52425 15.119 2.10739 17.4802C1.25318 18.9 0.649601 20.4405 0.312009 22.0516C0.107408 23.0384 0 24.0503 0 25.0673C0 28.4909 1.21225 31.8389 3.40659 34.4921C6.3017 37.9912 10.5932 40 15.1711 40C16.9716 40 18.7312 39.6929 20.409 39.0837C22.3066 38.3939 24.0304 37.3467 25.5291 35.9673C27.2324 34.3965 28.5623 32.443 29.3756 30.3134C30.015 28.6369 30.3423 26.8697 30.3423 25.0673C30.3526 24.9566 30.3474 24.8509 30.3423 24.7451ZM20.2708 21.9509C20.9051 22.4695 21.6724 22.7816 22.4498 22.832C22.5624 23.8188 22.6237 24.8055 22.6237 25.7671C22.6237 29.0094 22.01 32.1812 20.8488 34.9402C20.6903 35.3128 20.5112 35.7055 20.3015 36.1284L20.2555 36.1737V36.219C20.143 36.4405 20.0304 36.652 19.9025 36.8785L19.8616 36.949C19.7491 37.1554 19.6314 37.3518 19.5189 37.533C18.1276 38.0012 16.6699 38.2379 15.1814 38.2379C11.4628 38.2379 7.90784 36.7073 5.38102 34.034L20.2708 21.9509ZM21.0279 20.2241L20.946 20.1183C20.501 19.4991 20.368 18.7489 20.6033 18.1699C20.6954 17.9484 20.8335 17.7672 21.0176 17.6413C21.0688 17.6061 21.1199 17.5759 21.1967 17.5406L21.258 17.5154C21.2887 17.5054 21.3194 17.4903 21.3859 17.4752L21.4422 17.4651C21.4729 17.4601 21.5036 17.45 21.5803 17.445L21.6314 17.4399C21.6723 17.4349 21.7082 17.4349 21.7491 17.4349C21.7542 17.4349 21.7593 17.4349 21.7644 17.4349C21.8309 17.4349 21.9025 17.445 21.969 17.455C22.4703 17.5356 22.9664 17.8427 23.3296 18.2958L23.4677 18.4871C23.4984 18.5324 23.5291 18.5777 23.5547 18.618C23.57 18.6432 23.5803 18.6633 23.5905 18.6885L23.6723 18.8496C23.6826 18.8748 23.6928 18.9 23.703 18.9251L23.7951 19.202C23.8053 19.2423 23.8156 19.2775 23.8258 19.338L23.836 19.3933C23.8462 19.4487 23.8565 19.4991 23.8616 19.5947C23.8769 19.8213 23.8514 20.0277 23.7951 20.219C23.7081 20.4959 23.5547 20.7225 23.3399 20.8685C23.2376 20.939 23.1148 20.9943 22.9869 21.0296C22.3475 21.2159 21.5598 20.8886 21.0279 20.2241ZM28.1787 22.1271L27.9587 21.9257C27.7541 21.7445 27.5444 21.5683 27.3347 21.3921L27.2171 21.2964C26.9613 21.09 26.7055 20.8836 26.4396 20.6822L26.2503 20.5412C26.0457 20.3902 25.8411 20.2392 25.6365 20.0932H25.6314C25.6365 20.0327 25.6416 19.9723 25.6467 19.9069V19.8364C25.6519 19.7307 25.6467 19.6249 25.6416 19.5192L25.6314 19.4034C25.6211 19.2977 25.6109 19.197 25.5854 19.0661L25.5751 19.0107C25.5495 18.8848 25.5189 18.7539 25.4831 18.6331L25.4524 18.5375C25.4217 18.4418 25.3859 18.3411 25.3296 18.2152L25.2938 18.1347C25.2682 18.0743 25.2375 18.0088 25.2017 17.9484L25.9946 17.304C27.0943 18.7842 27.8513 20.4254 28.2452 22.1976C28.2298 22.1724 28.2043 22.1523 28.1787 22.1271ZM24.0969 16.574C23.9997 16.4934 23.8974 16.4179 23.7951 16.3474L23.7388 16.3122C23.6467 16.2517 23.5547 16.1964 23.437 16.1309L23.3808 16.1007C23.2734 16.0453 23.1608 15.995 23.0483 15.9446L22.9869 15.9245C22.8897 15.8842 22.7925 15.854 22.6595 15.8137L22.6033 15.7986C22.5419 15.7835 22.4805 15.7684 22.4192 15.7533L22.3987 15.713C22.322 15.5318 22.2401 15.3556 22.1583 15.1794L22.0202 14.8823C21.9281 14.691 21.8309 14.4997 21.7337 14.3134L21.6212 14.0919C21.4831 13.8351 21.3399 13.5784 21.1915 13.3317L21.1404 13.2461C22.5266 13.9207 23.7746 14.827 24.859 15.9497L24.0969 16.574ZM20.2964 15.3908L20.3783 15.5519C20.4499 15.6929 20.5164 15.8389 20.5829 15.9849L20.6238 16.1561L20.4908 15.9396C20.4601 15.9497 20.4294 15.9597 20.3987 15.9748C20.2555 16.0453 20.1174 16.1259 19.9895 16.2115C19.8719 16.292 19.7542 16.3927 19.6315 16.5085C19.6059 16.5337 19.5854 16.5589 19.5343 16.6142C19.4934 16.6596 19.4524 16.7049 19.4115 16.7502L19.3553 16.73C19.212 16.6747 19.0739 16.6243 18.9307 16.574C18.7568 16.5085 18.5778 16.4481 18.4038 16.3877C18.2606 16.3373 18.1174 16.292 17.9793 16.2467C17.8054 16.1913 17.6264 16.136 17.4525 16.0806C17.3092 16.0403 17.166 15.995 17.0279 15.9547C16.854 15.9044 16.675 15.8591 16.5011 15.8137C16.3579 15.7785 16.2146 15.7382 16.0765 15.708C15.9026 15.6677 15.7236 15.6275 15.5394 15.5821C15.4013 15.5519 15.2632 15.5217 15.1251 15.4966C14.9512 15.4613 14.7722 15.4261 14.5983 15.3959L14.5318 15.3858C14.4141 15.3657 14.2965 15.3455 14.1789 15.3254C14.005 15.2952 13.8259 15.27 13.652 15.2499L13.2377 15.1945C13.0638 15.1743 12.8847 15.1542 12.7108 15.1391C12.5727 15.124 12.4397 15.1139 12.3016 15.0988C12.1431 15.0837 11.9845 15.0787 11.7799 15.0686L11.6929 15.0636C11.5906 15.0585 11.4832 15.0535 11.3809 15.0485C11.2224 15.0434 11.0689 15.0434 10.9104 15.0384H10.7569C10.6802 15.0384 10.6035 15.0384 10.5267 15.0384C10.5063 15.0384 10.4909 15.0384 10.4705 15.0384C10.3119 15.0384 10.1533 15.0434 9.94873 15.0535L9.84642 15.0586C9.75435 15.0636 9.66229 15.0636 9.57022 15.0686C9.42189 15.0787 9.27353 15.0888 9.13031 15.0988L8.92572 15.1139C8.84388 15.119 8.76715 15.124 8.69042 15.1341C8.54208 15.1492 8.39887 15.1693 8.25054 15.1844L8.04083 15.2096C7.96922 15.2197 7.89759 15.2297 7.82598 15.2398C7.66741 15.265 7.51397 15.2901 7.35541 15.3203L7.17127 15.3556C7.10478 15.3657 7.0434 15.3757 6.9769 15.3908C6.78253 15.4311 6.59327 15.4764 6.3989 15.5217L6.30171 15.5419C6.25056 15.5519 6.19942 15.567 6.15339 15.5771C6.0204 15.6124 5.8874 15.6476 5.75952 15.6828C6.69557 14.7716 7.7595 14.0063 8.92572 13.3971C11.7492 11.9321 15.1405 11.5142 18.23 12.2291C18.2811 12.2895 18.3323 12.355 18.3885 12.4204L18.5062 12.5664C18.634 12.7326 18.7619 12.8987 18.8847 13.0699L18.946 13.1605C19.0483 13.3065 19.1507 13.4525 19.2478 13.5985L19.3655 13.7798C19.4422 13.9006 19.524 14.0265 19.5957 14.1523L19.7184 14.3587C19.79 14.4846 19.8616 14.6105 19.9486 14.7665L20.0458 14.9478C20.1481 15.0988 20.2248 15.2448 20.2964 15.3908ZM4.44496 18.0592C4.49611 18.034 4.54726 18.0088 4.60352 17.9837C4.7314 17.9232 4.85928 17.8729 4.99227 17.8175L5.2429 17.7118C5.46285 17.6262 5.68791 17.5456 5.91809 17.4701C6.15338 17.3946 6.3938 17.3241 6.6342 17.2637L6.91552 17.1983C7.06897 17.163 7.21729 17.1227 7.37586 17.0925L7.75948 17.022C7.88736 16.9969 8.01011 16.9767 8.13799 16.9566C8.20448 16.9465 8.27099 16.9365 8.33748 16.9314L8.5421 16.9062C8.66486 16.8911 8.79273 16.871 8.9206 16.8609C8.99733 16.8559 9.07405 16.8458 9.14567 16.8408L9.32468 16.8257C9.45767 16.8156 9.58556 16.8056 9.71854 16.8005C9.80039 16.7955 9.88222 16.7955 9.96918 16.7905L10.1431 16.7854C10.271 16.7804 10.4039 16.7753 10.5369 16.7753L10.941 16.7804C11.0843 16.7804 11.2275 16.7854 11.3707 16.7905C11.4781 16.7955 11.5804 16.8005 11.7339 16.8106C11.8924 16.8207 12.0561 16.8307 12.2147 16.8408L12.6392 16.8811C12.7825 16.8962 12.9257 16.9113 13.074 16.9264C13.1814 16.9415 13.2888 16.9566 13.3962 16.9667L13.4576 16.9767C13.6162 17.0019 13.7799 17.022 13.9384 17.0472L14.3221 17.1127C14.4857 17.1429 14.6494 17.1731 14.808 17.2083C14.9359 17.2335 15.0689 17.2637 15.1967 17.2939C15.3604 17.3292 15.519 17.3694 15.6826 17.4047C15.8156 17.4349 15.9486 17.4701 16.0765 17.5054C16.2351 17.5456 16.3988 17.591 16.5573 17.6363C16.6903 17.6765 16.8284 17.7118 16.9614 17.7571C17.12 17.8024 17.2786 17.8528 17.432 17.9031C17.5701 17.9484 17.7082 17.9937 17.8463 18.039C17.9998 18.0944 18.1532 18.1448 18.3067 18.2052C18.4499 18.2555 18.588 18.3109 18.7312 18.3663L18.7415 18.3713L18.7312 18.4368C18.721 18.5727 18.7108 18.7086 18.7159 18.8496L18.721 18.9302C18.7261 19.046 18.7363 19.1567 18.7517 19.2725L18.767 19.3883C18.7875 19.5242 18.8182 19.6551 18.8591 19.8062C18.8949 19.9421 18.9461 20.078 18.9972 20.214L19.0432 20.3247C19.079 20.4053 19.1149 20.4858 19.1609 20.5765L4.25058 32.6746C2.65981 30.4594 1.78514 27.7659 1.78514 25.0573C1.78514 24.1611 1.87723 23.2649 2.06137 22.394C2.3427 21.0447 2.83882 19.7508 3.53447 18.5475C3.59585 18.5123 3.66236 18.472 3.73908 18.4267L3.82603 18.3764C3.88229 18.3461 3.93857 18.3109 3.99483 18.2807C4.11248 18.2203 4.23525 18.1599 4.36313 18.0944L4.44496 18.0592ZM22.4908 35.6098C23.744 32.6394 24.4038 29.236 24.4038 25.7621C24.4038 24.6444 24.3373 23.5167 24.1992 22.4141C24.2606 22.3789 24.3168 22.3436 24.3731 22.3033C24.5061 22.2077 24.6339 22.102 24.7669 21.9761C24.7976 21.9459 24.8181 21.9157 24.8744 21.8502C24.8999 21.82 24.9255 21.7948 24.9511 21.7646C25.2069 21.9509 25.4575 22.1422 25.703 22.3386L25.8871 22.4846C26.1787 22.7212 26.4702 22.9629 26.7464 23.2096L26.905 23.3505C27.1966 23.6123 27.4779 23.8741 27.7592 24.151C28.0303 24.4229 28.2963 24.6948 28.5521 24.9767L28.5725 25.0573C28.5725 26.6532 28.2861 28.2089 27.7183 29.6891C27.0022 31.567 25.8257 33.2939 24.3219 34.6784C23.6621 35.2876 22.946 35.8263 22.189 36.2844C22.2964 36.0579 22.3987 35.8313 22.4908 35.6098Z" fill="#011A5E"/>
</svg>
