<svg width="22.800000000000004" height="21.4" xmlns="http://www.w3.org/2000/svg" fill="none">
 <defs>
  <clipPath id="clip0">
   <rect id="svg_1" x="-15" y="-8" fill="white" height="48" width="48"/>
  </clipPath>
 </defs>
 <g>
  <title>Layer 1</title>
  <g id="svg_2" clip-path="url(#clip0)">
   <path id="svg_3" stroke-miterlimit="10" stroke="#0F0F0F" d="m33.09724,-12.85914l-47.6083,0l0,47.6083l47.6083,0l0,-47.6083z"/>
   <path id="svg_4" fill="white" d="m7.27571,2.04516c0.51706,0 0.93618,0.41913 0.93618,0.93618c0,0.51706 -0.41912,0.93619 -0.93618,0.93619l-4.85719,0l-0.35254,0l0,0.35253l0,14.7713l0,0.3526l0.35254,0l14.68512,0l0.3526,0l0,-0.3526l0,-3.6781c0,-0.5171 0.4191,-0.9362 0.9362,-0.9362c0.517,0 0.9362,0.4191 0.9362,0.9362l0,4.9669c0,0.517 -0.4192,0.9362 -0.9362,0.9362l-17.26264,0c-0.51706,0 -0.93619,-0.4192 -0.93619,-0.9362l0,-17.34882c0,-0.51705 0.41913,-0.93618 0.93619,-0.93618l6.14591,0z"/>
   <path id="svg_5" fill="white" d="m15.05114,0.13712l7.3328,2.96524c0.1528,0.06267 0.2076,0.25071 0.1097,0.38389l-4.6496,6.39661c-0.1254,0.1723 -0.3917,0.1253 -0.4505,-0.0784l-0.5601,-1.9546c-0.0392,-0.1332 -0.1763,-0.2115 -0.3095,-0.1762c-1.1634,0.3212 -6.0088,1.8488 -8.99752,5.7894c-0.15669,0.2076 -0.48964,0.0783 -0.4583,-0.1802c0.63457,-5.151 4.88462,-8.645 8.10442,-10.54871c0.098,-0.05876 0.145,-0.17626 0.1136,-0.28594l-0.5758,-2.00555c-0.0587,-0.20368 0.1449,-0.38388 0.3408,-0.30554z"/>
  </g>
 </g>
</svg>