<svg width="23" height="21.5" xmlns="http://www.w3.org/2000/svg" fill="none">
 <title>Drawing</title>
 <defs>
  <clipPath id="clip0">
   <rect id="svg_1" x="-15" y="-8" fill="white" height="48" width="48"/>
  </clipPath>
 </defs>
 <g>
  <title>Layer 1</title>
  <g id="svg_2" clip-path="url(#clip0)">
   <path id="svg_3" stroke-miterlimit="10" stroke="#0F0F0F" d="m32.98267,-12.8041l-47.6083,0l0,47.6083l47.6083,0l0,-47.6083z"/>
   <path id="svg_4" fill="#D60051" d="m7.1613,2.1002c0.51706,0 0.93618,0.41913 0.93618,0.93618c0,0.51706 -0.41912,0.93619 -0.93618,0.93619l-4.85719,0l-0.35254,0l0,0.35253l0,14.7713l0,0.3526l0.35254,0l14.68516,0l0.3525,0l0,-0.3526l0,-3.6781c0,-0.5171 0.4192,-0.9362 0.9362,-0.9362c0.5171,0 0.9362,0.4191 0.9362,0.9362l0,4.9669c0,0.517 -0.4191,0.9362 -0.9362,0.9362l-17.26258,0c-0.51706,0 -0.93619,-0.4192 -0.93619,-0.9362l0,-17.34882c0,-0.51705 0.41913,-0.93618 0.93619,-0.93618l6.14591,0z"/>
   <path id="svg_5" fill="#D60051" d="m14.93657,0.19216l7.3328,2.96524c0.1528,0.06267 0.2076,0.25071 0.1097,0.38389l-4.6496,6.39661c-0.1253,0.1723 -0.3917,0.1253 -0.4504,-0.0784l-0.5602,-1.9546c-0.0392,-0.1332 -0.1763,-0.2115 -0.3094,-0.1762c-1.1634,0.3212 -6.0088,1.8488 -8.99759,5.7894c-0.15668,0.2076 -0.48963,0.0783 -0.45829,-0.1802c0.63456,-5.151 4.88458,-8.645 8.10448,-10.54871c0.0979,-0.05876 0.1449,-0.17626 0.1136,-0.28594l-0.5758,-2.00555c-0.0588,-0.20368 0.1449,-0.38388 0.3407,-0.30554z"/>
  </g>
 </g>
</svg>