<svg width="15" height="16" viewBox="0 0 15 16" fill="none" xmlns="http://www.w3.org/2000/svg">
<g clip-path="url(#clip0)">
<path d="M10.9121 1.62463L10.9121 3.21682C9.96016 3.48719 9.27595 4.3734 9.27595 5.40982C9.27595 6.44625 9.97504 7.33246 10.9121 7.60283L10.9121 14.6475C10.9121 14.993 11.1947 15.2633 11.5219 15.2633C11.8492 15.2633 12.1318 14.9779 12.1318 14.6475L12.1318 7.60283C13.0837 7.33246 13.7679 6.44625 13.7679 5.40982C13.7679 4.3734 13.0689 3.48719 12.1318 3.21682L12.1318 1.62463C12.1318 1.27916 11.8492 1.00879 11.5219 1.00879C11.1947 1.00879 10.9121 1.29418 10.9121 1.62463ZM12.5631 5.40982C12.5631 5.98061 12.102 6.44625 11.5368 6.44625C10.9716 6.44625 10.5105 5.98061 10.5105 5.40982C10.5105 4.83904 10.9716 4.3734 11.5368 4.3734C12.102 4.3734 12.5631 4.83904 12.5631 5.40982Z" fill="#D60051" stroke="#D60051" stroke-width="0.6"/>
<path d="M7.87776 14.6625L7.87776 13.0703C8.82971 12.8 9.51392 11.9137 9.51392 10.8773C9.51392 9.8409 8.81483 8.95469 7.87776 8.68432L7.87776 1.62463C7.87776 1.27916 7.59515 1.00879 7.26792 1.00879C6.94069 1.00879 6.65808 1.29418 6.65808 1.62463L6.65808 8.66929C5.70614 8.93967 5.02192 9.82588 5.02192 10.8623C5.02192 11.8987 5.72101 12.7849 6.65808 13.0553L6.65808 14.6475C6.65808 14.993 6.94069 15.2633 7.26792 15.2633C7.59515 15.2633 7.87776 14.993 7.87776 14.6625ZM6.2416 10.8773C6.2416 10.3065 6.7027 9.8409 7.26792 9.8409C7.83314 9.8409 8.29424 10.3065 8.29424 10.8773C8.29424 11.4481 7.83314 11.9137 7.26792 11.9137C6.7027 11.9137 6.2416 11.4481 6.2416 10.8773Z" fill="#D60051" stroke="#D60051" stroke-width="0.6"/>
<path d="M3.62373 14.6625L3.62373 7.60283C4.57568 7.33246 5.25989 6.44625 5.25989 5.40982C5.25989 4.3734 4.5608 3.48719 3.62373 3.21682L3.62373 1.62463C3.62373 1.27916 3.34113 1.00879 3.01389 1.00879C2.67179 1.00879 2.40406 1.29418 2.40406 1.62463L2.40406 3.21682C1.45211 3.48719 0.767901 4.3734 0.767901 5.40982C0.767901 6.44625 1.46699 7.33246 2.40406 7.60283L2.40405 14.6475C2.40405 14.993 2.68666 15.2633 3.01389 15.2633C3.34112 15.2784 3.62373 14.993 3.62373 14.6625ZM1.97271 5.40982C1.97271 4.83904 2.4338 4.3734 2.99902 4.3734C3.56424 4.3734 4.02534 4.83904 4.02534 5.40982C4.02534 5.98061 3.56424 6.44625 2.99902 6.44625C2.4338 6.44625 1.97271 5.98061 1.97271 5.40982Z" fill="#D60051" stroke="#D60051" stroke-width="0.6"/>
</g>
<defs>
<clipPath id="clip0">
<rect width="15.2727" height="14" fill="white" transform="translate(14.2679 0.5) rotate(90)"/>
</clipPath>
</defs>
</svg>
