<svg width="14" height="13" viewBox="0 0 14 13" fill="none" xmlns="http://www.w3.org/2000/svg">
<path d="M6.86945 12.0392C6.65662 12.0392 6.45243 11.955 6.30149 11.8049L1.11925 6.62266L1.00052 6.50394L0.878584 6.37879C0.816054 6.31585 0.764049 6.24326 0.72456 6.1638C0.139666 5.34597 -0.105163 4.33314 0.0415978 3.33845C0.188358 2.34376 0.715263 1.44479 1.51142 0.830725C2.30759 0.216662 3.31091 -0.0646041 4.31026 0.0461196C5.3096 0.156843 6.22702 0.650922 6.86945 1.42438C7.50939 0.642048 8.42917 0.140096 9.43334 0.0251868C10.4375 -0.0897222 11.4469 0.191469 12.247 0.809008C13.0472 1.42655 13.5749 2.33175 13.7182 3.33227C13.8615 4.33278 13.609 5.34973 13.0143 6.16701C12.9756 6.24516 12.9247 6.31665 12.8635 6.37879L12.7223 6.51998L12.6068 6.63229L7.43741 11.8049C7.28648 11.955 7.08229 12.0392 6.86945 12.0392ZM2.13002 5.36802L2.22308 5.46107L6.86945 10.1042L11.4869 5.48674L11.5768 5.39689L11.6025 5.37123C11.621 5.34212 11.6413 5.31425 11.6634 5.2878C12.0167 4.87707 12.2113 4.35349 12.2121 3.81174C12.2128 3.22984 11.9911 2.66968 11.5924 2.24584C11.1937 1.82201 10.6481 1.56653 10.0673 1.53169C9.48643 1.49685 8.91421 1.68527 8.4677 2.0584C8.02119 2.43154 7.73412 2.96118 7.66524 3.53899C7.64172 3.73355 7.54779 3.91278 7.40119 4.04283C7.25458 4.17289 7.06543 4.24478 6.86945 4.24493C6.67347 4.24478 6.48433 4.17289 6.33772 4.04283C6.19111 3.91278 6.09718 3.73355 6.07367 3.53899C6.03243 3.18476 5.90872 2.84513 5.71248 2.54735C5.51624 2.24958 5.25292 2.00196 4.94367 1.82436C4.63441 1.64676 4.28783 1.54414 3.93173 1.52472C3.57564 1.5053 3.21995 1.56962 2.89322 1.71254C2.56648 1.85545 2.2778 2.07297 2.05034 2.34764C1.82288 2.6223 1.66297 2.94647 1.58346 3.29411C1.50394 3.64176 1.50703 4.0032 1.59248 4.34944C1.67793 4.69567 1.84335 5.01706 2.07547 5.2878C2.09794 5.31347 2.13002 5.34235 2.13002 5.36802Z" fill="#223A7A"/>
</svg>
