<svg width="26" height="25" viewBox="0 0 26 25" fill="none" xmlns="http://www.w3.org/2000/svg">
<path d="M12.8614 25C12.4629 25.0001 12.0806 24.8252 11.7981 24.5136L2.09552 13.7523L1.87324 13.5058L1.64494 13.2459C1.52787 13.1152 1.4305 12.9645 1.35657 12.7995C0.261492 11.1012 -0.196892 8.99801 0.0778821 6.93248C0.352656 4.86695 1.33916 3.00019 2.82978 1.72505C4.32041 0.449912 6.1989 -0.134154 8.06994 0.09577C9.94097 0.325694 11.6586 1.35168 12.8614 2.9578C14.0596 1.33325 15.7816 0.290917 17.6617 0.0523019C19.5418 -0.186313 21.4316 0.397597 22.9297 1.67995C24.4277 2.96231 25.4159 4.84202 25.6841 6.91964C25.9524 8.99727 25.4796 11.109 24.3663 12.8062C24.2938 12.9684 24.1985 13.1169 24.0839 13.2459L23.8196 13.5391L23.6033 13.7723L13.9248 24.5136C13.6422 24.8252 13.2599 25.0001 12.8614 25ZM3.98797 11.147L4.16219 11.3402L12.8614 20.982L21.5066 11.3935L21.6748 11.207L21.7229 11.1537C21.7575 11.0932 21.7956 11.0354 21.837 10.9804C22.4984 10.1275 22.8629 9.04028 22.8643 7.9153C22.8656 6.70695 22.4506 5.54374 21.7041 4.66362C20.9576 3.7835 19.9361 3.253 18.8486 3.18065C17.7611 3.10829 16.6898 3.49956 15.8538 4.27439C15.0178 5.04923 14.4803 6.14907 14.3514 7.34892C14.3073 7.75294 14.1315 8.12511 13.857 8.39518C13.5825 8.66525 13.2284 8.81452 12.8614 8.81484C12.4945 8.81452 12.1404 8.66525 11.8659 8.39518C11.5914 8.12511 11.4155 7.75294 11.3715 7.34892C11.2943 6.61333 11.0627 5.90807 10.6953 5.28973C10.3279 4.67138 9.83486 4.15718 9.25585 3.78839C8.67684 3.4196 8.02794 3.20649 7.36124 3.16616C6.69454 3.12583 6.0286 3.25941 5.41687 3.55618C4.80513 3.85295 4.26464 4.30464 3.83877 4.875C3.41291 5.44536 3.11352 6.11851 2.96465 6.84042C2.81578 7.56232 2.82157 8.31289 2.98154 9.03186C3.14152 9.75084 3.45124 10.4182 3.88584 10.9804C3.92789 11.0337 3.98797 11.0937 3.98797 11.147Z" fill="#223A7A"/>
</svg>
