<svg width="20" height="20" viewBox="0 0 20 20" fill="none" xmlns="http://www.w3.org/2000/svg">
<path d="M12.4138 13.7931C16.2226 13.7931 19.3103 10.7054 19.3103 6.89655C19.3103 3.08769 16.2226 0 12.4138 0C8.60491 0 5.51721 3.08769 5.51721 6.89655C5.51721 10.7054 8.60491 13.7931 12.4138 13.7931Z" fill="#FFEBC6"/>
<circle cx="8.62069" cy="9.31014" r="7.62069" stroke="#223A7A" stroke-width="2"/>
<path d="M5.3241 7.13915C5.55582 6.55984 5.96134 6.11708 6.54065 5.81087C7.12823 5.50467 7.83582 5.35156 8.66341 5.35156C9.06892 5.35156 9.46203 5.39708 9.84272 5.48811C10.2234 5.57087 10.5586 5.69915 10.8482 5.87294C11.1462 6.04673 11.382 6.26604 11.5558 6.53087C11.7379 6.7957 11.8289 7.11018 11.8289 7.47432C11.8289 7.74742 11.7875 7.98742 11.7048 8.19432C11.6303 8.40122 11.5227 8.58742 11.382 8.75294C11.2413 8.91018 11.0758 9.05087 10.8855 9.17501C10.6951 9.29915 10.4882 9.41087 10.2648 9.51018C10.0662 9.60122 9.89237 9.68811 9.74341 9.77087C9.59444 9.85363 9.4703 9.94053 9.37099 10.0316C9.27168 10.1226 9.19306 10.2302 9.13513 10.3543C9.08548 10.4702 9.05651 10.6109 9.04823 10.7764H7.13651C7.13651 10.4867 7.1572 10.2343 7.19858 10.0191C7.24823 9.80398 7.32686 9.61777 7.43444 9.46053C7.54203 9.29501 7.67858 9.15018 7.8441 9.02604C8.00961 8.89363 8.20823 8.76535 8.43996 8.64122L8.91168 8.41777C9.03582 8.36811 9.15582 8.31432 9.27168 8.25639C9.38754 8.19846 9.49099 8.13639 9.58203 8.07018C9.67306 8.00398 9.74754 7.92949 9.80548 7.84673C9.86341 7.76398 9.89237 7.67294 9.89237 7.57363C9.89237 7.36673 9.77237 7.19708 9.53237 7.06467C9.30065 6.93225 8.98617 6.86604 8.58892 6.86604C8.21651 6.86604 7.88961 6.93639 7.60823 7.07708C7.32686 7.21777 7.13237 7.44535 7.02479 7.75984L5.3241 7.13915ZM8.10479 11.5212C8.4441 11.5212 8.72961 11.6371 8.96134 11.8688C9.19306 12.1005 9.30892 12.386 9.30892 12.7254C9.30892 13.0647 9.19306 13.3543 8.96134 13.5943C8.72961 13.826 8.4441 13.9419 8.10479 13.9419C7.76548 13.9419 7.47996 13.826 7.24823 13.5943C7.01651 13.3543 6.90065 13.0647 6.90065 12.7254C6.90065 12.386 7.01651 12.1005 7.24823 11.8688C7.47996 11.6371 7.76548 11.5212 8.10479 11.5212Z" fill="#223A7A"/>
</svg>
