<svg width="18" height="8" viewBox="0 0 18 8" fill="none" xmlns="http://www.w3.org/2000/svg">
<path d="M17.906 3.41874L17.1025 2.33939C17.3218 2.16447 17.5054 2.00876 17.615 1.88717C17.8344 1.67813 17.8344 1.3475 17.615 1.15552C17.3957 0.946472 17.0488 0.946472 16.8474 1.15552C16.1715 1.79971 13.6515 3.87096 9.52235 3.87096C5.39321 3.87096 2.8732 1.78265 2.19731 1.15552C1.97799 0.946472 1.63109 0.946472 1.42967 1.15552C1.21035 1.36456 1.21035 1.69519 1.42967 1.88717C1.53934 1.99169 1.70271 2.14741 1.92204 2.32232L1.10068 3.41874C0.917167 3.66191 0.991021 3.97548 1.22825 4.15039C1.32001 4.22079 1.42967 4.25492 1.53934 4.25492C1.70271 4.25492 1.88623 4.18452 1.99589 4.02881L2.79934 2.96652C3.16414 3.20969 3.60279 3.47207 4.1153 3.71524L3.34766 5.12522C3.20218 5.38546 3.31185 5.69903 3.58489 5.82061C3.65874 5.85474 3.74826 5.87181 3.84002 5.87181C4.04144 5.87181 4.22272 5.76729 4.33238 5.59237L5.11793 4.12906C5.55658 4.30398 6.03104 4.44263 6.56145 4.56421L6.08699 6.23444C6.01314 6.51387 6.17875 6.79117 6.46969 6.87863C6.52341 6.8957 6.56145 6.8957 6.61516 6.8957C6.85239 6.8957 7.07172 6.73998 7.14557 6.51174L7.63794 4.77113C8.05869 4.84152 8.51524 4.87565 8.9718 4.89271V6.80824C8.9718 7.08768 9.20903 7.33085 9.52011 7.33085C9.8312 7.33085 10.0684 7.08768 10.0684 6.80824V4.89271C10.525 4.87565 10.9815 4.82232 11.4023 4.77113L11.8947 6.51174C11.9685 6.73785 12.1878 6.8957 12.4251 6.8957C12.4788 6.8957 12.5168 6.8957 12.5705 6.87863C12.8637 6.80824 13.0271 6.51387 12.9532 6.23444L12.4788 4.56421C12.9913 4.44263 13.4836 4.28478 13.9223 4.12906L14.6899 5.57317C14.7817 5.74809 14.9831 5.85261 15.1823 5.85261C15.2741 5.85261 15.3457 5.83554 15.4374 5.80141C15.7105 5.66276 15.8201 5.3492 15.6747 5.10602L14.9249 3.71311C15.4374 3.46993 15.8738 3.22463 16.2409 2.98145L17.0264 4.02667C17.1361 4.16532 17.2995 4.25278 17.4651 4.25278C17.5747 4.25278 17.6844 4.21865 17.7762 4.14826C18.0156 3.97761 18.0716 3.64698 17.906 3.41874Z" />
</svg>
