<svg width="35" height="35" viewBox="0 0 35 35" fill="none" xmlns="http://www.w3.org/2000/svg">
<path d="M12.3168 31.4172C7.47953 31.4172 3.5437 27.4927 3.5437 22.6693C3.5437 17.8459 7.47953 13.9214 12.3168 13.9214C17.154 13.9214 21.0899 17.8459 21.0899 22.6693C21.0899 27.4927 17.154 31.4172 12.3168 31.4172ZM12.3168 16.0117C8.63775 16.0117 5.64002 18.9956 5.64002 22.6693C5.64002 26.343 8.63251 29.3269 12.3168 29.3269C16.0011 29.3269 18.9935 26.343 18.9935 22.6693C18.9935 18.9956 15.9958 16.0117 12.3168 16.0117Z" fill="#DB8F00"/>
<path d="M17.7461 34.3436C8.297 34.3436 0.603516 26.6774 0.603516 17.2502C0.603516 7.82292 8.29176 0.156738 17.7461 0.156738C27.2005 0.156738 34.8888 7.82292 34.8888 17.2502C34.8888 26.6774 27.1953 34.3436 17.7461 34.3436ZM17.7461 2.25227C9.44997 2.25227 2.69983 8.98304 2.69983 17.2554C2.69983 25.5278 9.44997 32.2586 17.7461 32.2586C26.0423 32.2586 32.7924 25.5278 32.7924 17.2554C32.7924 8.98304 26.0423 2.25227 17.7461 2.25227Z" fill="#DB8F00"/>
</svg>
