<svg width="20" height="20" viewBox="0 0 20 20" fill="none" xmlns="http://www.w3.org/2000/svg">
<path d="M12.4139 13.7931C16.2228 13.7931 19.3104 10.7054 19.3104 6.89655C19.3104 3.08769 16.2228 0 12.4139 0C8.60503 0 5.51733 3.08769 5.51733 6.89655C5.51733 10.7054 8.60503 13.7931 12.4139 13.7931Z" fill="#FFEBC6"/>
<circle cx="8.62069" cy="9.31014" r="7.62069" stroke="#223A7A" stroke-width="2"/>
<path d="M8.2001 5.50054C8.2001 5.18606 8.30768 4.92123 8.52286 4.70606C8.73803 4.49089 9.00286 4.3833 9.31734 4.3833C9.63182 4.3833 9.89665 4.49089 10.1118 4.70606C10.327 4.92123 10.4346 5.18606 10.4346 5.50054C10.4346 5.80675 10.327 6.07158 10.1118 6.29502C9.89665 6.5102 9.63182 6.61778 9.31734 6.61778C9.00286 6.61778 8.73803 6.5102 8.52286 6.29502C8.30768 6.07158 8.2001 5.80675 8.2001 5.50054ZM7.19458 7.63571H10.2608V13.793H8.36148V9.07571H7.19458V7.63571Z" fill="#223A7A"/>
</svg>
