<svg width="15" height="15" viewBox="0 0 15 15" fill="none" xmlns="http://www.w3.org/2000/svg">
<circle cx="7.49986" cy="7.49986" r="5.92857" stroke="#223A7A"/>
<path d="M6.72386 4.57689C6.72386 4.34414 6.8128 4.14813 6.99069 3.98888C7.16858 3.82963 7.38752 3.75 7.6475 3.75C7.90749 3.75 8.12643 3.82963 8.30432 3.98888C8.48221 4.14813 8.57115 4.34414 8.57115 4.57689C8.57115 4.80352 8.48221 4.99953 8.30432 5.16491C8.12643 5.32416 7.90749 5.40379 7.6475 5.40379C7.38752 5.40379 7.16858 5.32416 6.99069 5.16491C6.8128 4.99953 6.72386 4.80352 6.72386 4.57689ZM5.89258 6.15718H8.42747V10.7143H6.85727V7.22295H5.89258V6.15718Z" fill="#223A7A"/>
</svg>
