<svg width="20" height="21" viewBox="0 0 20 21" fill="none" xmlns="http://www.w3.org/2000/svg">
<path d="M12.5152 14.7814C16.3241 14.7814 19.4118 11.6937 19.4118 7.88483C19.4118 4.07597 16.3241 0.988281 12.5152 0.988281C8.70635 0.988281 5.61865 4.07597 5.61865 7.88483C5.61865 11.6937 8.70635 14.7814 12.5152 14.7814Z" fill="#E1E7F7"/>
<circle cx="8.72201" cy="10.2984" r="7.62069" stroke="#011A5E" stroke-width="2"/>
<path d="M8.30142 6.48882C8.30142 6.17434 8.409 5.90951 8.62417 5.69434C8.83935 5.47917 9.10417 5.37158 9.41866 5.37158C9.73314 5.37158 9.99797 5.47917 10.2131 5.69434C10.4283 5.90951 10.5359 6.17434 10.5359 6.48882C10.5359 6.79503 10.4283 7.05986 10.2131 7.28331C9.99797 7.49848 9.73314 7.60606 9.41866 7.60606C9.10417 7.60606 8.83935 7.49848 8.62417 7.28331C8.409 7.05986 8.30142 6.79503 8.30142 6.48882ZM7.2959 8.624H10.3621V14.7812H8.46279V10.064H7.2959V8.624Z" fill="#011A5E"/>
</svg>
