<svg width="51" height="44" viewBox="0 0 51 44" fill="none" xmlns="http://www.w3.org/2000/svg">
<path d="M33.2242 35.6001C42.9844 35.6001 50.8966 27.7651 50.8966 18.1001C50.8966 8.43511 42.9844 0.600098 33.2242 0.600098C23.464 0.600098 15.5518 8.43511 15.5518 18.1001C15.5518 27.7651 23.464 35.6001 33.2242 35.6001Z" fill="#FFEBC6"/>
<path d="M20.4724 44C19.8381 44.0001 19.2295 43.7553 18.7797 43.319L3.33558 28.2533L2.98175 27.9081L2.61836 27.5443C2.43201 27.3613 2.27702 27.1503 2.15934 26.9193C0.416233 24.5417 -0.313406 21.5972 0.12397 18.7055C0.561346 15.8137 2.13163 13.2003 4.50435 11.4151C6.87708 9.62988 9.8672 8.81218 12.8454 9.13408C15.8237 9.45597 18.5578 10.8923 20.4724 13.1409C22.3795 10.8666 25.1206 9.40728 28.1133 9.07322C31.1059 8.73916 34.1141 9.55664 36.4986 11.3519C38.8832 13.1472 40.4561 15.7788 40.8831 18.6875C41.3101 21.5962 40.5576 24.5526 38.7854 26.9286C38.67 27.1558 38.5183 27.3637 38.3359 27.5443L37.9152 27.9548L37.5709 28.2813L22.165 43.319C21.7152 43.7553 21.1067 44.0001 20.4724 44ZM6.34791 24.6058L6.62523 24.8763L20.4724 38.3748L34.2334 24.951L34.5012 24.6898L34.5777 24.6151C34.6328 24.5305 34.6935 24.4495 34.7594 24.3726C35.8122 23.1785 36.3923 21.6564 36.3947 20.0814C36.3967 18.3897 35.736 16.7612 34.5478 15.5291C33.3596 14.2969 31.7336 13.5542 30.0026 13.4529C28.2715 13.3516 26.5662 13.8994 25.2355 14.9842C23.9048 16.0689 23.0493 17.6087 22.844 19.2885C22.7739 19.8541 22.494 20.3752 22.057 20.7532C21.6201 21.1313 21.0564 21.3403 20.4724 21.3408C19.8883 21.3403 19.3246 21.1313 18.8877 20.7532C18.4508 20.3752 18.1709 19.8541 18.1008 19.2885C17.9779 18.2587 17.6092 17.2713 17.0244 16.4056C16.4395 15.5399 15.6548 14.8201 14.7331 14.3037C13.8115 13.7874 12.7786 13.4891 11.7174 13.4326C10.6561 13.3762 9.59612 13.5632 8.62238 13.9787C7.64864 14.3941 6.78831 15.0265 6.11043 15.825C5.43255 16.6235 4.956 17.5659 4.71903 18.5766C4.48206 19.5873 4.49127 20.638 4.74592 21.6446C5.00057 22.6512 5.49356 23.5855 6.18534 24.3726C6.25228 24.4472 6.34791 24.5312 6.34791 24.6058Z" fill="#223A7A"/>
</svg>
