<svg width="42" height="45" viewBox="0 0 42 45" fill="none" xmlns="http://www.w3.org/2000/svg">
<path d="M5.19628 0.904541C3.9457 0.909761 2.74773 1.40841 1.86281 2.29209C0.977891 3.17577 0.477557 4.37304 0.470581 5.62361V40.2544C0.472311 41.5091 0.970121 42.7121 1.85542 43.6011C2.74072 44.4901 3.94166 44.993 5.19628 45H36.6788C37.9294 44.993 39.1267 44.4927 40.0104 43.6078C40.894 42.7229 41.3927 41.5249 41.3979 40.2743V13.4976C41.3986 13.0805 41.2342 12.6802 40.9406 12.3841L29.9184 1.36187C29.6214 1.06945 29.2216 0.905238 28.8049 0.904541H5.19628ZM5.19628 4.0528H6.76709V9.97814C6.77403 10.9094 7.14705 11.8006 7.80557 12.4591C8.46409 13.1176 9.35525 13.4906 10.2865 13.4976H22.1372C23.0685 13.4906 23.9596 13.1176 24.6181 12.4591C25.2767 11.8006 25.6497 10.9094 25.6566 9.97814V4.0528H28.1553L38.2496 14.1471V40.2544C38.2551 40.4625 38.2182 40.6695 38.1413 40.8629C38.0644 41.0563 37.949 41.2321 37.8021 41.3796C37.6552 41.5271 37.4799 41.6432 37.2869 41.7209C37.0938 41.7987 36.8869 41.8364 36.6788 41.8319H33.5306V26.0906C33.5236 24.8394 33.0235 23.6414 32.1388 22.7567C31.254 21.872 30.0561 21.3718 28.8049 21.3649H13.0636C11.813 21.3719 10.6158 21.8722 9.73209 22.7571C8.84841 23.642 8.34976 24.84 8.34453 26.0906V41.8319H5.19628C4.98764 41.8373 4.78006 41.8003 4.58621 41.7229C4.39235 41.6456 4.21627 41.5296 4.06868 41.382C3.9211 41.2344 3.80511 41.0583 3.72777 40.8645C3.65043 40.6706 3.61337 40.4631 3.61884 40.2544V5.62361C3.61428 5.41552 3.65202 5.20867 3.72976 5.01559C3.80751 4.82251 3.92365 4.64723 4.07114 4.50036C4.21862 4.35349 4.39439 4.23809 4.5878 4.16116C4.7812 4.08423 4.98821 4.04736 5.19628 4.0528ZM9.91535 4.0528H22.5349V9.97814C22.5389 10.0279 22.532 10.0779 22.5148 10.1248C22.4976 10.1716 22.4703 10.2142 22.435 10.2495C22.3997 10.2848 22.3572 10.312 22.3104 10.3292C22.2635 10.3465 22.2135 10.3533 22.1637 10.3493H10.2865C10.2368 10.3533 10.1867 10.3465 10.1399 10.3292C10.093 10.312 10.0505 10.2848 10.0152 10.2495C9.97989 10.2142 9.95268 10.1716 9.93544 10.1248C9.91821 10.0779 9.91135 10.0279 9.91535 9.97814V4.0528ZM13.0636 24.5131H28.8049C29.0135 24.5077 29.2211 24.5447 29.415 24.6221C29.6088 24.6994 29.7849 24.8154 29.9325 24.963C30.0801 25.1106 30.1961 25.2867 30.2734 25.4805C30.3507 25.6744 30.3878 25.8819 30.3823 26.0906V41.8319H11.4928V26.0906C11.4874 25.8825 11.5242 25.6755 11.6012 25.4821C11.6781 25.2887 11.7935 25.1129 11.9404 24.9654C12.0872 24.818 12.2625 24.7018 12.4556 24.6241C12.6487 24.5463 12.8555 24.5086 13.0636 24.5131Z" fill="#223A7A"/>
</svg>
