<svg width="15" height="14" viewBox="0 0 15 14" fill="none" xmlns="http://www.w3.org/2000/svg">
<path d="M2.00456 11.1954C2.77901 11.1954 3.40682 11.8233 3.40682 12.5977C3.40682 13.3722 2.77901 14 2.00456 14C1.23011 14 0.602295 13.3722 0.602295 12.5977C0.602295 11.8233 1.23011 11.1954 2.00456 11.1954Z" fill="#223A7A"/>
<path d="M2.00212 5.59778C2.77656 5.59778 3.40438 6.2256 3.40438 7.00006C3.40438 7.77452 2.77656 8.40234 2.00212 8.40234C1.22767 8.40234 0.599854 7.77452 0.599854 7.00006C0.599854 6.2256 1.22767 5.59778 2.00212 5.59778Z" fill="#223A7A"/>
<path d="M2.00749 0.000123978C2.78193 0.000123978 3.40975 0.627947 3.40975 1.40241C3.40975 2.17687 2.78193 2.80469 2.00749 2.80469C1.23304 2.80469 0.605225 2.17687 0.605225 1.40241C0.605225 0.627947 1.23304 0.000123978 2.00749 0.000123978Z" fill="#223A7A"/>
<path fill-rule="evenodd" clip-rule="evenodd" d="M6.03504 11.1918H13.2003C13.9728 11.1918 14.5998 11.8178 14.5998 12.5914C14.5998 13.3648 13.9728 13.9907 13.2003 13.9907L6.03504 13.9905C5.26249 13.9905 4.6355 13.3646 4.6355 12.591C4.6355 11.8176 5.26249 11.1918 6.03504 11.1918Z" fill="#223A7A"/>
<path fill-rule="evenodd" clip-rule="evenodd" d="M13.2003 8.40625H6.03504C5.26249 8.40625 4.6355 7.78029 4.6355 7.00669C4.6355 6.23309 5.26249 5.60713 6.03504 5.60713L13.2003 5.60755C13.9728 5.60755 14.5998 6.23351 14.5998 7.0069C14.5998 7.7805 13.9728 8.40625 13.2003 8.40625Z" fill="#223A7A"/>
<path fill-rule="evenodd" clip-rule="evenodd" d="M13.2003 2.81299H6.03504C5.26249 2.81299 4.6355 2.18703 4.6355 1.41364C4.6355 0.640037 5.26249 0.0140781 6.03504 0.0140781L13.2003 0.0142865C13.9728 0.0142865 14.5998 0.640246 14.5998 1.41385C14.5998 2.18745 13.9728 2.81299 13.2003 2.81299Z" fill="#223A7A"/>
</svg>
