<svg width="19" height="17" viewBox="0 0 19 17" fill="none" xmlns="http://www.w3.org/2000/svg">
<path d="M8.75794 15.6616C8.5282 15.6481 8.27548 15.6616 8.01816 15.6616H7.67584C7.50392 15.6755 7.33098 15.6523 7.16918 15.5937C7.00739 15.5351 6.86067 15.4424 6.73934 15.3223C6.61802 15.2022 6.52504 15.0575 6.46694 14.8984C6.40884 14.7393 6.38704 14.5697 6.40306 14.4015V6.62924C6.39335 6.46521 6.41922 6.30104 6.47898 6.14751C6.53873 5.99399 6.631 5.85461 6.74973 5.73854C6.86845 5.62247 7.01093 5.53234 7.16779 5.4741C7.32464 5.41586 7.49231 5.39081 7.65976 5.40062H8.05033C8.28007 5.40062 8.49603 5.40062 8.71659 5.40062C8.87462 5.36991 9.01668 5.28594 9.11807 5.1633C9.21947 5.04066 9.27379 4.88711 9.27161 4.72932C9.26942 4.57153 9.21087 4.41947 9.10612 4.29957C9.00136 4.17967 8.85704 4.0995 8.69821 4.073C8.27318 4.073 7.88491 4.073 7.51272 4.073C6.95058 4.085 6.40857 4.28028 5.97248 4.62793C5.53639 4.97558 5.23112 5.45574 5.105 5.99243C5.08662 6.07044 5.07054 6.14544 5.05675 6.21745L5.04297 6.28271V14.7458C5.05446 14.7908 5.06365 14.8335 5.07054 14.8785C5.15278 15.4116 5.41045 15.9037 5.8044 16.2803C6.19834 16.6568 6.70702 16.897 7.25311 16.9645C7.76365 17.0049 8.27643 17.011 8.78781 16.9825C8.89915 16.978 9.00679 16.9421 9.09771 16.879C9.18863 16.8159 9.25894 16.7283 9.30014 16.6269C9.35444 16.5304 9.38292 16.4221 9.38292 16.3119C9.38292 16.2017 9.35444 16.0934 9.30014 15.9969C9.24705 15.8999 9.1692 15.818 9.07417 15.7592C8.97915 15.7004 8.87019 15.6668 8.75794 15.6616Z" fill="#232323"/>
<path d="M18.8046 10.0135L15.7696 7.04093C15.7101 6.98026 15.6388 6.93188 15.5599 6.89864C15.481 6.8654 15.396 6.84799 15.3101 6.84741C15.1398 6.84902 14.9761 6.91235 14.8507 7.02518C14.7855 7.08149 14.7334 7.15075 14.6977 7.22836C14.6621 7.30596 14.6437 7.39012 14.6439 7.47522C14.6422 7.56369 14.6588 7.65157 14.6928 7.73356C14.7268 7.81555 14.7773 7.88995 14.8415 7.95227L16.8219 9.89195H10.8531C10.3683 9.89195 9.98926 10.1755 9.98926 10.5378C9.98926 10.9 10.3683 11.1836 10.8531 11.1836H16.6725L14.6875 13.1143C14.6235 13.1713 14.5722 13.2408 14.537 13.3182C14.5018 13.3957 14.4835 13.4795 14.4831 13.5643C14.481 13.6526 14.4972 13.7404 14.5307 13.8224C14.5643 13.9044 14.6145 13.9789 14.6783 14.0413C14.8062 14.1591 14.975 14.2246 15.1505 14.2246C15.3259 14.2246 15.4948 14.1591 15.6226 14.0413L18.7954 10.9293C18.8581 10.8736 18.9086 10.806 18.9438 10.7305C18.9789 10.6551 18.998 10.5734 18.9998 10.4905C19.0017 10.4022 18.9854 10.3145 18.9518 10.2325C18.9183 10.1505 18.8682 10.076 18.8046 10.0135Z" fill="#232323"/>
</svg>
