<svg width="20" height="19" viewBox="0 0 20 19" fill="none" xmlns="http://www.w3.org/2000/svg">
<g clip-path="url(#clip0)">
<path d="M15.8546 13.0699C18.4387 9.22436 17.4156 4.00975 13.57 1.42565C9.72448 -1.15845 4.50986 -0.135356 1.92576 3.71232C-0.65834 7.55999 0.364753 12.7725 4.21032 15.3566C7.03912 17.2572 10.7391 17.2572 13.5679 15.3566L16.7427 18.5271C17.3734 19.1579 18.3965 19.1579 19.0272 18.5271C19.658 17.8964 19.658 16.8733 19.0272 16.2426L15.8546 13.0699ZM8.89756 14.8419C5.33889 14.8419 2.45313 11.9561 2.45313 8.39745C2.45313 4.83877 5.33889 1.95302 8.89756 1.95302C12.4562 1.95302 15.342 4.83877 15.342 8.39745C15.3378 11.9561 12.4562 14.8377 8.89756 14.8419Z" fill="#00B2DB"/>
</g>
<defs>
<clipPath id="clip0">
<rect width="19" height="19" fill="white" transform="translate(0.5)"/>
</clipPath>
</defs>
</svg>
