<svg width="56" height="51" viewBox="0 0 56 51" fill="none" xmlns="http://www.w3.org/2000/svg">
<path fill-rule="evenodd" clip-rule="evenodd" d="M47.0133 33.8094H22.3011C17.3384 33.8094 13.3143 29.7962 13.3143 24.847V8.96241C13.3143 4.01319 17.3384 0 22.3011 0H47.0133C51.976 0 56 4.01319 56 8.96241V24.847C56.0057 29.7962 51.9816 33.8094 47.0133 33.8094Z" fill="#F1FCFF"/>
<path d="M25.5216 22.7674C25.7014 23.0477 25.9937 23.227 26.3309 23.2606C26.3702 23.2662 26.4096 23.2663 26.4489 23.2663C26.7524 23.2663 27.039 23.1429 27.2414 22.9243L34.7107 15.4697C37.1667 13.0203 37.1667 9.02953 34.7107 6.58014C33.5192 5.39188 31.9399 4.7417 30.2538 4.7417C28.8825 4.7417 27.5449 5.1901 26.4602 6.00843C25.3698 5.1901 24.0322 4.7417 22.6609 4.7417C20.9748 4.7417 19.3955 5.39748 18.204 6.58014C17.0125 7.7684 16.3606 9.34341 16.3606 11.0249C16.3606 12.7064 17.0182 14.2814 18.204 15.4697L25.5216 22.7674ZM22.6665 6.92765C23.7568 6.92765 24.7853 7.35924 25.5722 8.14394L25.6846 8.25604C26.1117 8.68202 26.8086 8.68202 27.2358 8.25604L27.3482 8.14394C28.1294 7.36484 29.1635 6.93326 30.2538 6.93326C31.3441 6.93326 32.3783 7.36484 33.1595 8.14394C33.9407 8.92303 34.3735 9.95436 34.3735 11.0417C34.3735 12.1291 33.9407 13.1604 33.1595 13.9395L26.4658 20.6207L19.7608 13.9339C18.9796 13.1548 18.5469 12.1235 18.5469 11.0361C18.5469 9.94875 18.9796 8.91743 19.7608 8.13833C20.5421 7.35924 21.5762 6.92765 22.6665 6.92765Z" fill="#223A7A"/>
<path d="M45.2373 23.2551C44.4561 22.476 43.4107 22.0444 42.2979 22.0444C41.1851 22.0444 40.1454 22.476 39.3585 23.2551L34.868 27.7335C34.0418 26.6181 32.7604 25.9679 31.3722 25.9679H18.277C14.5452 25.9679 12.4713 28.0362 10.9595 29.5495L7.64353 32.8565L6.78363 31.9989C6.57568 31.7915 6.30029 31.6738 6.00804 31.6738C5.73264 31.6738 5.46849 31.7747 5.26616 31.9597L0.325974 36.8865C0.118025 37.0939 0 37.3685 0 37.66C0 37.9514 0.112405 38.2261 0.325974 38.4391L12.6006 50.6804C12.8141 50.8934 13.0952 50.9999 13.3762 50.9999C13.6572 50.9999 13.9382 50.8934 14.1574 50.6748L19.0638 45.7816C19.491 45.3557 19.4966 44.6606 19.0695 44.2291L18.2096 43.3715L19.1763 42.4074C19.9237 41.6564 20.379 41.2023 21.5649 41.2023H33.0189C35.8627 41.2023 38.3019 39.8515 40.0723 37.2901C41.0558 35.8664 42.0169 34.2914 42.9499 32.7668C43.821 31.3431 44.6416 29.9923 45.3666 28.961C45.996 28.0698 46.3501 27.0945 46.3838 26.1417C46.4119 25.0599 46.0073 24.0286 45.2373 23.2551ZM16.6415 41.8301L9.19471 34.4035L12.6062 30.9956C14.1967 29.4094 15.45 28.1539 18.2714 28.1539H31.3666C32.5861 28.1539 33.536 29.1067 33.536 30.3174C33.536 31.5337 32.5805 32.4922 31.3666 32.4922H24.004C23.5825 32.4922 23.324 32.6827 23.1779 32.8397C22.998 33.0415 22.9025 33.3049 22.9025 33.5851C22.9025 34.1288 23.279 34.6837 24.004 34.6837H31.3722C33.7833 34.6837 35.7391 32.7276 35.7391 30.3174C35.7391 30.1997 35.7335 30.0876 35.7222 29.9699L40.9097 24.8021C41.6628 24.051 42.9274 24.051 43.6805 24.8021C44.0402 25.1608 44.1919 25.5532 44.1751 26.0744C44.1582 26.5845 43.9334 27.1842 43.5569 27.7111C42.7419 28.8601 41.882 30.2726 40.9715 31.7691C40.0835 33.232 39.1618 34.7398 38.2513 36.057C36.8519 38.0804 35.1827 39.022 33.002 39.022H21.5536C19.4629 39.022 18.2377 40.2439 17.5014 40.9781L16.6415 41.8301ZM16.7258 45.0138L13.3649 48.3599L2.64713 37.6712L6.00242 34.325L16.7258 45.0138Z" fill="#223A7A"/>
</svg>
