<svg width="38" height="37" viewBox="0 0 38 37" fill="none" xmlns="http://www.w3.org/2000/svg">
<path fill-rule="evenodd" clip-rule="evenodd" d="M31.9018 24.5284H15.1328C11.7653 24.5284 9.03467 21.6169 9.03467 18.0263V6.50214C9.03467 2.91153 11.7653 0 15.1328 0H31.9018C35.2693 0 38 2.91153 38 6.50214V18.0263C38.0038 21.6169 35.2732 24.5284 31.9018 24.5284Z" fill="#F1FCFF"/>
<path d="M17.3182 16.5179C17.4402 16.7212 17.6385 16.8513 17.8674 16.8757C17.8941 16.8798 17.9208 16.8798 17.9475 16.8798C18.1534 16.8798 18.3479 16.7903 18.4852 16.6318L23.5536 11.2235C25.2202 9.44647 25.2202 6.55121 23.5536 4.7742C22.7451 3.91213 21.6735 3.44043 20.5294 3.44043C19.5988 3.44043 18.6911 3.76574 17.9551 4.35943C17.2152 3.76574 16.3076 3.44043 15.377 3.44043C14.2329 3.44043 13.1612 3.9162 12.3527 4.7742C11.5442 5.63627 11.1018 6.77893 11.1018 7.99884C11.1018 9.21875 11.548 10.3614 12.3527 11.2235L17.3182 16.5179ZM15.3808 5.02632C16.1207 5.02632 16.8186 5.33943 17.3525 5.90872L17.4288 5.99005C17.7186 6.29909 18.1915 6.29909 18.4814 5.99005L18.5577 5.90872C19.0878 5.34349 19.7895 5.03038 20.5294 5.03038C21.2692 5.03038 21.9709 5.34349 22.5011 5.90872C23.0312 6.47395 23.3248 7.22216 23.3248 8.01104C23.3248 8.79992 23.0312 9.54813 22.5011 10.1134L17.9589 14.9605L13.4091 10.1093C12.879 9.54406 12.5853 8.79585 12.5853 8.00697C12.5853 7.2181 12.879 6.46988 13.4091 5.90465C13.9392 5.33943 14.641 5.02632 15.3808 5.02632Z" fill="#223A7A"/>
<path d="M30.6967 16.8715C30.1666 16.3063 29.4573 15.9932 28.7022 15.9932C27.947 15.9932 27.2415 16.3063 26.7076 16.8715L23.6604 20.1205C23.0998 19.3113 22.2303 18.8396 21.2883 18.8396H12.4023C9.86994 18.8396 8.46267 20.3401 7.43678 21.438L5.18668 23.8372L4.60318 23.2151C4.46207 23.0646 4.2752 22.9792 4.07688 22.9792C3.89001 22.9792 3.71076 23.0524 3.57347 23.1866L0.221197 26.7609C0.0800884 26.9114 0 27.1106 0 27.3221C0 27.5335 0.0762746 27.7328 0.221197 27.8873L8.55039 36.7683C8.69531 36.9228 8.886 37.0001 9.07668 37.0001C9.26737 37.0001 9.45806 36.9228 9.60679 36.7642L12.9362 33.2143C13.226 32.9052 13.2298 32.401 12.94 32.0879L12.3565 31.4657L13.0125 30.7663C13.5197 30.2214 13.8286 29.892 14.6333 29.892H22.4057C24.3354 29.892 25.9906 28.912 27.1919 27.0537C27.8593 26.0209 28.5115 24.8782 29.1446 23.7721C29.7357 22.7393 30.2925 21.7593 30.7845 21.0111C31.2116 20.3645 31.4519 19.657 31.4747 18.9657C31.4938 18.1809 31.2192 17.4327 30.6967 16.8715ZM11.2925 30.3475L6.23927 24.9595L8.5542 22.4872C9.63349 21.3364 10.484 20.4255 12.3984 20.4255H21.2844C22.112 20.4255 22.7565 21.1168 22.7565 21.9951C22.7565 22.8775 22.1082 23.5729 21.2844 23.5729H16.2885C16.0024 23.5729 15.827 23.7111 15.7278 23.825C15.6058 23.9714 15.541 24.1625 15.541 24.3658C15.541 24.7603 15.7965 25.1628 16.2885 25.1628H21.2883C22.9244 25.1628 24.2515 23.7437 24.2515 21.9951C24.2515 21.9097 24.2477 21.8284 24.2401 21.743L27.7602 17.9938C28.2712 17.4489 29.1293 17.4489 29.6403 17.9938C29.8844 18.2541 29.9874 18.5387 29.9759 18.9169C29.9645 19.2869 29.812 19.722 29.5564 20.1043C29.0034 20.9379 28.4199 21.9626 27.8021 23.0483C27.1995 24.1097 26.5741 25.2035 25.9563 26.1591C25.0066 27.6271 23.874 28.3102 22.3942 28.3102H14.6257C13.207 28.3102 12.3756 29.1967 11.876 29.7294L11.2925 30.3475ZM11.3497 32.6572L9.06906 35.0848L1.79627 27.3302L4.07307 24.9026L11.3497 32.6572Z" fill="#223A7A"/>
</svg>
