<svg width="66" height="63" viewBox="0 0 66 63" fill="none" xmlns="http://www.w3.org/2000/svg">
<path fill-rule="evenodd" clip-rule="evenodd" d="M55.4085 41.7646H26.2834C20.4346 41.7646 15.6919 36.8071 15.6919 30.6934V11.0712C15.6919 4.95747 20.4346 0 26.2834 0H55.4085C61.2574 0 66.0001 4.95747 66.0001 11.0712V30.6934C66.0067 36.8071 61.264 41.7646 55.4085 41.7646Z" fill="#F1FCFF"/>
<path d="M30.0791 28.1245C30.2911 28.4707 30.6355 28.6922 31.0329 28.7338C31.0793 28.7407 31.1257 28.7407 31.172 28.7407C31.5297 28.7407 31.8675 28.5884 32.106 28.3183L40.9091 19.1096C43.8037 16.0839 43.8037 11.1542 40.9091 8.12844C39.5048 6.66059 37.6435 5.85742 35.6564 5.85742C34.0402 5.85742 32.4637 6.41133 31.1853 7.42221C29.9003 6.41133 28.3238 5.85742 26.7076 5.85742C24.7204 5.85742 22.8591 6.66751 21.4548 8.12844C20.0506 9.59629 19.2822 11.5419 19.2822 13.619C19.2822 15.6962 20.0572 17.6418 21.4548 19.1096L30.0791 28.1245ZM26.7142 8.55772C27.9992 8.55772 29.2114 9.09085 30.1387 10.0602L30.2712 10.1987C30.7746 10.7249 31.596 10.7249 32.0994 10.1987L32.2319 10.0602C33.1526 9.09777 34.3714 8.56464 35.6564 8.56464C36.9414 8.56464 38.1602 9.09777 39.0809 10.0602C40.0016 11.0226 40.5117 12.2966 40.5117 13.6398C40.5117 14.983 40.0016 16.257 39.0809 17.2194L31.1919 25.4726L23.2897 17.2125C22.3689 16.2501 21.8589 14.9761 21.8589 13.6329C21.8589 12.2897 22.3689 11.0157 23.2897 10.0533C24.2104 9.09085 25.4292 8.55772 26.7142 8.55772Z" fill="#223A7A"/>
<path d="M53.3154 28.727C52.3947 27.7646 51.1626 27.2314 49.8511 27.2314C48.5396 27.2314 47.3142 27.7646 46.3868 28.727L41.0944 34.2591C40.1207 32.8813 38.6104 32.0781 36.9743 32.0781H21.5408C17.1425 32.0781 14.6983 34.633 12.9165 36.5025L9.00844 40.5875L7.99499 39.5282C7.74991 39.272 7.42534 39.1266 7.0809 39.1266C6.75633 39.1266 6.44501 39.2512 6.20655 39.4797L0.384183 45.5657C0.139101 45.8219 0 46.1612 0 46.5212C0 46.8813 0.132477 47.2205 0.384183 47.4837L14.8507 62.6053C15.1024 62.8684 15.4336 63 15.7648 63C16.096 63 16.4272 62.8684 16.6855 62.5984L22.4681 56.5539C22.9715 56.0277 22.9781 55.1691 22.4747 54.636L21.4613 53.5766L22.6006 52.3857C23.4816 51.4579 24.0181 50.8971 25.4157 50.8971H38.9151C42.2668 50.8971 45.1416 49.2285 47.2281 46.0643C48.3872 44.3056 49.5199 42.36 50.6195 40.4767C51.6462 38.7181 52.6133 37.0494 53.4677 35.7755C54.2096 34.6746 54.6269 33.4698 54.6667 32.2928C54.6998 30.9565 54.2229 29.6825 53.3154 28.727ZM19.6132 51.6726L10.8366 42.4985L14.8573 38.2888C16.7319 36.3294 18.209 34.7784 21.5341 34.7784H36.9677C38.4051 34.7784 39.5245 35.9555 39.5245 37.451C39.5245 38.9535 38.3985 40.1375 36.9677 40.1375H28.2905C27.7937 40.1375 27.489 40.3729 27.3168 40.5667C27.1048 40.816 26.9922 41.1414 26.9922 41.4876C26.9922 42.1592 27.436 42.8447 28.2905 42.8447H36.9743C39.816 42.8447 42.1211 40.4283 42.1211 37.451C42.1211 37.3056 42.1145 37.1671 42.1012 37.0217L48.215 30.638C49.1026 29.7102 50.593 29.7102 51.4806 30.638C51.9045 31.0811 52.0834 31.5658 52.0635 32.2097C52.0436 32.8398 51.7787 33.5806 51.3349 34.2314C50.3744 35.6508 49.361 37.3956 48.2879 39.2443C47.2413 41.0514 46.155 42.9139 45.0819 44.541C43.4326 47.0405 41.4653 48.2037 38.8953 48.2037H25.4025C22.9384 48.2037 21.4944 49.7131 20.6267 50.6201L19.6132 51.6726ZM19.7126 55.6053L15.7515 59.7388L3.11983 46.5351L7.07428 42.4016L19.7126 55.6053Z" fill="#223A7A"/>
</svg>
