<svg width="37" height="31" viewBox="0 0 37 31" fill="none" xmlns="http://www.w3.org/2000/svg">
<path d="M23.6087 25C30.5123 25 36.1087 19.4036 36.1087 12.5C36.1087 5.59644 30.5123 0 23.6087 0C16.7051 0 11.1087 5.59644 11.1087 12.5C11.1087 19.4036 16.7051 25 23.6087 25Z" fill="#C7F8FF"/>
<path d="M14.5892 31C14.1405 31.0001 13.7101 30.8252 13.3919 30.5136L2.46802 19.7523L2.21775 19.5058L1.96071 19.2459C1.8289 19.1152 1.71928 18.9645 1.63604 18.7995C0.403113 17.1012 -0.112974 14.998 0.19639 12.9325C0.505753 10.867 1.61644 9.00019 3.29471 7.72505C4.97298 6.44991 7.08794 5.86585 9.19451 6.09577C11.3011 6.32569 13.235 7.35168 14.5892 8.9578C15.9381 7.33325 17.877 6.29092 19.9937 6.0523C22.1104 5.81369 24.2382 6.3976 25.9248 7.67995C27.6114 8.96231 28.724 10.842 29.026 12.9196C29.328 14.9973 28.7958 17.109 27.5423 18.8062C27.4607 18.9684 27.3534 19.1169 27.2244 19.2459L26.9268 19.5391L26.6832 19.7723L15.7864 30.5136C15.4682 30.8252 15.0378 31.0001 14.5892 31ZM4.59869 17.147L4.79484 17.3402L14.5892 26.982L24.3226 17.3935L24.512 17.207L24.5661 17.1537C24.6051 17.0932 24.648 17.0354 24.6946 16.9804C25.4393 16.1275 25.8496 15.0403 25.8513 13.9153C25.8527 12.707 25.3854 11.5437 24.5449 10.6636C23.7045 9.7835 22.5544 9.253 21.33 9.18065C20.1056 9.10829 18.8994 9.49956 17.9582 10.2744C17.017 11.0492 16.4118 12.1491 16.2666 13.3489C16.2171 13.7529 16.0191 14.1251 15.71 14.3952C15.401 14.6652 15.0023 14.8145 14.5892 14.8148C14.176 14.8145 13.7773 14.6652 13.4683 14.3952C13.1593 14.1251 12.9613 13.7529 12.9117 13.3489C12.8248 12.6133 12.564 11.9081 12.1503 11.2897C11.7367 10.6714 11.1816 10.1572 10.5297 9.78839C9.87781 9.4196 9.14723 9.20649 8.3966 9.16616C7.64597 9.12583 6.8962 9.25941 6.20746 9.55618C5.51872 9.85295 4.91019 10.3046 4.43071 10.875C3.95124 11.4454 3.61417 12.1185 3.44655 12.8404C3.27894 13.5623 3.28546 14.3129 3.46557 15.0319C3.64569 15.7508 3.99439 16.4182 4.4837 16.9804C4.53105 17.0337 4.59869 17.0937 4.59869 17.147Z" fill="#223A7A"/>
</svg>
