<svg width="32" height="34" viewBox="0 0 32 34" fill="none" xmlns="http://www.w3.org/2000/svg">
<path d="M17.3182 13.5179C17.4402 13.7212 17.6385 13.8513 17.8674 13.8757C17.8941 13.8798 17.9208 13.8798 17.9475 13.8798C18.1534 13.8798 18.3479 13.7903 18.4852 13.6318L23.5536 8.22348C25.2202 6.44647 25.2202 3.55121 23.5536 1.7742C22.7451 0.912129 21.6735 0.44043 20.5294 0.44043C19.5988 0.44043 18.6911 0.76574 17.9551 1.35943C17.2152 0.76574 16.3076 0.44043 15.377 0.44043C14.2329 0.44043 13.1612 0.916195 12.3527 1.7742C11.5442 2.63627 11.1018 3.77893 11.1018 4.99884C11.1018 6.21875 11.548 7.36141 12.3527 8.22348L17.3182 13.5179ZM15.3808 2.02632C16.1207 2.02632 16.8186 2.33943 17.3525 2.90872L17.4288 2.99005C17.7186 3.29909 18.1915 3.29909 18.4814 2.99005L18.5577 2.90872C19.0878 2.34349 19.7895 2.03038 20.5294 2.03038C21.2692 2.03038 21.9709 2.34349 22.5011 2.90872C23.0312 3.47395 23.3248 4.22216 23.3248 5.01104C23.3248 5.79992 23.0312 6.54813 22.5011 7.11336L17.9589 11.9605L13.4091 7.10929C12.879 6.54406 12.5853 5.79585 12.5853 5.00697C12.5853 4.2181 12.879 3.46988 13.4091 2.90465C13.9392 2.33943 14.641 2.02632 15.3808 2.02632Z" fill="#223A7A"/>
<path d="M30.6967 13.8715C30.1666 13.3063 29.4573 12.9932 28.7022 12.9932C27.947 12.9932 27.2415 13.3063 26.7076 13.8715L23.6604 17.1205C23.0998 16.3113 22.2303 15.8396 21.2883 15.8396H12.4023C9.86994 15.8396 8.46267 17.3401 7.43678 18.438L5.18668 20.8372L4.60318 20.2151C4.46207 20.0646 4.2752 19.9792 4.07688 19.9792C3.89001 19.9792 3.71076 20.0524 3.57347 20.1866L0.221197 23.7609C0.0800884 23.9114 0 24.1106 0 24.3221C0 24.5335 0.0762746 24.7328 0.221197 24.8873L8.55039 33.7683C8.69531 33.9228 8.886 34.0001 9.07668 34.0001C9.26737 34.0001 9.45806 33.9228 9.60679 33.7642L12.9362 30.2143C13.226 29.9052 13.2298 29.401 12.94 29.0879L12.3565 28.4657L13.0125 27.7663C13.5197 27.2214 13.8286 26.892 14.6333 26.892H22.4057C24.3354 26.892 25.9906 25.912 27.1919 24.0537C27.8593 23.0209 28.5115 21.8782 29.1446 20.7721C29.7357 19.7393 30.2925 18.7593 30.7845 18.0111C31.2116 17.3645 31.4519 16.657 31.4747 15.9657C31.4938 15.1809 31.2192 14.4327 30.6967 13.8715ZM11.2925 27.3475L6.23927 21.9595L8.5542 19.4872C9.63349 18.3364 10.484 17.4255 12.3984 17.4255H21.2844C22.112 17.4255 22.7565 18.1168 22.7565 18.9951C22.7565 19.8775 22.1082 20.5729 21.2844 20.5729H16.2885C16.0024 20.5729 15.827 20.7111 15.7278 20.825C15.6058 20.9714 15.541 21.1625 15.541 21.3658C15.541 21.7603 15.7965 22.1628 16.2885 22.1628H21.2883C22.9244 22.1628 24.2515 20.7437 24.2515 18.9951C24.2515 18.9097 24.2477 18.8284 24.2401 18.743L27.7602 14.9938C28.2712 14.4489 29.1293 14.4489 29.6403 14.9938C29.8844 15.2541 29.9874 15.5387 29.9759 15.9169C29.9645 16.2869 29.812 16.722 29.5564 17.1043C29.0034 17.9379 28.4199 18.9626 27.8021 20.0483C27.1995 21.1097 26.5741 22.2035 25.9563 23.1591C25.0066 24.6271 23.874 25.3102 22.3942 25.3102H14.6257C13.207 25.3102 12.3756 26.1967 11.876 26.7294L11.2925 27.3475ZM11.3497 29.6572L9.06906 32.0848L1.79627 24.3302L4.07307 21.9026L11.3497 29.6572Z" fill="#223A7A"/>
</svg>
