<svg width="27" height="23" viewBox="0 0 27 23" fill="none" xmlns="http://www.w3.org/2000/svg">
<path d="M17.0173 18.6802C22.0164 18.6802 26.069 14.6507 26.069 9.68018C26.069 4.70961 22.0164 0.680176 17.0173 0.680176C12.0182 0.680176 7.96558 4.70961 7.96558 9.68018C7.96558 14.6507 12.0182 18.6802 17.0173 18.6802Z" fill="#F1FCFF"/>
<path d="M10.4858 23C10.161 23 9.84928 22.8741 9.61889 22.6498L1.70847 14.9017L1.52724 14.7242L1.34111 14.5371C1.24566 14.443 1.16628 14.3344 1.106 14.2156C0.213193 12.9929 -0.160525 11.4786 0.0634968 9.99139C0.287519 8.5042 1.09181 7.16013 2.30711 6.24204C3.52241 5.32394 5.05393 4.90341 6.57937 5.06895C8.10482 5.2345 9.50521 5.97321 10.4858 7.12962C11.4627 5.95994 12.8667 5.20946 14.3995 5.03766C15.9323 4.86585 17.4731 5.28627 18.6944 6.20957C19.9158 7.13286 20.7214 8.48625 20.9401 9.98214C21.1588 11.478 20.7734 12.9985 19.8657 14.2204C19.8066 14.3373 19.7289 14.4442 19.6355 14.5371L19.42 14.7482L19.2436 14.9161L11.3528 22.6498C11.1224 22.8741 10.8107 23 10.4858 23ZM3.25137 13.0258L3.39341 13.165L10.4858 20.1071L17.5342 13.2033L17.6714 13.069L17.7105 13.0306C17.7388 12.9871 17.7698 12.9455 17.8036 12.9059C18.3429 12.2918 18.64 11.509 18.6412 10.699C18.6422 9.82901 18.3038 8.99149 17.6952 8.35781C17.0866 7.72412 16.2538 7.34216 15.3672 7.29007C14.4805 7.23797 13.6071 7.51968 12.9255 8.07756C12.2439 8.63544 11.8057 9.42733 11.7006 10.2912C11.6647 10.5821 11.5213 10.8501 11.2975 11.0445C11.0737 11.239 10.785 11.3465 10.4858 11.3467C10.1867 11.3465 9.89797 11.239 9.67419 11.0445C9.4504 10.8501 9.30702 10.5821 9.27112 10.2912C9.20818 9.7616 9.01935 9.25381 8.71979 8.8086C8.42024 8.3634 8.0183 7.99317 7.54624 7.72764C7.07418 7.46211 6.54514 7.30867 6.00158 7.27964C5.45802 7.2506 4.91508 7.34678 4.41634 7.56045C3.9176 7.77413 3.47694 8.09934 3.12973 8.51C2.78252 8.92066 2.53844 9.40533 2.41706 9.9251C2.29569 10.4449 2.30041 10.9853 2.43084 11.5029C2.56127 12.0206 2.81378 12.5011 3.1681 12.9059C3.20239 12.9443 3.25137 12.9875 3.25137 13.0258Z" fill="#232323"/>
</svg>
