<svg width="23" height="23" viewBox="0 0 23 23" fill="none" xmlns="http://www.w3.org/2000/svg">
<path d="M23 18.5L18.5 18L18.3188 23L13.2626 16.6228C15.5367 15.8737 17.5295 14.2375 18.9753 12L23 18.5ZM5.0247 12.0099L0.5 18.5L5.0247 18L5.68897 23L10.7374 16.6228C8.46327 15.8737 6.47046 14.2375 5.0247 12.0099Z" fill="#72D9F1"/>
<path d="M11.5036 0C6.73681 0 2.87592 3.86687 2.87592 8.62499C2.87592 13.3903 6.73681 17.25 11.5036 17.25C16.2632 17.25 20.1313 13.3903 20.1313 8.62499C20.1313 3.86687 16.2632 0 11.5036 0ZM15.9469 7.82718L13.9769 9.74624C13.9194 9.79656 13.8978 9.87562 13.9122 9.94749L14.3795 12.6572C14.4155 12.8441 14.2141 12.9878 14.0416 12.9016L11.6115 11.6222C11.5468 11.5862 11.4605 11.5862 11.3958 11.6222L8.96563 12.9016C8.79308 12.9878 8.59895 12.8441 8.62771 12.6572L9.09505 9.94749C9.10943 9.87562 9.08067 9.79656 9.03034 9.74624L7.06035 7.82718C6.92374 7.69062 6.99564 7.46062 7.18976 7.43187L9.90749 7.03656C9.97939 7.02218 10.0513 6.97906 10.08 6.90718L11.2951 4.44187C11.3814 4.26937 11.6258 4.26937 11.7121 4.44187L12.9272 6.90718C12.9631 6.97187 13.0278 7.02218 13.0997 7.03656L15.8175 7.43187C16.0116 7.46062 16.0835 7.69781 15.9469 7.82718Z" fill="#FFBF47"/>
<path d="M11.5 3.3335L13.3556 6.27943L16.7308 7.1339L14.5025 9.80907L14.7328 13.2831L11.5 11.9905L8.26719 13.2831L8.49752 9.80907L6.2692 7.1339L9.64437 6.27943L11.5 3.3335Z" fill="white"/>
</svg>
