<svg width="35" height="13" viewBox="0 0 35 13" fill="none" xmlns="http://www.w3.org/2000/svg">
<path d="M13.0701 7.62598C11.7804 8.99764 9.62053 9.07953 8.23864 7.78976L5.61816 10.5945C8.54572 13.3276 13.1315 13.174 15.8646 10.2465C18.5977 7.3189 18.4441 2.73307 15.5166 0L12.8961 2.80472C14.278 4.08425 14.3599 6.25433 13.0701 7.62598Z" fill="#00CFFF"/>
<path d="M1.95289 2.75355C-0.780185 5.68111 -0.626642 10.2669 2.30092 13L4.92139 10.1953C3.54974 8.90552 3.46785 6.74567 4.75761 5.36378C6.04737 3.99213 8.20721 3.91024 9.5891 5.20001L12.2096 2.39528C9.28202 -0.327554 4.69619 -0.17401 1.95289 2.75355Z" fill="#FF0060"/>
<path d="M24 3H35" stroke="#223A7A" stroke-width="2"/>
<path d="M24 7H35" stroke="#223A7A" stroke-width="2"/>
<path d="M24 11H35" stroke="#223A7A" stroke-width="2"/>
</svg>
