<svg width="42" height="43" viewBox="0 0 42 43" fill="none" xmlns="http://www.w3.org/2000/svg">
<g clip-path="url(#clip0)">
<g clip-path="url(#clip1)">
<path d="M26.4915 31.9152C34.8472 31.9152 41.6208 25.2371 41.6208 16.9993C41.6208 8.76154 34.8472 2.0835 26.4915 2.0835C18.1358 2.0835 11.3622 8.76154 11.3622 16.9993C11.3622 25.2371 18.1358 31.9152 26.4915 31.9152Z" fill="#FFE1EC"/>
<path d="M52.9914 -12.4287H-23.9143V63.3919H52.9914V-12.4287Z" stroke="#D60051" stroke-miterlimit="10"/>
<path d="M11.2798 11.3081C12.115 11.3081 12.7921 11.9756 12.7921 12.7991C12.7921 13.6225 12.115 14.29 11.2798 14.29H3.43356H2.86407V14.8515V38.3762V38.9377H3.43356H27.1557H27.7252V38.3762V32.5184C27.7252 31.695 28.4023 31.0275 29.2375 31.0275C30.0728 31.0275 30.7498 31.695 30.7498 32.5184V40.4286C30.7498 41.2521 30.0728 41.9196 29.2375 41.9196H1.35177C0.516531 41.9196 -0.160522 41.2521 -0.160522 40.4286V12.7991C-0.160522 11.9756 0.516531 11.3081 1.35177 11.3081H11.2798Z" fill="#D60051"/>
<path d="M23.8402 8.26858L35.6854 12.991C35.9322 13.0908 36.0208 13.3903 35.8626 13.6024L28.3517 23.7895C28.1492 24.064 27.719 23.9892 27.6241 23.6648L26.7192 20.5518C26.6559 20.3397 26.4345 20.215 26.2193 20.2712C24.34 20.7827 16.5128 23.2156 11.6848 29.4914C11.4317 29.822 10.8939 29.6161 10.9445 29.2044C11.9696 21.001 18.835 15.4364 24.0363 12.4046C24.1945 12.311 24.2704 12.1239 24.2198 11.9492L23.2896 8.75519C23.1947 8.4308 23.5238 8.14382 23.8402 8.26858Z" fill="#D60051"/>
</g>
</g>
<defs>
<clipPath id="clip0">
<rect width="42" height="43" fill="white"/>
</clipPath>
<clipPath id="clip1">
<rect width="77.5385" height="76.4444" fill="white" transform="translate(-24.2307 -12.7407)"/>
</clipPath>
</defs>
</svg>
