<svg width="31" height="35" viewBox="0 0 31 35" fill="none" xmlns="http://www.w3.org/2000/svg">
<g clip-path="url(#clip0)">
<path fill-rule="evenodd" clip-rule="evenodd" d="M25.3095 28.8719H13.2562C10.1666 28.8719 7.66406 26.4594 7.66406 23.481V5.39092C7.66406 2.41251 10.1666 0 13.2562 0H25.3095C28.3991 0 30.9017 2.41251 30.9017 5.39092V23.4773C30.9017 26.4557 28.3991 28.8719 25.3095 28.8719Z" fill="#FAEBC6"/>
<path d="M1.93276 4.56732C1.39209 4.56732 0.901611 5.04014 0.901611 5.56136V34.0126C0.913197 34.4817 1.29167 35.0066 1.93276 35.0066H23.8959C24.4366 35.0066 24.9271 34.5338 24.9271 34.0126V10.1928C24.9232 9.93589 24.8151 9.68273 24.6259 9.50031L19.8215 4.86888C19.6323 4.68273 19.362 4.57104 19.0916 4.56732H1.93276ZM2.96006 6.55169H18.0605V10.1891C18.0527 10.673 18.5123 11.1831 19.0916 11.1831H22.8648V33.0186H2.96006V6.55169ZM20.1189 7.95525L21.405 9.19502H20.1189V7.95525ZM16.6006 10.5093C16.338 10.5316 16.087 10.6582 15.9132 10.8518L11.7307 15.4534L9.75717 14.0275C9.32849 13.7036 8.62561 13.7966 8.29734 14.2136C7.96907 14.6306 8.07334 15.297 8.51361 15.6098L11.2595 17.5941C11.6689 17.892 12.3138 17.8324 12.6537 17.4601L17.458 12.166C17.7322 11.8719 17.8017 11.4139 17.6202 11.0602C17.4348 10.7028 17.01 10.472 16.6006 10.5093ZM6.04965 19.7833C5.48194 19.7833 5.0185 20.2263 5.0185 20.7773C5.0185 21.3246 5.47808 21.7713 6.04965 21.7713H19.7752C20.3429 21.7713 20.8063 21.3283 20.8063 20.7773C20.8063 20.23 20.3468 19.7833 19.7752 19.7833H6.04965ZM6.04965 24.4147C5.48194 24.4147 5.0185 24.8577 5.0185 25.4087C5.0185 25.956 5.47808 26.4028 6.04965 26.4028H19.7752C20.3429 26.4028 20.8063 25.9597 20.8063 25.4087C20.8063 24.8614 20.3468 24.4147 19.7752 24.4147H6.04965ZM6.04965 29.0461C5.48194 29.0461 5.0185 29.4892 5.0185 30.0402C5.0185 30.5874 5.47808 31.0342 6.04965 31.0342H19.7752C20.3429 31.0342 20.8063 30.5912 20.8063 30.0402C20.8063 29.4929 20.3468 29.0461 19.7752 29.0461H6.04965Z" fill="#232323"/>
</g>
<defs>
<clipPath id="clip0">
<rect width="30" height="35" fill="white" transform="translate(0.901611)"/>
</clipPath>
</defs>
</svg>
