<svg width="121" height="120" viewBox="0 0 121 120" fill="none" xmlns="http://www.w3.org/2000/svg">
<path d="M66.5752 46.4031C67.0444 47.1246 67.8068 47.5863 68.6864 47.6729C68.789 47.6873 68.8917 47.6873 68.9943 47.6873C69.786 47.6873 70.5337 47.3699 71.0615 46.8071L90.5458 27.6168C96.9526 21.3114 96.9526 11.0381 90.5458 4.73266C87.4377 1.67374 83.318 0 78.9197 0C75.3425 0 71.8532 1.15431 69.0236 3.26092C66.1794 1.15431 62.6901 0 59.1128 0C54.7146 0 50.5949 1.68817 47.4868 4.73266C44.3786 7.79157 42.678 11.8461 42.678 16.1747C42.678 20.5034 44.3933 24.5579 47.4868 27.6168L66.5752 46.4031ZM59.1275 5.62724C61.9717 5.62724 64.6547 6.73826 66.7072 8.7583L67.0004 9.04688C68.1146 10.1435 69.9326 10.1435 71.0468 9.04688L71.34 8.7583C73.3779 6.75269 76.0755 5.64167 78.9197 5.64167C81.7639 5.64167 84.4615 6.75269 86.4994 8.7583C88.5373 10.7639 89.6662 13.4188 89.6662 16.218C89.6662 19.0172 88.5373 21.6721 86.4994 23.6777L69.0383 40.8769L51.5478 23.6633C49.51 21.6577 48.3811 19.0028 48.3811 16.2036C48.3811 13.4044 49.51 10.7495 51.5478 8.74387C53.5857 6.73826 56.2833 5.62724 59.1275 5.62724Z" fill="#4D6EC5"/>
<path d="M118.006 47.6581C115.968 45.6525 113.241 44.5415 110.338 44.5415C107.435 44.5415 104.723 45.6525 102.67 47.6581L90.9562 59.1868C88.8011 56.3154 85.4584 54.6417 81.8372 54.6417H47.6773C37.9424 54.6417 32.5325 59.9659 28.5888 63.8617L19.9388 72.3747L17.6957 70.1671C17.1533 69.6332 16.4349 69.3302 15.6725 69.3302C14.9541 69.3302 14.2651 69.59 13.7373 70.0661L0.850332 82.749C0.307879 83.2829 0 83.9899 0 84.7402C0 85.4905 0.293218 86.1975 0.850332 86.7458L32.8697 118.258C33.4269 118.807 34.1599 119.081 34.8929 119.081C35.626 119.081 36.359 118.807 36.9308 118.244L49.7298 105.648C50.844 104.551 50.8587 102.762 49.7444 101.651L47.5013 99.4432L50.023 96.9615C51.9729 95.028 53.1604 93.8593 56.2539 93.8593H86.1328C93.5512 93.8593 99.9141 90.3819 104.532 83.7879C107.098 80.123 109.605 76.0685 112.039 72.1439C114.311 68.4789 116.452 65.0016 118.343 62.3467C119.985 60.0525 120.908 57.5419 120.996 55.089C121.07 52.3042 120.014 49.6493 118.006 47.6581ZM43.4109 95.4753L23.9852 76.3571L32.8844 67.5844C37.0334 63.501 40.3028 60.2689 47.6626 60.2689H81.8225C85.0039 60.2689 87.4816 62.7218 87.4816 65.8385C87.4816 68.9695 84.9892 71.4368 81.8225 71.4368H62.6167C61.5171 71.4368 60.8427 71.9274 60.4616 72.3314C59.9924 72.8509 59.7432 73.529 59.7432 74.2505C59.7432 75.6501 60.7255 77.0785 62.6167 77.0785H81.8372C88.1267 77.0785 93.2287 72.0429 93.2287 65.8385C93.2287 65.5355 93.214 65.2469 93.1847 64.9439L106.717 51.6405C108.681 49.707 111.98 49.707 113.945 51.6405C114.883 52.5639 115.279 53.574 115.235 54.9158C115.191 56.2289 114.604 57.7727 113.622 59.1291C111.496 62.087 109.253 65.723 106.878 69.5755C104.562 73.3415 102.157 77.2228 99.7821 80.6136C96.1315 85.8224 91.7773 88.2464 86.0888 88.2464H56.2246C50.7707 88.2464 47.5746 91.3919 45.654 93.2821L43.4109 95.4753ZM43.6308 103.671L34.8636 112.285L6.90528 84.7691L15.6578 76.1551L43.6308 103.671Z" fill="#4D6EC5"/>
</svg>
