<svg width="32" height="25" viewBox="0 0 32 25" fill="none" xmlns="http://www.w3.org/2000/svg">
<path fill-rule="evenodd" clip-rule="evenodd" d="M4.5 13.8637L4.5 4.39365C4.5 1.96622 6.7561 -1.08159e-06 9.5414 -9.59843e-07L26.4587 -2.20367e-07C29.244 -9.86172e-08 31.5001 1.96622 31.5001 4.39365L31.5001 13.8637C31.5001 16.2911 29.244 18.2573 26.4587 18.2573L9.54488 18.2573C6.75958 18.2573 4.5 16.2911 4.5 13.8637Z" fill="#C7F8FF"/>
<path d="M20.6 24V15.6346H27V24H20.6ZM26.9987 15.4871C26.9987 15.4871 26.9989 15.4875 26.9991 15.4886L26.9987 15.4871ZM26.9987 24.1476C26.9986 24.1475 26.9987 24.147 26.9991 24.1461L26.9987 24.1476ZM20.6013 24.1476C20.6013 24.1476 20.6011 24.1471 20.6009 24.1461L20.6013 24.1476ZM20.6009 15.4886C20.6011 15.4875 20.6013 15.4871 20.6013 15.4871L20.6009 15.4886Z" stroke="#232323" stroke-width="2" stroke-linejoin="round"/>
<path d="M1 23.9938V12.1796H7.40001V23.9938H1ZM7.39869 12.0321C7.39872 12.0321 7.39889 12.0326 7.39909 12.0336L7.39869 12.0321ZM7.39869 24.1413C7.39865 24.1413 7.39876 24.1408 7.39909 24.1398L7.39869 24.1413ZM1.00132 24.1413C1.00129 24.1413 1.00112 24.1408 1.00091 24.1398L1.00132 24.1413ZM1.00091 12.0336C1.00112 12.0326 1.00129 12.0321 1.00132 12.0321L1.00091 12.0336Z" stroke="#232323" stroke-width="2" stroke-linejoin="round"/>
<path d="M10.7999 23.9936V7H17.1999V23.9936H10.7999ZM17.1986 6.85245C17.1986 6.85244 17.1988 6.85293 17.199 6.85394L17.1986 6.85245ZM17.1986 24.1412C17.1986 24.1412 17.1987 24.1407 17.199 24.1397L17.1986 24.1412ZM10.8012 24.1412C10.8012 24.1412 10.801 24.1407 10.8008 24.1397L10.8012 24.1412ZM10.8008 6.85394C10.801 6.85293 10.8012 6.85244 10.8012 6.85245L10.8008 6.85394Z" stroke="#232323" stroke-width="2" stroke-linejoin="round"/>
</svg>
