<svg width="26" height="26" viewBox="0 0 26 26" fill="none" xmlns="http://www.w3.org/2000/svg">
<circle cx="13.1594" cy="13" r="12.5" fill="#C9C9C7"/>
<path d="M12.6362 13.7774C12.549 13.7774 12.4327 13.7483 12.3455 13.7193L8.56641 12.4111V16.3937C8.56641 16.51 8.62455 16.5972 8.74082 16.6553C9.96175 17.2367 11.299 17.5274 12.6362 17.5274C14.0025 17.5274 15.3106 17.2367 16.5315 16.6553C16.6187 16.5972 16.7059 16.51 16.7059 16.3937V12.4111L12.9269 13.7193C12.8397 13.7483 12.7234 13.7774 12.6362 13.7774Z" fill="white"/>
<path d="M17.578 17.6152V21.4815C17.578 21.7141 17.7815 21.9176 18.014 21.9176H18.8861C19.1187 21.9176 19.3222 21.7141 19.3222 21.4815V17.6152C19.0606 17.7606 18.7699 17.8478 18.4501 17.8478C18.1303 17.8478 17.8396 17.7606 17.578 17.6152Z" fill="white"/>
<path d="M18.7408 14.9695V11.1032L19.4094 10.8706C19.5257 10.8416 19.6129 10.7253 19.6129 10.609C19.6129 10.4927 19.5257 10.3765 19.4094 10.3474L12.7234 8.0218C12.6652 7.99273 12.578 7.99273 12.5199 8.0218L5.83384 10.3474C5.74663 10.3474 5.65942 10.4637 5.65942 10.5799C5.65942 10.6962 5.74663 10.8125 5.86291 10.8416L12.549 13.1672C12.578 13.1672 12.6071 13.1962 12.6362 13.1962C12.6652 13.1962 12.6943 13.1962 12.7234 13.1672L18.1594 11.2776V14.9695C17.6652 15.0858 17.2873 15.5509 17.2873 16.1032C17.2873 16.7427 17.8106 17.266 18.4501 17.266C19.0897 17.266 19.6129 16.7427 19.6129 16.1032C19.6129 15.5509 19.235 15.1148 18.7408 14.9695Z" fill="white"/>
</svg>
