<svg width="59" height="50" viewBox="0 0 59 50" fill="none" xmlns="http://www.w3.org/2000/svg">
<g clip-path="url(#clip0)">
<path d="M37.3827 43.8943C48.9946 43.8943 58.4079 34.1242 58.4079 22.0722C58.4079 10.0201 48.9946 0.25 37.3827 0.25C25.7708 0.25 16.3574 10.0201 16.3574 22.0722C16.3574 34.1242 25.7708 43.8943 37.3827 43.8943Z" fill="#F1FCFF"/>
<path d="M42.2259 26.4431C42.2997 24.4245 40.7764 22.7122 38.8315 22.6247H37.2239C36.8971 21.4868 36.4596 20.3817 35.9114 19.3423L37.0341 18.1771C37.7088 17.4769 38.0567 16.5031 37.9829 15.5184C37.9196 14.5556 37.519 13.6529 36.8602 12.98L35.3527 11.4155C34.0298 9.93293 31.7897 9.83993 30.3402 11.224L29.2122 12.3947C28.2055 11.8258 27.1461 11.3717 26.0445 11.0325V9.36399C25.9654 7.34535 24.3157 5.77529 22.3918 5.84094H20.2519C18.3017 5.75341 16.6572 7.34535 16.5781 9.38587V11.0325C15.4818 11.3717 14.4171 11.8312 13.4103 12.3947L12.2666 11.2076C10.8329 9.85087 8.59283 9.94387 7.28567 11.4045L5.77294 12.9746C4.35509 14.3477 4.26549 16.6727 5.58846 18.1826L6.71115 19.3478C6.16298 20.3927 5.7255 21.4923 5.39871 22.6302H3.78585C1.85146 22.7122 0.333465 24.4245 0.401986 26.4213V28.6314C0.328194 30.65 1.85146 32.3623 3.81747 32.4498H5.40926C5.73605 33.5877 6.17352 34.6928 6.72169 35.7322L5.57792 36.9193C4.27076 38.4073 4.36037 40.7323 5.76767 42.089L7.28039 43.6591C8.60337 45.1307 10.8435 45.2237 12.2877 43.8451L13.4156 42.6798C14.4223 43.2488 15.4818 43.7028 16.5834 44.042V45.7105C16.6624 47.6854 18.2384 49.2391 20.1095 49.2391C20.1517 49.2391 20.1939 49.2391 20.2413 49.2391H22.3813C24.3209 49.3047 25.9707 47.7346 26.055 45.6941V44.0475C27.1514 43.7083 28.2161 43.2542 29.2228 42.6853L30.3665 43.867C31.7949 45.2291 34.0403 45.1416 35.3475 43.6755L36.8707 42.0945C37.5876 41.3614 37.9881 40.3822 38.0039 39.3373C38.0092 38.4292 37.6613 37.543 37.0499 36.9029L35.9273 35.7377C36.4754 34.6928 36.9129 33.5932 37.2397 32.4553H38.8473C40.7922 32.3678 42.3155 30.6555 42.2417 28.6587L42.2259 26.4431ZM34.6043 30.568C34.2617 32.2037 33.645 33.7409 32.7753 35.1468C32.4011 35.7595 32.4854 36.5692 32.9756 37.0834L34.9153 39.0966C34.9732 39.1568 34.9996 39.2388 34.9996 39.3209C34.9943 39.5342 34.91 39.7367 34.7519 39.8953L33.197 41.5091C33.0072 41.7444 32.6752 41.7881 32.4327 41.6185L30.5141 39.6382C30.0134 39.1185 29.2491 39.031 28.6483 39.4303C27.2937 40.333 25.8073 40.973 24.2313 41.3286C23.5514 41.4818 23.0559 42.1218 23.0559 42.8494V45.6558C23.0085 45.9567 22.745 46.1646 22.3971 46.1318H20.1886C19.8882 46.1646 19.6299 45.9512 19.5772 45.6504V42.8385C19.5772 42.1109 19.0817 41.4763 18.4018 41.3177C16.8258 40.9566 15.3395 40.3165 13.9849 39.4194C13.3893 39.0255 12.625 39.113 12.1243 39.6327L10.2057 41.624C9.96324 41.7991 9.63645 41.7498 9.41507 41.4763L7.85491 39.857C7.623 39.6601 7.58083 39.3209 7.7495 39.0692L9.66807 37.078C10.1635 36.5637 10.2479 35.7486 9.86836 35.1359C8.99868 33.73 8.38199 32.1927 8.03939 30.557C7.89181 29.8513 7.27512 29.3371 6.57411 29.3316H3.85964C3.56974 29.2769 3.36945 29.0034 3.40108 28.6423V26.3556C3.36945 26.0493 3.57501 25.7757 3.86491 25.721H6.57411C7.27512 25.721 7.88654 25.2068 8.03939 24.4956C8.38199 22.8599 8.99868 21.3227 9.86836 19.9167C10.2479 19.304 10.1635 18.4889 9.66807 17.9747L7.7495 15.9943C7.58083 15.7427 7.62827 15.398 7.89181 15.1683L9.4467 13.549C9.63645 13.3138 9.96324 13.2645 10.2057 13.4396L12.1243 15.4309C12.6197 15.9451 13.3998 16.0326 13.9901 15.6387C15.3447 14.7361 16.8311 14.096 18.4018 13.735C19.087 13.5818 19.5825 12.9418 19.5825 12.2142V9.40229C19.6352 9.1014 19.8987 8.89352 20.2413 8.92634H22.4498C22.7502 8.89899 23.0085 9.10687 23.0559 9.40776V12.2196C23.0559 12.9472 23.5514 13.5818 24.2366 13.7405C25.8073 14.096 27.2937 14.7361 28.6483 15.6442C29.2386 16.0326 30.0187 15.9451 30.5141 15.4363L32.4327 13.445C32.6752 13.2755 33.0072 13.3247 33.2233 13.5928L34.7571 15.1792C34.8994 15.3215 34.9838 15.5075 34.9996 15.7099C35.0101 15.8083 34.9732 15.9068 34.9205 15.967L32.9756 17.9856C32.4749 18.5053 32.3905 19.304 32.7753 19.9222C33.645 21.3282 34.2617 22.8709 34.6043 24.5066C34.7519 25.2123 35.3685 25.7265 36.0696 25.7265H38.7788C39.0687 25.7812 39.2689 26.0547 39.2373 26.4158V28.6478V28.7025C39.2689 29.0088 39.0634 29.2824 38.7735 29.3371H36.0643C35.3685 29.348 34.7519 29.8623 34.6043 30.568Z" fill="#223A7A"/>
<path d="M21.3169 18.4287C16.4783 18.4287 12.541 22.5153 12.541 27.5373C12.541 32.5593 16.4783 36.6458 21.3169 36.6458C26.1555 36.6458 30.0928 32.5593 30.0928 27.5318C30.0875 22.5207 26.1502 18.4342 21.3169 18.4287ZM27.099 27.5373C27.0937 30.8415 24.5005 33.5385 21.3169 33.5385C18.1281 33.5385 15.5348 30.847 15.5348 27.5373C15.5348 24.2276 18.1281 21.536 21.3169 21.536C24.5058 21.5415 27.099 24.233 27.099 27.5373Z" fill="#223A7A"/>
</g>
<defs>
<clipPath id="clip0">
<rect width="58" height="49" fill="white" transform="translate(0.402344 0.25)"/>
</clipPath>
</defs>
</svg>
