<svg width="59" height="49" viewBox="0 0 59 49" fill="none" xmlns="http://www.w3.org/2000/svg">
<g clip-path="url(#clip0)">
<path fill-rule="evenodd" clip-rule="evenodd" d="M49.7797 32.106H26.0696C21.3082 32.106 17.4473 28.295 17.4473 23.5952V8.51086C17.4419 3.81099 21.3028 0 26.0696 0H49.7797C54.5412 0 58.4021 3.81099 58.4021 8.51086V23.5952C58.4021 28.295 54.5412 32.106 49.7797 32.106Z" fill="#F1FCFF"/>
<path d="M10.0387 33.3941C16.7899 33.3941 23.5357 33.3941 30.2923 33.3941C32.3629 33.458 33.6301 31.6057 33.3767 29.6842C33.3767 25.0535 33.3767 20.4229 33.3767 15.7922C33.3444 13.7111 33.8458 11.1828 31.3492 10.3099C30.2114 10.0118 29.0035 10.2247 27.8388 10.1609C26.4529 10.1609 25.0671 10.1609 23.6813 10.1609C18.5208 10.1609 13.355 10.1609 8.18909 10.1609C6.58217 10.1662 4.95908 10.1555 3.34677 10.1609C1.71289 10.1928 0.429513 11.4862 0.402551 13.0936C0.402551 21.6364 0.402551 30.1792 0.402551 38.722C0.380982 39.9888 2.04721 40.6648 2.94774 39.7599C5.30958 37.6415 7.67682 35.5125 10.0387 33.3941ZM30.508 30.456C30.5511 30.4507 30.5889 30.4454 30.632 30.44C30.5889 30.4454 30.5511 30.4507 30.508 30.456ZM6.46893 32.6383C5.44439 33.5591 4.41445 34.4799 3.38991 35.4007C3.38991 27.965 3.38452 20.5346 3.38991 13.1043C12.3951 13.1149 21.3949 13.1043 30.4001 13.1043C30.4001 13.1096 30.4055 13.1202 30.4055 13.1256C30.3894 18.9006 30.4001 24.6756 30.3947 30.4507H30.3894C26.0431 30.4507 21.6969 30.4507 17.3507 30.4507C14.7785 30.4507 12.2118 30.4507 9.63963 30.4507C8.28076 30.4879 7.47191 31.8984 6.46893 32.6383Z" fill="#223A7A"/>
<path d="M42.3119 21.8972C42.3335 20.3909 41.0717 19.1241 39.578 19.0017C38.8339 18.9325 38.0735 19.007 37.3294 18.9858C35.3558 19.0656 35.372 21.8493 37.3294 21.9345C38.0034 21.9398 38.6667 21.9185 39.3407 21.9292C39.3353 29.3595 39.3407 36.7952 39.3353 44.2256C37.7284 42.7885 36.1323 41.3461 34.5254 39.909C34.0724 39.4352 33.4469 39.2064 32.7567 39.2809C25.9462 39.2756 19.1356 39.2862 12.3197 39.2809V39.2756C12.2982 38.903 12.3251 38.5198 12.3251 38.1472C12.3251 37.3754 11.6403 36.6409 10.8368 36.6781C10.028 36.7101 9.34854 37.3275 9.34854 38.1472C9.34854 38.5357 9.33776 38.9243 9.34854 39.3128C9.3755 40.6009 10.2167 41.7186 11.4677 42.1019C13.3712 42.384 15.3502 42.1445 17.2753 42.219C22.4142 42.219 27.5531 42.2137 32.692 42.2243C35.0538 44.3427 37.4157 46.4664 39.7775 48.5848C40.6726 49.4843 42.3443 48.819 42.3227 47.5469C42.3227 46.4717 42.3227 45.4019 42.3227 44.3267C42.3119 36.8485 42.3119 29.3755 42.3119 21.8972Z" fill="#223A7A"/>
<path d="M11.4403 21.3862C11.4079 20.5879 10.7824 19.9172 9.95201 19.9172C9.41816 19.9172 8.88972 19.9172 8.35587 19.9172C7.57398 19.9172 6.82984 20.5932 6.86759 21.3862C6.90533 22.1846 7.52545 22.8553 8.35587 22.8553C8.88972 22.8553 9.41816 22.8553 9.95201 22.8553C10.7285 22.8606 11.4726 22.1793 11.4403 21.3862Z" fill="#232323"/>
<path d="M16.0942 22.8606C16.628 22.8606 17.1564 22.8606 17.6903 22.8606C19.6639 22.7808 19.6477 20.0024 17.6903 19.9172C17.1564 19.9172 16.628 19.9172 16.0942 19.9172C15.3123 19.9172 14.5681 20.5932 14.6059 21.3862C14.6436 22.1846 15.2583 22.8606 16.0942 22.8606Z" fill="#232323"/>
<path d="M23.8324 22.8606C24.3663 22.8606 24.8947 22.8606 25.4286 22.8606C27.4022 22.7808 27.386 20.0024 25.4286 19.9172C24.8947 19.9172 24.3663 19.9172 23.8324 19.9172C23.0505 19.9172 22.3064 20.5932 22.3442 21.3862C22.3819 22.1846 23.002 22.8606 23.8324 22.8606Z" fill="#232323"/>
</g>
<defs>
<clipPath id="clip0">
<rect width="58" height="49" fill="white" transform="translate(0.402344)"/>
</clipPath>
</defs>
</svg>
