<svg width="118" height="118" viewBox="0 0 118 118" fill="none" xmlns="http://www.w3.org/2000/svg">
<path d="M117.992 3.85346C117.973 3.50354 117.9 3.15361 117.771 2.8037C117.771 2.8037 117.734 2.73003 117.734 2.71162C117.697 2.61953 117.66 2.50904 117.587 2.39854C117.366 1.9197 117.089 1.53295 116.776 1.21987C116.426 0.869953 116.021 0.593698 115.616 0.409532C115.487 0.354281 115.285 0.262198 115.193 0.243781C114.88 0.133281 114.566 0.0780299 114.18 0.0411966C113.59 -0.0693035 112.946 0.0596175 112.541 0.225368L2.83807 36.7641C1.19907 37.2981 0.0572934 38.8451 0.0020461 40.5947C-0.0532012 42.3259 1.01491 43.9097 2.65391 44.5727L53.7576 64.2233L73.4073 115.348C74.015 116.932 75.5803 118 77.3482 118C79.0793 117.982 80.6262 116.84 81.1971 115.164L117.789 5.38204C117.9 5.03212 117.955 4.68221 117.992 4.14812C118.01 4.11129 117.992 3.9087 117.992 3.85346ZM104.401 19.4524L77.0168 101.609L61.8053 62.0502L104.401 19.4524ZM98.5448 13.6143L55.9491 56.1936L16.3921 40.9815L98.5448 13.6143Z" fill="#FF705D"/>
</svg>
