<svg width="60" height="60" viewBox="0 0 60 60" fill="none" xmlns="http://www.w3.org/2000/svg">
<path d="M40.4344 40.9091C51.24 40.9091 59.9996 31.7513 59.9996 20.4545C59.9996 9.15781 51.24 0 40.4344 0C29.6288 0 20.8691 9.15781 20.8691 20.4545C20.8691 31.7513 29.6288 40.9091 40.4344 40.9091Z" fill="#4DC5AF"/>
<path d="M10.5134 42.9733C3.06269 31.9334 6.01257 16.9633 17.1005 9.5448C28.1884 2.12633 43.2236 5.06344 50.6744 16.1094C58.1251 27.1553 55.1752 42.1195 44.0873 49.5379C35.9311 54.9943 25.2628 54.9943 17.1066 49.5379L7.9528 58.6399C6.13422 60.4506 3.18433 60.4506 1.36575 58.6399C-0.452839 56.8292 -0.452839 53.8921 1.36575 52.0814L10.5134 42.9733ZM30.5726 48.0603C40.8333 48.0603 49.1538 39.7758 49.1538 29.5595C49.1538 19.3432 40.8333 11.0588 30.5726 11.0588C20.3119 11.0588 11.9914 19.3432 11.9914 29.5595C12.0036 39.7758 20.3119 48.0482 30.5726 48.0603Z" fill="#223A7A"/>
</svg>
