<svg width="42" height="49" viewBox="0 0 42 49" fill="none" xmlns="http://www.w3.org/2000/svg">
<g clip-path="url(#clip0)">
<path fill-rule="evenodd" clip-rule="evenodd" d="M34.26 40.4207H17.7872C13.5647 40.4207 10.1445 37.0432 10.1445 32.8734V7.54728C10.1445 3.37751 13.5647 0 17.7872 0H34.26C38.4825 0 41.9026 3.37751 41.9026 7.54728V32.8682C41.9026 37.038 38.4825 40.4207 34.26 40.4207Z" fill="#F1FCFF"/>
<path d="M2.31159 6.39426C1.57266 6.39426 0.902344 7.0562 0.902344 7.78591V47.6176C0.918178 48.2744 1.43543 49.0093 2.31159 49.0093H32.3279C33.0669 49.0093 33.7372 48.3473 33.7372 47.6176V14.2699C33.7319 13.9103 33.5841 13.5558 33.3255 13.3004L26.7596 6.81644C26.501 6.55583 26.1315 6.39947 25.762 6.39426H2.31159ZM3.71555 9.17237H24.3528V14.2647C24.3422 14.9423 24.9703 15.6564 25.762 15.6564H30.9187V46.226H3.71555V9.17237ZM27.166 11.1374L28.9236 12.873H27.166V11.1374ZM22.3577 14.713C21.9988 14.7442 21.6557 14.9214 21.4182 15.1925L15.702 21.6348L13.0049 19.6385C12.4191 19.185 11.4585 19.3153 11.0098 19.8991C10.5612 20.4828 10.7037 21.4158 11.3054 21.8537L15.0581 24.6318C15.6176 25.0488 16.499 24.9654 16.9635 24.4441L23.5294 17.0324C23.9041 16.6206 23.9992 15.9795 23.7511 15.4844C23.4977 14.984 22.9171 14.6608 22.3577 14.713ZM7.938 27.6966C7.16213 27.6966 6.52876 28.3168 6.52876 29.0882C6.52876 29.8544 7.15685 30.4799 7.938 30.4799H26.6962C27.4721 30.4799 28.1055 29.8596 28.1055 29.0882C28.1055 28.322 27.4774 27.6966 26.6962 27.6966H7.938ZM7.938 34.1806C7.16213 34.1806 6.52876 34.8008 6.52876 35.5722C6.52876 36.3384 7.15685 36.9639 7.938 36.9639H26.6962C27.4721 36.9639 28.1055 36.3436 28.1055 35.5722C28.1055 34.806 27.4774 34.1806 26.6962 34.1806H7.938ZM7.938 40.6645C7.16213 40.6645 6.52876 41.2848 6.52876 42.0562C6.52876 42.8224 7.15685 43.4478 7.938 43.4478H26.6962C27.4721 43.4478 28.1055 42.8276 28.1055 42.0562C28.1055 41.29 27.4774 40.6645 26.6962 40.6645H7.938Z" fill="#223A7A"/>
</g>
<defs>
<clipPath id="clip0">
<rect width="41" height="49" fill="white" transform="translate(0.902344)"/>
</clipPath>
</defs>
</svg>
