<svg width="37" height="31" viewBox="0 0 37 31" fill="none" xmlns="http://www.w3.org/2000/svg">
<path d="M24.4009 25C31.3044 25 36.9009 19.4036 36.9009 12.5C36.9009 5.59644 31.3044 0 24.4009 0C17.4973 0 11.9009 5.59644 11.9009 12.5C11.9009 19.4036 17.4973 25 24.4009 25Z" fill="#C7F8FF"/>
<path d="M15.3813 31C14.9327 31.0001 14.5023 30.8252 14.1841 30.5136L3.26019 19.7523L3.00992 19.5058L2.75289 19.2459C2.62108 19.1152 2.51146 18.9645 2.42822 18.7995C1.19529 17.1012 0.679201 14.998 0.988565 12.9325C1.29793 10.867 2.40862 9.00019 4.08688 7.72505C5.76515 6.44991 7.88012 5.86585 9.98668 6.09577C12.0932 6.32569 14.0271 7.35168 15.3813 8.9578C16.7303 7.33325 18.6691 6.29092 20.7859 6.0523C22.9026 5.81369 25.0304 6.3976 26.717 7.67995C28.4036 8.96231 29.5162 10.842 29.8182 12.9196C30.1202 14.9973 29.5879 17.109 28.3345 18.8062C28.2529 18.9684 28.1455 19.1169 28.0165 19.2459L27.7189 19.5391L27.4754 19.7723L16.5786 30.5136C16.2604 30.8252 15.83 31.0001 15.3813 31ZM5.39086 17.147L5.58702 17.3402L15.3813 26.982L25.1148 17.3935L25.3042 17.207L25.3583 17.1537C25.3973 17.0932 25.4402 17.0354 25.4868 16.9804C26.2315 16.1275 26.6418 15.0403 26.6434 13.9153C26.6449 12.707 26.1776 11.5437 25.3371 10.6636C24.4967 9.7835 23.3466 9.253 22.1222 9.18065C20.8978 9.10829 19.6916 9.49956 18.7504 10.2744C17.8091 11.0492 17.204 12.1491 17.0588 13.3489C17.0092 13.7529 16.8112 14.1251 16.5022 14.3952C16.1932 14.6652 15.7945 14.8145 15.3813 14.8148C14.9682 14.8145 14.5695 14.6652 14.2605 14.3952C13.9514 14.1251 13.7534 13.7529 13.7039 13.3489C13.6169 12.6133 13.3562 11.9081 12.9425 11.2897C12.5288 10.6714 11.9738 10.1572 11.3219 9.78839C10.67 9.4196 9.9394 9.20649 9.18877 9.16616C8.43814 9.12583 7.68837 9.25941 6.99963 9.55618C6.31089 9.85295 5.70236 10.3046 5.22289 10.875C4.74341 11.4454 4.40634 12.1185 4.23873 12.8404C4.07112 13.5623 4.07763 14.3129 4.25775 15.0319C4.43786 15.7508 4.78657 16.4182 5.27587 16.9804C5.32322 17.0337 5.39086 17.0937 5.39086 17.147Z" fill="#223A7A"/>
</svg>
