<svg width="64" height="53" viewBox="0 0 64 53" fill="none" xmlns="http://www.w3.org/2000/svg">
<path d="M61.0495 9.85477C60.96 9.75615 60.8706 9.6665 60.7811 9.57685C59.5376 8.32174 57.7751 7.52385 55.8338 7.31766C55.3775 7.27283 54.9123 7.28179 54.465 7.28179H44.0515V4.78055C44.0515 2.67376 42.8348 0.925571 40.8846 0.226296C40.2673 0.00216993 39.6321 -0.00679512 39.0237 0.00216993H23.6988C22.1511 0.00216993 20.7376 0.782131 19.8161 2.13585C19.1093 3.1758 19.1093 4.38608 19.1093 5.36327V7.29076H7.97121C4.1422 7.29076 0.778402 10.0968 0.143216 13.8173C-0.00887043 14.6959 9.9872e-05 15.5834 9.9872e-05 16.4351V44.5047C9.9872e-05 45.3116 0.0806065 46.0288 0.241639 46.7101C0.680007 48.548 1.85198 50.2065 3.55177 51.3988C4.84003 52.3043 6.45036 52.7436 8.46327 52.7436H54.9839C57.5515 52.7436 59.8775 51.6768 61.3536 49.812C62.5345 48.3149 63.1608 46.5667 63.1608 44.7557V15.2607C63.1429 13.2436 62.4093 11.3788 61.0495 9.85477ZM6.36984 48.539L6.2267 48.4673C6.04777 48.3776 5.86883 48.279 5.7078 48.1714C5.67201 48.1445 5.58257 48.0818 5.50205 48.028L5.41258 47.9652C5.31418 47.8845 5.22472 47.8038 5.13525 47.7142C5.01 47.5977 4.89369 47.4632 4.78633 47.3377L4.59847 47.0866C4.50006 46.9432 4.41061 46.7908 4.33009 46.6384C4.3122 46.6025 4.26746 46.5129 4.23167 46.4322C4.19588 46.3605 4.178 46.3067 4.15116 46.2708C4.0438 45.9839 3.96328 45.6791 3.89171 45.3116L3.87382 45.1143C3.86488 44.9888 3.86487 44.8723 3.86487 44.7019V24.8443H24.2445V25.3195C24.2445 25.5436 24.2445 25.7677 24.2356 26.0008C24.2177 26.736 24.2087 27.498 24.334 28.2421C24.6829 30.322 26.66 31.9536 28.8339 31.9536H34.1749C36.1699 31.9536 37.8697 30.8151 38.6033 28.9683C38.9432 28.1345 38.9164 27.1842 38.8985 26.3505C38.8985 26.1712 38.8896 25.9829 38.8896 25.8126V24.8533H59.2692V44.6482V44.953C59.2692 44.9888 59.2602 45.0964 59.2513 45.1861C59.2423 45.2847 59.2334 45.3385 59.2334 45.3833C59.2155 45.4909 59.1886 45.6074 59.1618 45.715C59.1171 45.8853 59.0634 46.0557 59.0097 46.2439L58.8934 46.5039C58.7771 46.746 58.634 46.988 58.4461 47.248C58.4014 47.2928 58.3566 47.3466 58.3209 47.3825C58.2672 47.4453 58.2135 47.508 58.1866 47.5349C58.0525 47.6783 57.9004 47.8218 57.7572 47.9473L57.5783 48.0818C57.4352 48.1804 57.292 48.27 57.1399 48.3507C57.0326 48.4135 56.9163 48.4673 56.8179 48.5121L56.7105 48.5569C56.6032 48.6017 56.4869 48.6286 56.3795 48.6645C56.2095 48.7183 56.0396 48.7541 55.8606 48.79L55.637 48.8259C55.4849 48.8438 55.3238 48.8438 55.1718 48.8438H9.71574H7.76546C7.676 48.8438 7.58652 48.8348 7.49705 48.8259L7.40761 48.8169C7.10344 48.7721 6.78137 48.6914 6.36984 48.539ZM35.4721 27.4352L35.0248 27.4711C35.0069 27.5428 34.989 27.6145 34.989 27.6235C34.9621 27.6773 34.9353 27.7311 34.8906 27.7849C34.8548 27.8207 34.8011 27.8656 34.7564 27.9014C34.7295 27.9283 34.7027 27.9463 34.6758 27.9731L34.6132 28.009C34.5596 28.0269 34.4969 28.0449 34.4253 28.0628C34.3896 28.0628 34.3538 28.0628 34.309 28.0628H28.825L28.5745 28.0269C28.5477 28.018 28.5119 28 28.485 27.9911C28.4492 27.9731 28.4135 27.9463 28.3598 27.9104C28.3329 27.8835 28.2971 27.8387 28.2435 27.7759L28.1451 27.5518C28.1272 27.489 28.1182 27.4442 28.1093 27.4083V24.8264H35.0158V27.3546L35.4721 27.4352ZM39.972 4.08127C39.9989 4.10816 40.0347 4.15299 40.0347 4.15299C40.0705 4.20678 40.0973 4.26954 40.1062 4.26057L40.151 4.40401L40.1689 7.28179H22.9831V4.78055C22.9831 4.664 22.9831 4.54745 22.9831 4.4847C23.001 4.41298 23.0188 4.34126 23.0188 4.32333C23.0457 4.26057 23.0815 4.20678 23.1352 4.13506C23.1799 4.09024 23.2246 4.04541 23.2425 4.02748C23.3051 3.98266 23.3677 3.9468 23.3767 3.9468C23.4393 3.92887 23.493 3.91093 23.5735 3.893H39.0506H39.5158C39.5337 3.893 39.5605 3.90197 39.5963 3.91093C39.641 3.9199 39.6947 3.92886 39.7394 3.93783C39.7752 3.95576 39.811 3.97369 39.8379 3.99162C39.8736 4.00059 39.9452 4.05437 39.972 4.08127ZM58.3298 11.9795L58.1061 12.3919L58.2046 12.4905C58.2314 12.5174 58.294 12.5981 58.3566 12.6608C58.4014 12.7146 58.4461 12.7684 58.4461 12.7684C58.4461 12.7684 58.4461 12.7684 58.4461 12.7594C58.5177 12.8581 58.5892 12.9656 58.6519 13.0643C58.7413 13.2077 58.8218 13.3601 58.9202 13.5394L59.0276 13.8084C59.1171 14.0594 59.1887 14.3283 59.2423 14.6242L59.2781 20.9445H3.86487V15.3683V15.0545L3.41756 15.0366L3.86487 14.9469L3.88278 14.6959C3.90067 14.5883 3.91854 14.4807 3.94538 14.3732C3.98117 14.2028 4.03485 14.0325 4.08853 13.8621C4.10642 13.7994 4.13326 13.7277 4.1422 13.7097L4.21379 13.5573C4.33009 13.3242 4.47324 13.0732 4.64322 12.8312C4.68795 12.7863 4.72373 12.7415 4.75057 12.7057C4.80425 12.6429 4.86687 12.5622 4.88476 12.5353C5.00106 12.4098 5.12631 12.2933 5.25156 12.1767C5.30524 12.1319 5.35892 12.0781 5.42154 12.0333C5.58257 11.9167 5.75255 11.8091 5.92253 11.7105C6.06567 11.6298 6.20879 11.5581 6.35193 11.4864C6.43245 11.4505 6.51296 11.4237 6.60243 11.3968C6.77241 11.343 6.94239 11.2981 7.11237 11.2533C7.20183 11.2354 7.28236 11.2175 7.4255 11.1906C7.68494 11.1637 7.93544 11.1637 8.23961 11.1637H55.1986C55.3238 11.1637 55.4491 11.1726 55.5654 11.1726L55.7354 11.1816C55.9948 11.2264 56.2632 11.2892 56.5674 11.3878C56.621 11.4057 56.6747 11.4236 56.7374 11.4416C56.7642 11.4595 56.8 11.4685 56.8268 11.4864C56.8984 11.5133 56.97 11.5492 57.0058 11.5671C57.2384 11.6836 57.4531 11.8181 57.6946 11.9974C57.793 12.0781 57.8914 12.1767 57.9898 12.2664L58.3298 11.9795Z" fill="#00B2DB"/>
</svg>
