<svg width="29" height="29" viewBox="0 0 29 29" fill="none" xmlns="http://www.w3.org/2000/svg">
<path d="M18.9024 20C24.4252 20 28.9023 15.5228 28.9023 10C28.9023 4.47715 24.4252 0 18.9024 0C13.3795 0 8.90234 4.47715 8.90234 10C8.90234 15.5228 13.3795 20 18.9024 20Z" fill="#4D6EC5"/>
<circle cx="13.4023" cy="13.5" r="11.5" stroke="white" stroke-width="2"/>
<path d="M12.792 7.976C12.792 7.52 12.948 7.136 13.26 6.824C13.572 6.512 13.956 6.356 14.412 6.356C14.868 6.356 15.252 6.512 15.564 6.824C15.876 7.136 16.032 7.52 16.032 7.976C16.032 8.42 15.876 8.804 15.564 9.128C15.252 9.44 14.868 9.596 14.412 9.596C13.956 9.596 13.572 9.44 13.26 9.128C12.948 8.804 12.792 8.42 12.792 7.976ZM11.334 11.072H15.78V20H13.026V13.16H11.334V11.072Z" fill="#223A7A"/>
</svg>
