<svg width="11" height="13" viewBox="0 0 11 13" fill="none" xmlns="http://www.w3.org/2000/svg">
<mask id="path-1-inside-1" fill="white">
<path fill-rule="evenodd" clip-rule="evenodd" d="M8.98134 8.98048L5.50019 12.4616L1.81663 8.77808L1.82144 8.77327C0.0702272 6.83046 0.130046 3.83437 2.0009 1.96352C3.93355 0.0308655 7.067 0.0308655 8.99965 1.96352C10.8705 3.8344 10.9303 6.83056 9.17902 8.77337L9.18374 8.77808L9.01787 8.94396C9.01181 8.95007 9.00574 8.95617 8.99965 8.96226C8.99356 8.96836 8.98745 8.97443 8.98134 8.98048Z"/>
</mask>
<path d="M8.98134 8.98048L8.27785 8.26976L8.27423 8.27337L8.98134 8.98048ZM5.50019 12.4616L4.79308 13.1687L5.50019 13.8758L6.20729 13.1687L5.50019 12.4616ZM1.81663 8.77808L1.10953 8.07098L0.402421 8.77808L1.10953 9.48519L1.81663 8.77808ZM1.82144 8.77327L2.52855 9.48038L3.19993 8.809L2.56423 8.10374L1.82144 8.77327ZM9.17902 8.77337L8.43626 8.10382L7.80052 8.80908L8.47192 9.48047L9.17902 8.77337ZM9.18374 8.77808L9.89085 9.48519L10.598 8.77808L9.89085 8.07098L9.18374 8.77808ZM9.01787 8.94396L8.31075 8.23684L8.30715 8.24047L9.01787 8.94396ZM8.27423 8.27337L4.79308 11.7545L6.20729 13.1687L9.68845 9.68759L8.27423 8.27337ZM6.20729 11.7545L2.52374 8.07098L1.10953 9.48519L4.79308 13.1687L6.20729 11.7545ZM2.52374 9.48519L2.52855 9.48038L1.11434 8.06617L1.10953 8.07098L2.52374 9.48519ZM2.56423 8.10374C1.16744 6.55414 1.21541 4.16322 2.70801 2.67062L1.2938 1.25641C-0.955317 3.50552 -1.02699 7.10679 1.07866 9.44281L2.56423 8.10374ZM2.70801 2.67062C4.25014 1.1285 6.75042 1.1285 8.29254 2.67062L9.70676 1.25641C7.38358 -1.06677 3.61697 -1.06677 1.2938 1.25641L2.70801 2.67062ZM8.29254 2.67062C9.78517 4.16325 9.83311 6.55421 8.43626 8.10382L9.92179 9.44292C12.0275 7.1069 11.9559 3.50556 9.70676 1.25641L8.29254 2.67062ZM8.47192 9.48047L8.47663 9.48519L9.89085 8.07098L9.88613 8.06626L8.47192 9.48047ZM8.47663 8.07098L8.31076 8.23685L9.72497 9.65106L9.89085 9.48519L8.47663 8.07098ZM8.30715 8.24047C8.3023 8.24538 8.29743 8.25027 8.29254 8.25516L9.70676 9.66937C9.71405 9.66208 9.72133 9.65477 9.72858 9.64744L8.30715 8.24047ZM8.29254 8.25516C8.28766 8.26004 8.28276 8.26492 8.27786 8.26977L9.68482 9.69119C9.69215 9.68394 9.69946 9.67667 9.70676 9.66937L8.29254 8.25516Z" fill="#223A7A" mask="url(#path-1-inside-1)"/>
</svg>
