<svg width="16" height="16" viewBox="0 0 16 16" fill="none" xmlns="http://www.w3.org/2000/svg">
<path d="M13.939 8.92189L8.92162 8.92183L8.92149 13.9394C8.92149 14.571 8.40938 15.0827 7.77817 15.0827C7.14658 15.0827 6.63483 14.5705 6.63482 13.9393L6.63476 8.92161L1.61704 8.92155C0.985448 8.92154 0.473511 8.4096 0.473693 7.7782C0.473685 7.14661 0.98561 6.63469 1.61701 6.63489L6.63473 6.63495L6.63505 1.61722C6.63505 0.985634 7.14716 0.473899 7.77837 0.473907C8.09417 0.473911 8.37991 0.601755 8.58689 0.808736C8.79387 1.01572 8.92171 1.30146 8.92172 1.61725L8.9214 6.6346L13.9389 6.63485C14.2547 6.63485 14.5405 6.76269 14.7474 6.96968C14.9544 7.17666 15.0823 7.4624 15.0823 7.77819C15.0823 8.40978 14.5704 8.92171 13.939 8.92189Z" fill="#223A7A"/>
</svg>
