<svg width="45" height="36" viewBox="0 0 45 36" fill="none" xmlns="http://www.w3.org/2000/svg">
<g clip-path="url(#clip0)">
<path d="M28.4546 32.0652C37.2636 32.0652 44.4048 24.8872 44.4048 16.0326C44.4048 7.17804 37.2636 0 28.4546 0C19.6455 0 12.5044 7.17804 12.5044 16.0326C12.5044 24.8872 19.6455 32.0652 28.4546 32.0652Z" fill="#C7F8FF"/>
<path d="M32.1293 19.2439C32.1853 17.7609 31.0297 16.5029 29.5543 16.4385H28.3347C28.0868 15.6026 27.7549 14.7907 27.3391 14.027L28.1908 13.1709C28.7026 12.6565 28.9665 11.9411 28.9105 11.2176C28.8625 10.5102 28.5586 9.84705 28.0588 9.35269L26.9152 8.2032C25.9116 7.114 24.2122 7.04567 23.1126 8.06253L22.2569 8.92264C21.4932 8.50464 20.6895 8.17105 19.8538 7.92186V6.696C19.7938 5.21291 18.5423 4.0594 17.0828 4.10763H15.4594C13.9799 4.04333 12.7324 5.21291 12.6724 6.71208V7.92186C11.8407 8.17105 11.033 8.50866 10.2693 8.92264L9.4016 8.05047C8.314 7.05371 6.61462 7.12203 5.62298 8.19516L4.47539 9.34867C3.39979 10.3575 3.33181 12.0657 4.33545 13.175L5.18714 14.031C4.77129 14.7987 4.43941 15.6066 4.1915 16.4426H2.96794C1.50048 16.5029 0.348896 17.7609 0.400877 19.2279V20.8516C0.344897 22.3347 1.50048 23.5927 2.99193 23.657H4.1995C4.44741 24.493 4.77928 25.3049 5.19513 26.0686L4.32745 26.9407C3.33581 28.0339 3.40378 29.7421 4.4714 30.7389L5.61898 31.8924C6.62261 32.9735 8.322 33.0419 9.4176 32.029L10.2733 31.1729C11.037 31.5909 11.8407 31.9245 12.6764 32.1737V33.3996C12.7364 34.8505 13.932 35.992 15.3514 35.992C15.3834 35.992 15.4154 35.992 15.4514 35.992H17.0748C18.5463 36.0402 19.7978 34.8867 19.8618 33.3875V32.1777C20.6935 31.9286 21.5012 31.595 22.2649 31.177L23.1326 32.0451C24.2162 33.0459 25.9196 32.9816 26.9112 31.9044L28.0668 30.7429C28.6106 30.2043 28.9145 29.4849 28.9265 28.7172C28.9305 28.05 28.6666 27.3989 28.2028 26.9287L27.3511 26.0726C27.7669 25.3049 28.0988 24.497 28.3467 23.6611H29.5663C31.0417 23.5967 32.1973 22.3387 32.1413 20.8717L32.1293 19.2439ZM26.3474 22.2744C26.0875 23.4762 25.6197 24.6056 24.9599 25.6385C24.676 26.0887 24.74 26.6835 25.1119 27.0613L26.5834 28.5404C26.6273 28.5846 26.6473 28.6449 26.6473 28.7052C26.6433 28.8619 26.5794 29.0106 26.4594 29.1272L25.2798 30.3128C25.1359 30.4857 24.884 30.5178 24.7 30.3932L23.2446 28.9383C22.8647 28.5564 22.2849 28.4921 21.8291 28.7855C20.8015 29.4487 19.6739 29.9189 18.4783 30.1802C17.9625 30.2927 17.5866 30.763 17.5866 31.2975V33.3594C17.5506 33.5804 17.3507 33.7332 17.0868 33.7091H15.4114C15.1835 33.7332 14.9876 33.5764 14.9476 33.3554V31.2895C14.9476 30.7549 14.5717 30.2887 14.0559 30.1722C12.8603 29.9069 11.7328 29.4366 10.7051 28.7775C10.2533 28.4881 9.6735 28.5524 9.29364 28.9342L7.83817 30.3972C7.65424 30.5259 7.40633 30.4897 7.23839 30.2887L6.05482 29.099C5.87888 28.9543 5.8469 28.7052 5.97485 28.5203L7.43032 27.0573C7.80618 26.6795 7.87016 26.0806 7.58226 25.6305C6.9225 24.5975 6.45468 23.4681 6.19477 22.2664C6.08281 21.7479 5.61498 21.3701 5.08317 21.3661H3.02392C2.804 21.3259 2.65206 21.1249 2.67605 20.8597V19.1796C2.65206 18.9546 2.808 18.7536 3.02792 18.7134H5.08317C5.61498 18.7134 6.07881 18.3356 6.19477 17.8131C6.45468 16.6114 6.9225 15.482 7.58226 14.449C7.87016 13.9989 7.80618 13.4 7.43032 13.0222L5.97485 11.5673C5.8469 11.3824 5.88288 11.1292 6.08281 10.9604L7.26238 9.77069C7.40633 9.59786 7.65424 9.56169 7.83817 9.6903L9.29364 11.1533C9.66951 11.5311 10.2613 11.5954 10.7091 11.306C11.7368 10.6429 12.8643 10.1726 14.0559 9.90734C14.5757 9.7948 14.9516 9.32456 14.9516 8.79V6.72413C14.9916 6.50308 15.1915 6.35035 15.4514 6.37446H17.1268C17.3547 6.35437 17.5506 6.5071 17.5866 6.72815V8.79402C17.5866 9.32858 17.9625 9.7948 18.4823 9.91136C19.6739 10.1726 20.8015 10.6429 21.8291 11.31C22.2769 11.5954 22.8687 11.5311 23.2446 11.1573L24.7 9.69432C24.884 9.56973 25.1359 9.6059 25.2998 9.80284L26.4634 10.9684C26.5714 11.0729 26.6353 11.2096 26.6473 11.3583C26.6553 11.4306 26.6273 11.503 26.5874 11.5472L25.1119 13.0303C24.732 13.4121 24.6681 13.9989 24.9599 14.4531C25.6197 15.486 26.0875 16.6194 26.3474 17.8212C26.4594 18.3396 26.9272 18.7174 27.459 18.7174H29.5143C29.7342 18.7576 29.8862 18.9586 29.8622 19.2239V20.8637V20.9039C29.8862 21.129 29.7302 21.3299 29.5103 21.3701H27.455C26.9272 21.3781 26.4594 21.7559 26.3474 22.2744Z" fill="#232323"/>
<path d="M16.2672 13.3558C12.5965 13.3558 9.60962 16.3582 9.60962 20.0478C9.60962 23.7374 12.5965 26.7398 16.2672 26.7398C19.9379 26.7398 22.9248 23.7374 22.9248 20.0438C22.9208 16.3622 19.9339 13.3599 16.2672 13.3558ZM20.6536 20.0478C20.6496 22.4754 18.6823 24.4569 16.2672 24.4569C13.8481 24.4569 11.8808 22.4794 11.8808 20.0478C11.8808 17.6162 13.8481 15.6387 16.2672 15.6387C18.6863 15.6428 20.6536 17.6202 20.6536 20.0478Z" fill="#232323"/>
</g>
<defs>
<clipPath id="clip0">
<rect width="44" height="36" fill="white" transform="translate(0.400879)"/>
</clipPath>
</defs>
</svg>
