<svg width="27" height="27" viewBox="0 0 27 27" fill="none" xmlns="http://www.w3.org/2000/svg">
<g clip-path="url(#clip0)">
<path d="M21.7695 0.065918H7.96494C5.19241 0.065918 2.94482 2.3135 2.94482 5.08604V13.9835C2.94482 16.756 5.19241 19.0036 7.96494 19.0036H21.7695C24.542 19.0036 26.7896 16.756 26.7896 13.9835V5.08604C26.7896 2.3135 24.542 0.065918 21.7695 0.065918Z" fill="#C4D2F8"/>
<path d="M2.46139 6.11279C1.86901 6.11527 1.30155 6.35147 0.882378 6.77006C0.463205 7.18864 0.226205 7.75577 0.2229 8.34814V24.7522C0.22372 25.3465 0.459525 25.9164 0.878876 26.3375C1.29823 26.7586 1.8671 26.9968 2.46139 27.0001H17.3742C17.9666 26.9968 18.5337 26.7598 18.9523 26.3406C19.3709 25.9215 19.6071 25.354 19.6095 24.7616V12.0779C19.6099 11.8804 19.532 11.6907 19.3929 11.5505L14.1719 6.32942C14.0312 6.19091 13.8418 6.11312 13.6444 6.11279H2.46139ZM2.46139 7.60407H3.20546V10.4108C3.20874 10.8519 3.38544 11.2741 3.69737 11.586C4.0093 11.8979 4.43143 12.0746 4.87255 12.0779H10.486C10.9272 12.0746 11.3493 11.8979 11.6612 11.586C11.9732 11.2741 12.1498 10.8519 12.1531 10.4108V7.60407H13.3367L18.1182 12.3856V24.7522C18.1208 24.8508 18.1034 24.9488 18.0669 25.0404C18.0305 25.1321 17.9758 25.2153 17.9062 25.2852C17.8367 25.355 17.7536 25.41 17.6622 25.4469C17.5707 25.4837 17.4727 25.5016 17.3742 25.4994H15.8829V18.043C15.8796 17.4504 15.6427 16.8829 15.2236 16.4638C14.8045 16.0447 14.2371 15.8078 13.6444 15.8045H6.18802C5.59564 15.8078 5.02852 16.0448 4.60993 16.464C4.19135 16.8832 3.95514 17.4506 3.95267 18.043V25.4994H2.46139C2.36256 25.502 2.26423 25.4845 2.17241 25.4478C2.08058 25.4112 1.99717 25.3562 1.92726 25.2863C1.85736 25.2164 1.80241 25.133 1.76578 25.0412C1.72915 24.9494 1.71159 24.851 1.71418 24.7522V8.34814C1.71202 8.24957 1.7299 8.15159 1.76672 8.06013C1.80355 7.96867 1.85856 7.88564 1.92843 7.81608C1.99829 7.74651 2.08155 7.69184 2.17316 7.6554C2.26477 7.61896 2.36283 7.6015 2.46139 7.60407ZM4.69674 7.60407H10.6744V10.4108C10.6763 10.4344 10.6731 10.4581 10.6649 10.4803C10.6567 10.5025 10.6438 10.5226 10.6271 10.5393C10.6104 10.5561 10.5902 10.5689 10.5681 10.5771C10.5459 10.5853 10.5222 10.5885 10.4986 10.5866H4.87255C4.84898 10.5885 4.82528 10.5853 4.80309 10.5771C4.7809 10.5689 4.76075 10.5561 4.74403 10.5393C4.72731 10.5226 4.71442 10.5025 4.70626 10.4803C4.69809 10.4581 4.69484 10.4344 4.69674 10.4108V7.60407ZM6.18802 17.2958H13.6444C13.7432 17.2932 13.8416 17.3108 13.9334 17.3474C14.0252 17.384 14.1086 17.439 14.1785 17.5089C14.2484 17.5788 14.3034 17.6622 14.34 17.754C14.3767 17.8459 14.3942 17.9442 14.3916 18.043V25.4994H5.44395V18.043C5.44137 17.9445 5.45884 17.8464 5.49528 17.7548C5.53172 17.6632 5.58638 17.5799 5.65595 17.5101C5.72552 17.4402 5.80855 17.3852 5.90001 17.3484C5.99146 17.3115 6.08945 17.2937 6.18802 17.2958Z" fill="#223A7A"/>
</g>
<defs>
<clipPath id="clip0">
<rect width="27" height="27" fill="white"/>
</clipPath>
</defs>
</svg>
