<svg width="26" height="27" viewBox="0 0 26 27" fill="none" xmlns="http://www.w3.org/2000/svg">
<g clip-path="url(#clip0)">
<path d="M20.9634 0.0664062H7.67012C5.00028 0.0664062 2.83594 2.31399 2.83594 5.08652V13.984C2.83594 16.7565 5.00028 19.0041 7.67012 19.0041H20.9634C23.6332 19.0041 25.7976 16.7565 25.7976 13.984V5.08652C25.7976 2.31399 23.6332 0.0664062 20.9634 0.0664062Z" fill="white" fill-opacity="0.4"/>
<path d="M18.3834 12.0766V12.0774V24.76C18.3813 25.2262 18.2021 25.6692 17.8901 25.9936C17.5789 26.3173 17.1613 26.4968 16.7292 26.4996H2.37209C1.93842 26.4968 1.51939 26.3163 1.20741 25.9909C0.894604 25.6647 0.715546 25.2195 0.714844 24.7514V8.34908C0.717667 7.88302 0.897511 7.4405 1.20981 7.11664C1.52155 6.79337 1.93943 6.61445 2.37158 6.6123H13.1387C13.1912 6.61248 13.2453 6.63368 13.2887 6.67751C13.289 6.67784 13.2894 6.67817 13.2897 6.6785L18.3132 11.8953C18.3134 11.8955 18.3136 11.8957 18.3138 11.8959C18.3566 11.941 18.3836 12.0056 18.3834 12.0766ZM3.58694 7.60358V7.10358H3.08694H2.37627C2.21355 7.10024 2.05223 7.13072 1.90198 7.19279C1.74941 7.25581 1.61208 7.3498 1.49777 7.46801C1.3835 7.58617 1.29454 7.72612 1.23531 7.87888C1.1768 8.02976 1.14825 8.19067 1.15089 8.35226V24.7462C1.14772 24.9078 1.17578 25.0689 1.23384 25.22C1.29275 25.3734 1.3816 25.5139 1.49592 25.6327C1.6103 25.7514 1.74785 25.8459 1.90077 25.9093C2.05137 25.9717 2.21314 26.0023 2.37631 25.9989H3.80647H4.30647V25.4989V18.0437C4.30857 17.5775 4.48783 17.1345 4.79979 16.8101C5.11102 16.4864 5.52852 16.3069 5.96055 16.304H13.1378C13.5702 16.3069 13.9881 16.4864 14.2998 16.8102C14.6122 17.1345 14.792 17.5774 14.7948 18.0439V25.4989V25.9989H15.2948H16.726C16.8892 26.0017 17.0508 25.9706 17.2011 25.9077C17.3534 25.844 17.4903 25.7494 17.6041 25.6308C17.7179 25.5121 17.8063 25.3718 17.8649 25.2188C17.9226 25.0681 17.9505 24.9074 17.9474 24.7462V12.3851V12.1835L17.8076 12.0383L13.2031 7.25676L13.0556 7.10358H12.843H11.7032H11.2032V7.60358V10.4083C11.2006 10.7234 11.0787 11.0213 10.8694 11.2387C10.6607 11.4554 10.3825 11.5747 10.0957 11.5774H4.69443C4.40769 11.5747 4.12947 11.4554 3.92079 11.2387C3.71146 11.0213 3.58961 10.7235 3.58694 10.4084V7.60358ZM4.52298 7.10358H4.02298V7.60358V10.3974C4.0197 10.4819 4.03244 10.5666 4.06086 10.6468L4.06086 10.6468C4.09218 10.7352 4.1421 10.8169 4.20836 10.8857L4.20837 10.8857C4.27468 10.9545 4.35586 11.0089 4.44693 11.0437C4.52934 11.0752 4.61739 11.0897 4.70584 11.0861H10.0964C10.1849 11.0897 10.2729 11.0752 10.3553 11.0437C10.4464 11.0089 10.5276 10.9545 10.5939 10.8857C10.6601 10.8169 10.7101 10.7352 10.7414 10.6468L10.7414 10.6468C10.7698 10.5666 10.7825 10.4819 10.7793 10.3974V7.60358V7.10358H10.2793H4.52298ZM13.8588 25.9989H14.3588V25.4989V18.048C14.362 17.8864 14.3339 17.7254 14.2759 17.5742C14.2169 17.4209 14.1281 17.2803 14.0138 17.1616C13.8994 17.0428 13.7618 16.9484 13.6089 16.885C13.4583 16.8226 13.2966 16.792 13.1334 16.7953H5.96396C5.80079 16.7925 5.63915 16.8237 5.48879 16.8866C5.3365 16.9503 5.19959 17.0448 5.08578 17.1635C4.97202 17.2822 4.88364 17.4225 4.82503 17.5755L5.29195 17.7543L4.82503 17.5755C4.76728 17.7262 4.73937 17.8868 4.74252 18.048V25.4989V25.9989H5.24252H13.8588Z" fill="white" stroke="white"/>
</g>
<defs>
<clipPath id="clip0">
<rect width="26" height="27" fill="white"/>
</clipPath>
</defs>
</svg>
