<svg width="23" height="24" viewBox="0 0 23 24" fill="none" xmlns="http://www.w3.org/2000/svg">
<path d="M2.82604 0.0182571C2.1459 0.0210963 1.49437 0.292294 1.0131 0.772892C0.531826 1.25349 0.259714 1.90463 0.25592 2.58477V21.4191C0.256861 22.1014 0.5276 22.7557 1.00908 23.2392C1.49056 23.7227 2.1437 23.9962 2.82604 24H19.9481C20.6283 23.9962 21.2794 23.7241 21.76 23.2428C22.2406 22.7616 22.5118 22.11 22.5146 21.4299V6.86709C22.515 6.64029 22.4256 6.42256 22.2659 6.26151L16.2714 0.266978C16.1099 0.107945 15.8925 0.0186364 15.6658 0.0182571H2.82604ZM2.82604 1.73047H3.68034V4.95302C3.68411 5.4595 3.88698 5.94416 4.24513 6.30231C4.60327 6.66045 5.08793 6.86332 5.59441 6.86709H12.0395C12.546 6.86332 13.0307 6.66045 13.3888 6.30231C13.747 5.94416 13.9498 5.4595 13.9536 4.95302V1.73047H15.3125L20.8024 7.22035V21.4191C20.8054 21.5322 20.7853 21.6448 20.7435 21.75C20.7017 21.8552 20.6389 21.9508 20.559 22.031C20.4791 22.1112 20.3838 22.1744 20.2788 22.2166C20.1738 22.2589 20.0613 22.2795 19.9481 22.277H18.2359V13.7159C18.2321 13.0355 17.9601 12.3839 17.479 11.9028C16.9978 11.4216 16.3463 11.1496 15.6658 11.1458H7.10476C6.42462 11.1496 5.77348 11.4217 5.29288 11.903C4.81228 12.3843 4.54109 13.0358 4.53825 13.7159V22.277H2.82604C2.71256 22.28 2.59967 22.2598 2.49424 22.2177C2.38881 22.1757 2.29305 22.1126 2.21278 22.0323C2.13252 21.9521 2.06943 21.8563 2.02737 21.7509C1.98531 21.6454 1.96516 21.5325 1.96813 21.4191V2.58477C1.96565 2.4716 1.98618 2.3591 2.02846 2.25409C2.07074 2.14908 2.1339 2.05375 2.21412 1.97388C2.29433 1.894 2.38992 1.83124 2.49511 1.7894C2.60029 1.74756 2.71288 1.72751 2.82604 1.73047ZM5.39255 1.73047H12.2558V4.95302C12.258 4.98008 12.2543 5.0073 12.2449 5.03277C12.2355 5.05825 12.2207 5.08139 12.2015 5.10059C12.1823 5.11978 12.1592 5.13458 12.1337 5.14396C12.1082 5.15333 12.081 5.15706 12.0539 5.15488H5.59441C5.56735 5.15706 5.54014 5.15333 5.51466 5.14396C5.48918 5.13458 5.46604 5.11978 5.44685 5.10059C5.42765 5.08139 5.41285 5.05825 5.40348 5.03277C5.3941 5.0073 5.39037 4.98008 5.39255 4.95302V1.73047ZM7.10476 12.858H15.6658C15.7793 12.855 15.8922 12.8752 15.9976 12.9173C16.103 12.9593 16.1988 13.0224 16.2791 13.1027C16.3593 13.1829 16.4224 13.2787 16.4645 13.3841C16.5065 13.4896 16.5267 13.6025 16.5237 13.7159V22.277H6.25046V13.7159C6.2475 13.6028 6.26755 13.4902 6.30939 13.385C6.35123 13.2798 6.41399 13.1842 6.49387 13.104C6.57374 13.0238 6.66907 12.9606 6.77408 12.9184C6.87909 12.8761 6.99158 12.8555 7.10476 12.858Z" fill="#223A7A"/>
</svg>
