<svg width="27" height="27" viewBox="0 0 27 27" fill="none" xmlns="http://www.w3.org/2000/svg">
<g clip-path="url(#clip0)">
<path d="M21.7696 0.0659256H7.96506C5.19253 0.0659256 2.94495 2.31351 2.94495 5.08604V13.9835C2.94495 16.756 5.19253 19.0036 7.96506 19.0036H21.7696C24.5421 19.0036 26.7897 16.756 26.7897 13.9835V5.08604C26.7897 2.31351 24.5421 0.0659256 21.7696 0.0659256Z" fill="#C4D2F8"/>
<path d="M2.46139 6.11268C1.86901 6.11515 1.30155 6.35136 0.882378 6.76994C0.463205 7.18853 0.226205 7.75565 0.2229 8.34803V24.7521C0.22372 25.3464 0.459525 25.9163 0.878876 26.3374C1.29823 26.7585 1.8671 26.9967 2.46139 27H17.3742C17.9666 26.9967 18.5337 26.7597 18.9523 26.3405C19.3709 25.9214 19.6071 25.3539 19.6095 24.7615V12.0778C19.6099 11.8803 19.532 11.6906 19.3929 11.5504L14.1719 6.32931C14.0312 6.19079 13.8418 6.11301 13.6444 6.11268H2.46139ZM2.46139 7.60396H3.20546V10.4107C3.20874 10.8518 3.38544 11.274 3.69737 11.5859C4.0093 11.8978 4.43143 12.0745 4.87255 12.0778H10.486C10.9272 12.0745 11.3493 11.8978 11.6612 11.5859C11.9732 11.274 12.1498 10.8518 12.1531 10.4107V7.60396H13.3367L18.1182 12.3855V24.7521C18.1208 24.8507 18.1034 24.9487 18.0669 25.0403C18.0305 25.1319 17.9758 25.2152 17.9062 25.2851C17.8367 25.3549 17.7536 25.4099 17.6622 25.4468C17.5707 25.4836 17.4727 25.5015 17.3742 25.4993H15.8829V18.0429C15.8796 17.4502 15.6427 16.8828 15.2236 16.4637C14.8045 16.0446 14.2371 15.8077 13.6444 15.8044H6.18802C5.59564 15.8077 5.02852 16.0447 4.60993 16.4639C4.19135 16.8831 3.95514 17.4505 3.95267 18.0429V25.4993H2.46139C2.36256 25.5019 2.26423 25.4843 2.17241 25.4477C2.08058 25.4111 1.99717 25.3561 1.92726 25.2862C1.85736 25.2163 1.80241 25.1329 1.76578 25.0411C1.72915 24.9493 1.71159 24.8509 1.71418 24.7521V8.34803C1.71202 8.24946 1.7299 8.15147 1.76672 8.06002C1.80355 7.96856 1.85856 7.88553 1.92843 7.81596C1.99829 7.74639 2.08155 7.69173 2.17316 7.65529C2.26477 7.61885 2.36283 7.60138 2.46139 7.60396ZM4.69674 7.60396H10.6744V10.4107C10.6763 10.4343 10.6731 10.458 10.6649 10.4802C10.6567 10.5024 10.6438 10.5225 10.6271 10.5392C10.6104 10.5559 10.5902 10.5688 10.5681 10.577C10.5459 10.5852 10.5222 10.5884 10.4986 10.5865H4.87255C4.84898 10.5884 4.82528 10.5852 4.80309 10.577C4.7809 10.5688 4.76075 10.5559 4.74403 10.5392C4.72731 10.5225 4.71442 10.5024 4.70626 10.4802C4.69809 10.458 4.69484 10.4343 4.69674 10.4107V7.60396ZM6.18802 17.2957H13.6444C13.7432 17.2931 13.8416 17.3107 13.9334 17.3473C14.0252 17.3839 14.1086 17.4389 14.1785 17.5088C14.2484 17.5787 14.3034 17.6621 14.34 17.7539C14.3767 17.8458 14.3942 17.9441 14.3916 18.0429V25.4993H5.44395V18.0429C5.44137 17.9444 5.45884 17.8463 5.49528 17.7547C5.53172 17.6631 5.58638 17.5798 5.65595 17.5099C5.72552 17.4401 5.80855 17.3851 5.90001 17.3482C5.99146 17.3114 6.08945 17.2935 6.18802 17.2957Z" fill="#223A7A"/>
</g>
<defs>
<clipPath id="clip0">
<rect width="27" height="27" fill="white"/>
</clipPath>
</defs>
</svg>
