<svg width="38" height="36" viewBox="0 0 38 36" fill="none" xmlns="http://www.w3.org/2000/svg">
<path d="M25.6087 24.5455C32.4523 24.5455 38 19.0508 38 12.2727C38 5.49469 32.4523 0 25.6087 0C18.7652 0 13.2174 5.49469 13.2174 12.2727C13.2174 19.0508 18.7652 24.5455 25.6087 24.5455Z" fill="#FFE1EC"/>
<path d="M6.65866 25.784C1.93986 19.1601 3.80812 10.178 10.8305 5.72688C17.8528 1.2758 27.3751 3.03806 32.0939 9.66563C36.8127 16.2932 34.9445 25.2717 27.9221 29.7228C22.7565 32.9966 15.9999 32.9966 10.8343 29.7228L5.03693 35.184C3.88516 36.2704 2.0169 36.2704 0.865131 35.184C-0.28664 34.0975 -0.28664 32.3353 0.865131 31.2488L6.65866 25.784ZM19.3628 28.8362C25.8613 28.8362 31.1309 23.8655 31.1309 17.7357C31.1309 11.6059 25.8613 6.63526 19.3628 6.63526C12.8644 6.63526 7.59471 11.6059 7.59471 17.7357C7.60242 23.8655 12.8644 28.8289 19.3628 28.8362Z" fill="#223A7A"/>
</svg>
