<svg width="15" height="14" viewBox="0 0 15 14" fill="none" xmlns="http://www.w3.org/2000/svg">
<path d="M2.80377 9.74333C0.816912 6.98336 1.60355 3.24082 4.56032 1.3862C7.5171 -0.468418 11.5265 0.26586 13.5134 3.02735C15.5002 5.78884 14.7136 9.52986 11.7568 11.3845C9.58181 12.7486 6.73695 12.7486 4.56194 11.3845L2.12094 13.66C1.63599 14.1127 0.849351 14.1127 0.364394 13.66C-0.120563 13.2073 -0.120563 12.473 0.364394 12.0204L2.80377 9.74333ZM8.15289 11.0151C10.8891 11.0151 13.1079 8.94396 13.1079 6.38988C13.1079 3.83581 10.8891 1.76469 8.15289 1.76469C5.4167 1.76469 3.1979 3.83581 3.1979 6.38988C3.20115 8.94396 5.4167 11.012 8.15289 11.0151Z" fill="#223A7A"/>
</svg>
