<svg width="20" height="20" viewBox="0 0 20 20" xmlns="http://www.w3.org/2000/svg">
<g clip-path="url(#clip0)">
<path d="M15.9557 13.8839C18.5398 10.0383 17.5167 4.82372 13.6711 2.23962C9.82555 -0.344485 4.61094 0.678608 2.02684 4.52628C-0.557266 8.37395 0.465827 13.5865 4.31139 16.1706C7.14019 18.0712 10.8402 18.0712 13.669 16.1706L16.8438 19.3411C17.4745 19.9718 18.4976 19.9718 19.1283 19.3411C19.7591 18.7104 19.7591 17.6873 19.1283 17.0565L15.9557 13.8839ZM8.99864 15.6558C5.43996 15.6558 2.5542 12.7701 2.5542 9.21141C2.5542 5.65274 5.43996 2.76698 8.99864 2.76698C12.5573 2.76698 15.4431 5.65274 15.4431 9.21141C15.4389 12.7701 12.5573 15.6516 8.99864 15.6558Z" />
</g>
<defs>
<clipPath id="clip0">
<rect width="19" height="19" fill="white" transform="translate(0.601318 0.813965)"/>
</clipPath>
</defs>
</svg>
