<svg width="31" height="26" viewBox="0 0 31 26" fill="none" xmlns="http://www.w3.org/2000/svg">
<g clip-path="url(#clip0)">
<path d="M22.3542 13.8985C22.3936 12.8273 21.5795 11.9188 20.5399 11.8723H19.6807C19.506 11.2686 19.2722 10.6822 18.9792 10.1307L19.5793 9.51239C19.9399 9.14084 20.1258 8.62415 20.0864 8.10165C20.0526 7.59076 19.8384 7.11181 19.4863 6.75477L18.6806 5.92458C17.9735 5.13793 16.7762 5.08859 16.0015 5.82298L15.3986 6.44417C14.8605 6.14229 14.2943 5.90136 13.7055 5.72139V4.83605C13.6632 3.76493 12.7815 2.93184 11.7532 2.96667H10.6094C9.56709 2.92023 8.68814 3.76493 8.64588 4.84766V5.72139C8.05991 5.90136 7.49085 6.14519 6.95277 6.44417L6.34145 5.81428C5.57518 5.09439 4.37789 5.14374 3.67923 5.91878L2.87071 6.75187C2.11289 7.48046 2.065 8.71413 2.77211 9.51529L3.37216 10.1336C3.07918 10.688 2.84535 11.2715 2.67069 11.8752H1.80864C0.774742 11.9188 -0.036599 12.8273 2.40412e-05 13.8868V15.0596C-0.0394162 16.1307 0.774742 17.0392 1.82554 17.0857H2.67632C2.85099 17.6895 3.08481 18.2758 3.3778 18.8273L2.76647 19.4572C2.06782 20.2468 2.11571 21.4805 2.86789 22.2003L3.67641 23.0334C4.38352 23.8143 5.58081 23.8636 6.35271 23.1321L6.95559 22.5138C7.49366 22.8157 8.05991 23.0567 8.6487 23.2366V24.122C8.69096 25.1699 9.53329 25.9942 10.5334 25.9942C10.5559 25.9942 10.5785 25.9942 10.6038 25.9942H11.7476C12.7843 26.0291 13.6661 25.196 13.7111 24.1133V23.2395C14.2971 23.0596 14.8662 22.8186 15.4042 22.5167L16.0156 23.1437C16.779 23.8665 17.9791 23.8201 18.6778 23.0421L19.4919 22.2032C19.8751 21.8143 20.0892 21.2947 20.0976 20.7403C20.1004 20.2584 19.9145 19.7882 19.5877 19.4485L18.9877 18.8302C19.2807 18.2758 19.5145 17.6924 19.6891 17.0886H20.5484C21.5879 17.0421 22.4021 16.1336 22.3626 15.0741L22.3542 13.8985ZM18.2806 16.0871C18.0974 16.9551 17.7678 17.7707 17.303 18.5167C17.103 18.8419 17.1481 19.2715 17.4101 19.5443L18.4468 20.6125C18.4778 20.6445 18.4918 20.688 18.4918 20.7315C18.489 20.8448 18.444 20.9522 18.3594 21.0363L17.5284 21.8927C17.427 22.0175 17.2495 22.0407 17.1199 21.9507L16.0944 20.8999C15.8268 20.6241 15.4183 20.5777 15.0972 20.7896C14.3732 21.2686 13.5787 21.6082 12.7364 21.7969C12.373 21.8781 12.1082 22.2178 12.1082 22.6038V24.0929C12.0828 24.2526 11.942 24.3629 11.756 24.3455H10.5756C10.4151 24.3629 10.277 24.2497 10.2488 24.09V22.598C10.2488 22.212 9.98403 21.8752 9.62062 21.7911C8.77829 21.5995 7.98385 21.2598 7.25984 20.7838C6.9415 20.5748 6.53301 20.6212 6.26538 20.897L5.23994 21.9536C5.11035 22.0465 4.93568 22.0204 4.81736 21.8752L3.98349 21.016C3.85953 20.9115 3.83699 20.7315 3.92714 20.598L4.95259 19.5414C5.2174 19.2686 5.26247 18.836 5.05964 18.5109C4.59481 17.7649 4.2652 16.9493 4.08209 16.0813C4.00321 15.7069 3.6736 15.434 3.29892 15.4311H1.84808C1.69314 15.4021 1.58608 15.2569 1.60299 15.0654V13.852C1.58608 13.6895 1.69595 13.5443 1.8509 13.5153H3.29892C3.6736 13.5153 4.00039 13.2424 4.08209 12.8651C4.2652 11.9972 4.59481 11.1815 5.05964 10.4355C5.26247 10.1104 5.2174 9.67785 4.95259 9.40499L3.92714 8.35419C3.83699 8.22066 3.86235 8.03779 4.00321 7.91587L4.83427 7.05666C4.93568 6.93184 5.11035 6.90571 5.23994 6.9986L6.26538 8.05521C6.5302 8.32806 6.94714 8.37451 7.26266 8.16551C7.98667 7.68655 8.78111 7.34693 9.62062 7.15535C9.98685 7.07407 10.2517 6.73445 10.2517 6.34838V4.85637C10.2798 4.69671 10.4207 4.58641 10.6038 4.60383H11.7842C11.9448 4.58931 12.0828 4.69962 12.1082 4.85927V6.35129C12.1082 6.73735 12.373 7.07407 12.7392 7.15825C13.5787 7.34693 14.3732 7.68655 15.0972 8.16841C15.4127 8.37451 15.8296 8.32806 16.0944 8.05811L17.1199 7.0015C17.2495 6.91152 17.427 6.93764 17.5425 7.07988L18.3623 7.92168C18.4383 7.99715 18.4834 8.09584 18.4918 8.20325C18.4975 8.2555 18.4778 8.30775 18.4496 8.33968L17.4101 9.41079C17.1424 9.68655 17.0974 10.1104 17.303 10.4384C17.7678 11.1844 18.0974 12.003 18.2806 12.8709C18.3594 13.2453 18.689 13.5182 19.0637 13.5182H20.5117C20.6667 13.5472 20.7737 13.6924 20.7568 13.8839V15.0683V15.0973C20.7737 15.2598 20.6639 15.405 20.5089 15.434H19.0609C18.689 15.4398 18.3594 15.7127 18.2806 16.0871Z" fill="white"/>
<path d="M11.1784 9.64551C8.5923 9.64551 6.48788 11.8139 6.48788 14.4786C6.48788 17.1433 8.5923 19.3117 11.1784 19.3117C13.7646 19.3117 15.869 17.1433 15.869 14.4757C15.8662 11.8168 13.7618 9.64841 11.1784 9.64551ZM14.2689 14.4786C14.2661 16.2319 12.88 17.6629 11.1784 17.6629C9.47407 17.6629 8.08803 16.2348 8.08803 14.4786C8.08803 12.7224 9.47407 11.2943 11.1784 11.2943C12.8828 11.2972 14.2689 12.7253 14.2689 14.4786Z" fill="white"/>
</g>
<defs>
<clipPath id="clip0">
<rect width="31" height="26" fill="white"/>
</clipPath>
</defs>
</svg>
