<svg width="38" height="38" viewBox="0 0 38 38" fill="none" xmlns="http://www.w3.org/2000/svg">
<path d="M37.7761 18.4513C37.841 16.721 36.5016 15.2533 34.7914 15.1783H33.3778C33.0905 14.203 32.7058 13.2558 32.2238 12.3649L33.211 11.3661C33.8042 10.7659 34.1101 9.93123 34.0452 9.08719C33.9896 8.26192 33.6373 7.48822 33.058 6.91146L31.7325 5.57039C30.5692 4.29965 28.5995 4.21994 27.3249 5.40627L26.3331 6.40973C25.4479 5.92207 24.5163 5.53288 23.5477 5.24215V3.81199C23.4781 2.08172 22.0275 0.735959 20.3358 0.792228H18.4541C16.7393 0.717203 15.2933 2.08172 15.2238 3.83075V5.24215C14.2598 5.53288 13.3236 5.92676 12.4383 6.40973L11.4326 5.39221C10.172 4.22932 8.20223 4.30903 7.05283 5.56101L5.72268 6.90677C4.47595 8.08373 4.39716 10.0766 5.56047 11.3708L6.54765 12.3695C6.06565 13.2652 5.68097 14.2077 5.39362 15.183H3.97541C2.27448 15.2533 0.939691 16.721 0.999942 18.4325V20.3269C0.935056 22.0572 2.27448 23.5248 4.00321 23.5999H5.40289C5.69024 24.5752 6.07491 25.5224 6.55692 26.4133L5.5512 27.4308C4.4018 28.7063 4.48059 30.6991 5.71804 31.862L7.0482 33.2078C8.2115 34.4691 10.1812 34.5488 11.4511 33.3672L12.443 32.3684C13.3282 32.8561 14.2598 33.2453 15.2284 33.536V34.9662C15.2979 36.6589 16.6837 37.9906 18.329 37.9906C18.3661 37.9906 18.4032 37.9906 18.4449 37.9906H20.3266C22.0321 38.0469 23.4828 36.7011 23.5569 34.9521V33.5407C24.5209 33.25 25.4571 32.8608 26.3424 32.3731L27.3481 33.386C28.6041 34.5535 30.5785 34.4785 31.7279 33.2218L33.0673 31.8667C33.6976 31.2384 34.0498 30.399 34.0637 29.5034C34.0684 28.725 33.7625 27.9654 33.2249 27.4168L32.2377 26.418C32.7197 25.5224 33.1044 24.5799 33.3917 23.6046H34.8053C36.5155 23.5295 37.8549 22.0618 37.79 20.3503L37.7761 18.4513ZM31.0744 21.9868C30.7731 23.3889 30.2309 24.7065 29.4661 25.9116C29.1371 26.4368 29.2112 27.1307 29.6423 27.5715L31.3478 29.2971C31.3988 29.3487 31.422 29.419 31.422 29.4893C31.4173 29.6722 31.3432 29.8457 31.2041 29.9817L29.8369 31.365C29.6701 31.5666 29.3781 31.6041 29.1649 31.4587L27.4779 29.7613C27.0376 29.3158 26.3655 29.2408 25.8372 29.5831C24.6461 30.3568 23.3391 30.9054 21.9533 31.2102C21.3554 31.3415 20.9198 31.8901 20.9198 32.5138V34.9193C20.8781 35.1772 20.6463 35.3554 20.3405 35.3272H18.3985C18.1343 35.3554 17.9072 35.1725 17.8609 34.9146V32.5044C17.8609 31.8808 17.4252 31.3368 16.8274 31.2008C15.4416 30.8914 14.1346 30.3427 12.9435 29.5737C12.4198 29.2361 11.7478 29.3112 11.3075 29.7566L9.62044 31.4634C9.40725 31.6135 9.1199 31.5713 8.92524 31.3368L7.55338 29.9489C7.34945 29.7801 7.31237 29.4893 7.46068 29.2736L9.14771 27.5668C9.58337 27.126 9.65752 26.4274 9.32382 25.9022C8.5591 24.6971 8.01684 23.3795 7.71559 21.9774C7.58582 21.3726 7.04356 20.9318 6.42715 20.9271H4.04029C3.78538 20.8802 3.60927 20.6458 3.63707 20.3363V18.3762C3.60927 18.1137 3.79002 17.8792 4.04493 17.8323H6.42715C7.04356 17.8323 7.58118 17.3915 7.71559 16.782C8.01684 15.3799 8.5591 14.0623 9.32382 12.8572C9.65752 12.332 9.58337 11.6334 9.14771 11.1926L7.46068 9.49514C7.31237 9.27945 7.35409 8.98403 7.58582 8.78709L8.95305 7.39913C9.1199 7.1975 9.40725 7.1553 9.62044 7.30535L11.3075 9.01217C11.7431 9.45294 12.4291 9.52797 12.9481 9.19035C14.1393 8.41666 15.4462 7.86803 16.8274 7.55856C17.4299 7.42726 17.8655 6.87864 17.8655 6.25499V3.84481C17.9119 3.58691 18.1436 3.40873 18.4449 3.43686H20.3868C20.651 3.41342 20.8781 3.5916 20.9198 3.8495V6.25968C20.9198 6.88333 21.3554 7.42726 21.958 7.56324C23.3391 7.86803 24.6461 8.41666 25.8372 9.19504C26.3563 9.52797 27.0422 9.45294 27.4779 9.01686L29.1649 7.31004C29.3781 7.16467 29.6701 7.20688 29.8601 7.43664L31.2088 8.79647C31.3339 8.91839 31.4081 9.07782 31.422 9.25131C31.4312 9.33571 31.3988 9.42012 31.3524 9.4717L29.6423 11.202C29.202 11.6474 29.1278 12.332 29.4661 12.8619C30.2309 14.067 30.7731 15.3893 31.0744 16.7913C31.2041 17.3962 31.7464 17.837 32.3628 17.837H34.745C34.9999 17.8839 35.1761 18.1183 35.1483 18.4278V20.341V20.3879C35.1761 20.6504 34.9953 20.8849 34.7404 20.9318H32.3582C31.7464 20.9412 31.2041 21.3819 31.0744 21.9868Z" />
<path d="M19.3904 11.5818C15.1358 11.5818 11.6737 15.0845 11.6737 19.3891C11.6737 23.6937 15.1358 27.1964 19.3904 27.1964C23.6451 27.1964 27.1072 23.6937 27.1072 19.3844C27.1025 15.0892 23.6404 11.5865 19.3904 11.5818ZM24.4747 19.3891C24.4701 22.2213 22.1898 24.533 19.3904 24.533C16.5865 24.533 14.3062 22.226 14.3062 19.3891C14.3062 16.5522 16.5865 14.2452 19.3904 14.2452C22.1944 14.2499 24.4747 16.5569 24.4747 19.3891Z" />
</svg>
