<svg width="22" height="18" fill="none" xmlns="http://www.w3.org/2000/svg">
<g clip-path="url(#clip0)">
<path d="M15.8642 9.62191C15.8922 8.88037 15.3144 8.25137 14.5767 8.21921H13.9669C13.843 7.80122 13.677 7.39528 13.4691 7.01345L13.8949 6.58541C14.1509 6.32818 14.2828 5.97047 14.2548 5.60874C14.2308 5.25505 14.0789 4.92347 13.829 4.67628L13.2572 4.10154C12.7554 3.55694 11.9057 3.52277 11.3559 4.0312L10.928 4.46126C10.5462 4.25226 10.1443 4.08546 9.72646 3.96087V3.34794C9.69647 2.6064 9.0707 2.02964 8.34097 2.05376H7.52926C6.78953 2.0216 6.16576 2.6064 6.13577 3.35598V3.96087C5.71992 4.08546 5.31607 4.25427 4.9342 4.46126L4.50036 4.02517C3.95656 3.52679 3.10687 3.56096 2.61105 4.09752L2.03726 4.67428C1.49945 5.17869 1.46547 6.03277 1.96728 6.58742L2.39313 7.01546C2.1852 7.39929 2.01926 7.80322 1.89531 8.22122H1.28353C0.549799 8.25137 -0.0259917 8.88037 -1.15077e-06 9.61387V10.4258C-0.027991 11.1673 0.549799 11.7963 1.29553 11.8285H1.89931C2.02326 12.2465 2.1892 12.6524 2.39713 13.0342L1.96328 13.4703C1.46747 14.0169 1.50145 14.871 2.03526 15.3694L2.60905 15.9461C3.11087 16.4867 3.96056 16.5209 4.50836 16.0145L4.9362 15.5864C5.31807 15.7954 5.71992 15.9622 6.13777 16.0868V16.6997C6.16776 17.4252 6.76554 17.9959 7.47528 17.9959C7.49127 17.9959 7.50727 17.9959 7.52526 17.9959H8.33697C9.0727 18.02 9.69847 17.4433 9.73046 16.6937V16.0888C10.1463 15.9642 10.5502 15.7974 10.932 15.5884L11.3659 16.0225C11.9077 16.5229 12.7594 16.4907 13.2552 15.9522L13.833 15.3714C14.1049 15.1021 14.2568 14.7424 14.2628 14.3585C14.2648 14.0249 14.1329 13.6994 13.9009 13.4643L13.4751 13.0362C13.683 12.6524 13.849 12.2485 13.9729 11.8305H14.5827C15.3204 11.7983 15.8982 11.1693 15.8702 10.4358L15.8642 9.62191ZM12.9733 11.1372C12.8433 11.738 12.6094 12.3027 12.2795 12.8192C12.1376 13.0443 12.1696 13.3417 12.3555 13.5306L13.0912 14.2701C13.1132 14.2922 13.1232 14.3224 13.1232 14.3525C13.1212 14.4309 13.0892 14.5052 13.0293 14.5635L12.4395 15.1564C12.3675 15.2428 12.2415 15.2588 12.1496 15.1965L11.4218 14.4691C11.2319 14.2782 10.942 14.246 10.7141 14.3927C10.2003 14.7243 9.63649 14.9594 9.03871 15.09C8.78081 15.1463 8.59287 15.3814 8.59287 15.6487V16.6796C8.57488 16.7902 8.47492 16.8665 8.34297 16.8545H7.50527C7.39131 16.8665 7.29335 16.7882 7.27335 16.6776V15.6447C7.27335 15.3774 7.08542 15.1443 6.82752 15.086C6.22973 14.9534 5.66594 14.7183 5.15213 14.3887C4.92621 14.244 4.63631 14.2761 4.44638 14.4671L3.71865 15.1986C3.62668 15.2629 3.50273 15.2448 3.41876 15.1443L2.82697 14.5495C2.739 14.4771 2.72301 14.3525 2.78699 14.2601L3.51472 13.5286C3.70265 13.3397 3.73464 13.0402 3.59069 12.8152C3.26081 12.2987 3.0269 11.734 2.89695 11.1331C2.84097 10.8739 2.60705 10.685 2.34115 10.683H1.31152C1.20156 10.6629 1.12559 10.5624 1.13759 10.4298V9.58976C1.12559 9.47722 1.20356 9.37674 1.31352 9.35665H2.34115C2.60705 9.35665 2.83897 9.16774 2.89695 8.9065C3.0269 8.30562 3.26081 7.74093 3.59069 7.22446C3.73464 6.99938 3.70265 6.69995 3.51472 6.51105L2.78699 5.78358C2.72301 5.69113 2.741 5.56453 2.84097 5.48013L3.43075 4.88528C3.50273 4.79887 3.62668 4.78078 3.71865 4.84509L4.44638 5.57659C4.63431 5.76549 4.93021 5.79764 5.15412 5.65295C5.66794 5.32137 6.23173 5.08624 6.82752 4.95361C7.08742 4.89734 7.27535 4.66222 7.27535 4.39494V3.36201C7.29535 3.25148 7.39531 3.17511 7.52526 3.18717H8.36296C8.47692 3.17712 8.57488 3.25349 8.59287 3.36402V4.39695C8.59287 4.66423 8.78081 4.89734 9.04071 4.95562C9.63649 5.08624 10.2003 5.32137 10.7141 5.65496C10.938 5.79764 11.2339 5.76549 11.4218 5.5786L12.1496 4.8471C12.2415 4.7848 12.3675 4.80289 12.4495 4.90136L13.0313 5.48414C13.0852 5.53639 13.1172 5.60472 13.1232 5.67908C13.1272 5.71525 13.1132 5.75142 13.0932 5.77353L12.3555 6.51507C12.1656 6.70598 12.1336 6.99938 12.2795 7.22647C12.6094 7.74294 12.8433 8.30964 12.9733 8.91051C13.0293 9.16975 13.2632 9.35866 13.5291 9.35866H14.5567C14.6667 9.37875 14.7426 9.47923 14.7306 9.61187V10.4318V10.4519C14.7426 10.5644 14.6647 10.6649 14.5547 10.685H13.5271C13.2632 10.689 13.0293 10.8779 12.9733 11.1372Z" fill="#223A7A"/>
<path d="M7.93304 6.67798C6.0977 6.67798 4.60425 8.17915 4.60425 10.024C4.60425 11.8688 6.0977 13.3699 7.93304 13.3699C9.76837 13.3699 11.2618 11.8688 11.2618 10.022C11.2598 8.18116 9.76637 6.67999 7.93304 6.67798ZM10.1262 10.024C10.1242 11.2378 9.1406 12.2285 7.93304 12.2285C6.72348 12.2285 5.73983 11.2398 5.73983 10.024C5.73983 8.80816 6.72348 7.81943 7.93304 7.81943C9.1426 7.82144 10.1262 8.81016 10.1262 10.024Z" fill="#223A7A"/>
</g>
<defs>
<clipPath id="clip0">
<rect width="22" height="18" fill="white"/>
</clipPath>
</defs>
</svg>
