<svg width="18" height="10" viewBox="0 0 18 10" fill="none" xmlns="http://www.w3.org/2000/svg">
<path d="M17.8341 4.66154C17.6605 4.46318 13.7925 0 8.98214 0C4.17183 0 0.303744 4.46318 0.130176 4.66154C-0.043392 4.8599 -0.043392 5.13265 0.130176 5.33102C0.303744 5.52938 4.17183 9.99256 8.98214 9.99256C13.7925 9.99256 17.6605 5.52938 17.8341 5.33102C18.0077 5.13265 18.0077 4.83511 17.8341 4.66154ZM1.36995 4.83511C2.23779 3.94247 4.3206 2.08282 6.84974 1.33895C5.60997 2.08282 4.76692 3.42177 4.76692 4.98388C4.76692 6.54599 5.60997 7.88495 6.84974 8.62881C4.3206 7.86015 2.23779 6.00049 1.36995 5.13266C1.29556 5.03347 1.29556 4.9095 1.36995 4.83511ZM5.78353 4.98388C5.78353 3.22341 7.22167 1.76048 9.00694 1.76048C10.7674 1.76048 12.2303 3.19861 12.2303 4.98388C12.2303 6.74436 10.7922 8.20729 9.00694 8.20729C7.22167 8.18249 5.78353 6.74436 5.78353 4.98388ZM13.2222 4.98388C13.2222 3.42177 12.3791 2.08282 11.1393 1.33895C13.6685 2.08282 15.7513 3.96727 16.6191 4.83511C16.6935 4.9095 16.6935 5.03347 16.6191 5.10786C15.7513 6.00049 13.6685 7.86015 11.1393 8.62881C12.3791 7.88495 13.2222 6.5212 13.2222 4.98388Z" />
</svg>
