<svg width="26" height="25" viewBox="0 0 26 25" fill="none" xmlns="http://www.w3.org/2000/svg">
<path d="M19.3916 25C19.0192 24.998 18.6528 24.9053 18.3233 24.7297L12.8606 21.812L7.3978 24.7297C7.0186 24.9322 6.59081 25.0228 6.1632 24.9912C5.73559 24.9595 5.32536 24.807 4.97927 24.5509C4.63319 24.2947 4.36516 23.9454 4.20575 23.5426C4.04634 23.1398 4.00196 22.6998 4.07766 22.2727L5.12772 16.1302L0.690737 11.7568C0.385057 11.4552 0.168866 11.073 0.0666054 10.6535C-0.0356553 10.234 -0.0199059 9.79391 0.112073 9.383C0.244053 8.9721 0.486997 8.60675 0.813438 8.32827C1.13988 8.0498 1.5368 7.86929 1.95931 7.80718L8.08975 6.90423L10.8272 1.29C11.0163 0.902745 11.3086 0.57672 11.6711 0.348763C12.0337 0.120805 12.452 0 12.8788 0C13.3056 0 13.7239 0.120805 14.0865 0.348763C14.449 0.57672 14.7413 0.902745 14.9304 1.29L17.6739 6.90423L23.7983 7.80718C24.2208 7.86929 24.6177 8.0498 24.9441 8.32827C25.2706 8.60675 25.5135 8.9721 25.6455 9.383C25.7775 9.79391 25.7932 10.234 25.691 10.6535C25.5887 11.073 25.3725 11.4552 25.0668 11.7568L20.6359 16.1302L21.6799 22.2727C21.7353 22.6051 21.7187 22.9457 21.6312 23.2709C21.5438 23.5961 21.3876 23.8983 21.1735 24.1565C20.9594 24.4146 20.6924 24.6227 20.391 24.7662C20.0897 24.9097 19.7611 24.9853 19.428 24.9877L19.3916 25ZM2.55415 10.172L6.83939 14.3981C7.10885 14.6597 7.3115 14.9837 7.42991 15.3421C7.54833 15.7006 7.57897 16.0827 7.5192 16.4558L6.50555 22.4202L11.768 19.6069C12.0964 19.4315 12.462 19.3399 12.8333 19.3399C13.2045 19.3399 13.5702 19.4315 13.8985 19.6069L19.1913 22.4202L18.1777 16.4558C18.1156 16.0852 18.1434 15.7048 18.2586 15.3475C18.3739 14.9901 18.5731 14.6664 18.8393 14.4042L23.0881 10.1782L17.2308 9.30594C16.8633 9.25325 16.5141 9.11041 16.2136 8.88986C15.9132 8.66931 15.6706 8.37775 15.507 8.04059L12.8606 2.61063L10.2142 8.04059C10.0506 8.37775 9.80796 8.66931 9.50751 8.88986C9.20705 9.11041 8.85786 9.25325 8.49036 9.30594L2.55415 10.172Z" fill="#223A7A"/>
</svg>
