<svg width="15" height="14" viewBox="0 0 15 14" fill="none" xmlns="http://www.w3.org/2000/svg">
<path d="M11.2928 14C11.0759 13.9989 10.8625 13.947 10.6707 13.8486L7.48939 12.2147L4.30813 13.8486C4.0873 13.962 3.83818 14.0128 3.58916 13.995C3.34014 13.9773 3.10124 13.8919 2.8997 13.7485C2.69815 13.6051 2.54207 13.4094 2.44923 13.1839C2.3564 12.9583 2.33055 12.7119 2.37464 12.4727L2.98614 9.03294L0.402253 6.58381C0.224239 6.41488 0.0983397 6.20087 0.0387878 5.96595C-0.020764 5.73103 -0.0115922 5.48459 0.0652663 5.25448C0.142125 5.02437 0.283604 4.81978 0.473708 4.66383C0.663813 4.50788 0.894958 4.4068 1.14101 4.37202L4.71109 3.86637L6.30526 0.722398C6.41536 0.505537 6.58558 0.322963 6.79671 0.195307C7.00783 0.0676507 7.25144 0 7.5 0C7.74856 0 7.99217 0.0676507 8.20329 0.195307C8.41442 0.322963 8.58464 0.505537 8.69474 0.722398L10.2924 3.86637L13.859 4.37202C14.105 4.4068 14.3362 4.50788 14.5263 4.66383C14.7164 4.81978 14.8579 5.02437 14.9347 5.25448C15.0116 5.48459 15.0208 5.73103 14.9612 5.96595C14.9017 6.20087 14.7758 6.41488 14.5977 6.58381L12.0174 9.03294L12.6254 12.4727C12.6576 12.6589 12.6479 12.8496 12.597 13.0317C12.5461 13.2138 12.4552 13.383 12.3305 13.5276C12.2058 13.6722 12.0503 13.7887 11.8748 13.8691C11.6993 13.9494 11.5079 13.9918 11.314 13.9931L11.2928 14ZM1.48742 5.69634L3.98294 8.06292C4.13986 8.20945 4.25787 8.39088 4.32683 8.5916C4.39579 8.79232 4.41363 9.00633 4.37883 9.21525L3.78853 12.5553L6.85314 10.9799C7.04435 10.8817 7.25729 10.8303 7.47349 10.8303C7.68969 10.8303 7.90263 10.8817 8.09383 10.9799L11.1761 12.5553L10.5858 9.21525C10.5497 9.0077 10.5659 8.79471 10.633 8.59459C10.7001 8.39447 10.8161 8.2132 10.9711 8.06636L13.4454 5.69978L10.0344 5.21133C9.82039 5.18182 9.61704 5.10183 9.44207 4.97832C9.26709 4.85481 9.12582 4.69154 9.03054 4.50273L7.48939 1.46195L5.94825 4.50273C5.85297 4.69154 5.7117 4.85481 5.53673 4.97832C5.36176 5.10183 5.1584 5.18182 4.94439 5.21133L1.48742 5.69634Z" fill="#223A7A"/>
</svg>
