<svg width="19" height="19" viewBox="0 0 19 19" fill="none" xmlns="http://www.w3.org/2000/svg">
<g clip-path="url(#clip0)">
<path d="M17.4075 8.56435C16.9076 8.56435 16.485 8.98467 16.485 9.48199C16.485 13.3696 13.2855 16.5321 9.3525 16.5321C5.44425 16.5321 2.265 13.3696 2.265 9.48199C2.265 5.59434 5.44425 2.43185 9.3525 2.43185C10.6084 2.43185 11.8284 2.75773 12.894 3.36561L12.6402 3.33069C12.138 3.25952 11.6543 3.61538 11.5832 4.10777L11.5823 4.11359C11.5143 4.65298 11.8581 5.13194 12.3671 5.20401L15.7002 5.65209C15.9626 5.68476 16.2182 5.62031 16.4207 5.47124C16.6299 5.31726 16.7636 5.08718 16.7964 4.82666L17.246 1.5169C17.2806 1.27698 17.214 1.0272 17.0641 0.832034C16.908 0.628811 16.6781 0.498551 16.4166 0.465427C16.1763 0.432303 15.9265 0.498104 15.7308 0.646716C15.5256 0.802491 15.3947 1.03212 15.3623 1.29085L15.1773 2.67178C13.5434 1.30025 11.499 0.551819 9.3525 0.551819C4.4025 0.551819 0.375 4.55808 0.375 9.48199C0.375 14.431 4.4025 18.4569 9.3525 18.4569C14.3277 18.4569 18.375 14.431 18.375 9.48199C18.375 8.97617 17.9412 8.56435 17.4075 8.56435Z" fill="#223A7A"/>
<path d="M9.35249 4.2666C8.84399 4.2666 8.42999 4.69856 8.42999 5.229V9.48146C8.42999 9.75944 8.51864 9.97743 8.70899 10.1663L10.824 12.2702C11.0184 12.4636 11.2627 12.5701 11.5125 12.5701C11.7622 12.5701 12.007 12.4636 12.201 12.2702C12.5524 11.9206 12.561 11.3727 12.2217 10.9676L12.2104 10.9546L10.32 9.11665V5.22945C10.32 4.68961 9.89519 4.2666 9.35249 4.2666Z" fill="#223A7A"/>
</g>
<defs>
<clipPath id="clip0">
<rect width="18" height="18" fill="white" transform="translate(0.375 0.456543)"/>
</clipPath>
</defs>
</svg>
