<svg width="33" height="26" viewBox="0 0 33 26" fill="none" xmlns="http://www.w3.org/2000/svg">
<path fill-rule="evenodd" clip-rule="evenodd" d="M5.35126 14.1688L5.35126 4.69882C5.35126 2.27139 7.60736 0.305175 10.3927 0.305175L27.3099 0.305176C30.0952 0.305176 32.3513 2.27139 32.3513 4.69882L32.3513 14.1688C32.3513 16.5963 30.0952 18.5625 27.3099 18.5625L10.3961 18.5625C7.61084 18.5625 5.35126 16.5963 5.35126 14.1688Z" fill="#C7F8FF"/>
<path d="M21.4512 24.3053V15.9399H27.8512V24.3053H21.4512ZM27.8499 15.7924C27.8499 15.7924 27.8501 15.7929 27.8503 15.7939L27.8499 15.7924ZM27.8499 24.4529C27.8498 24.4529 27.8499 24.4524 27.8503 24.4514L27.8499 24.4529ZM21.4525 24.4529C21.4525 24.4529 21.4523 24.4524 21.4521 24.4514L21.4525 24.4529ZM21.4521 15.7939C21.4523 15.7929 21.4525 15.7924 21.4525 15.7924L21.4521 15.7939Z" stroke="#223A7A" stroke-width="2" stroke-linejoin="round"/>
<path d="M1.85132 24.299V12.4849H8.25132V24.299H1.85132ZM8.25001 12.3373C8.25004 12.3373 8.25021 12.3378 8.25041 12.3388L8.25001 12.3373ZM8.25001 24.4466C8.24997 24.4465 8.25008 24.446 8.25041 24.4451L8.25001 24.4466ZM1.85264 24.4466C1.8526 24.4466 1.85244 24.4461 1.85223 24.4451L1.85264 24.4466ZM1.85223 12.3388C1.85244 12.3378 1.8526 12.3373 1.85264 12.3373L1.85223 12.3388Z" stroke="#223A7A" stroke-width="2" stroke-linejoin="round"/>
<path d="M11.6514 24.2988V7.30518H18.0514V24.2988H11.6514ZM18.0501 7.15762C18.0501 7.15762 18.0503 7.15811 18.0505 7.15911L18.0501 7.15762ZM18.0501 24.4464C18.05 24.4464 18.0501 24.4459 18.0505 24.4449L18.0501 24.4464ZM11.6527 24.4464C11.6527 24.4464 11.6525 24.4459 11.6523 24.4449L11.6527 24.4464ZM11.6523 7.15911C11.6525 7.15811 11.6527 7.15762 11.6527 7.15762L11.6523 7.15911Z" stroke="#223A7A" stroke-width="2" stroke-linejoin="round"/>
</svg>
