<svg width="30" height="27" viewBox="0 0 30 27" fill="none" xmlns="http://www.w3.org/2000/svg">
<path opacity="0.5" d="M17 27C23.6274 27 29 21.6274 29 15C29 8.37258 23.6274 3 17 3C10.3726 3 5 8.37258 5 15C5 21.6274 10.3726 27 17 27Z" fill="#F1FCFF"/>
<path d="M12.149 27C5.44893 27 0 21.615 0 15.0018C0 8.38866 5.44893 3 12.149 3C14.767 3 17.2618 3.81143 19.3644 5.34578C19.779 5.64823 19.8686 6.22729 19.5587 6.6367C19.2487 7.0461 18.6661 7.13094 18.2515 6.82849C16.4738 5.5302 14.3637 4.84417 12.1453 4.84417C6.47971 4.84417 1.86735 9.39926 1.86735 15.0018C1.86735 20.6044 6.47971 25.1558 12.149 25.1558C14.4757 25.1558 16.668 24.4071 18.4905 22.9945C18.8976 22.681 19.484 22.751 19.8014 23.1494C20.1189 23.5514 20.0479 24.1305 19.6445 24.444C17.4896 26.1148 14.8977 27 12.149 27Z" fill="#223A7A"/>
<path fill-rule="evenodd" clip-rule="evenodd" d="M29.1767 12H19.8233C19.3693 12 19 11.5933 19 11.0933V10.9067C19 10.4067 19.3693 10 19.8233 10H29.1767C29.6307 10 30 10.4067 30 10.9067V11.0933C30 11.5933 29.6307 12 29.1767 12Z" fill="#223A7A"/>
<path fill-rule="evenodd" clip-rule="evenodd" d="M29.1767 15H19.8233C19.3693 15 19 14.5927 19 14.0918V13.9082C19 13.4073 19.3693 13 19.8233 13H29.1767C29.6307 13 30 13.4073 30 13.9082V14.0952C30 14.596 29.6307 15 29.1767 15Z" fill="#223A7A"/>
<path fill-rule="evenodd" clip-rule="evenodd" d="M29.1767 18H19.8233C19.3693 18 19 17.5933 19 17.0933V16.9067C19 16.4067 19.3693 16 19.8233 16H29.1767C29.6307 16 30 16.4067 30 16.9067V17.0933C30 17.5933 29.6307 18 29.1767 18Z" fill="#223A7A"/>
<path d="M7 23.5C8.28571 18.4636 16.1808 18.5485 18 24" stroke="#223A7A" stroke-width="2" stroke-linecap="round"/>
<circle cx="12" cy="15" r="3" stroke="#223A7A" stroke-width="2"/>
</svg>
