<svg width="20" height="19" viewBox="0 0 20 19" fill="none" xmlns="http://www.w3.org/2000/svg">
<path fill-rule="evenodd" clip-rule="evenodd" d="M9.7092 0.271973C4.34783 0.271973 0 4.47079 0 9.63577C0 14.8008 4.34783 18.9996 9.7092 18.9996C14.9491 18.9762 19.4361 15.0902 19.4316 9.63577C19.4316 4.47079 15.0684 0.271973 9.7092 0.271973ZM9.7092 1.42968C14.4214 1.42968 18.2326 5.09646 18.2326 9.63577C18.2326 11.6703 17.4664 13.526 16.1989 14.9582C15.3113 13.4239 13.8561 12.2385 12.1094 11.6617C13.1053 10.951 13.7589 9.81454 13.7589 8.53127C13.7589 6.38398 11.9372 4.63465 9.70699 4.63465C7.4856 4.63465 5.66388 6.38185 5.66388 8.53127C5.66388 9.81454 6.31749 10.951 7.31336 11.6617C5.56672 12.2385 4.11598 13.4239 3.23272 14.9582C1.96745 13.5281 1.19902 11.6703 1.19902 9.63577C1.20123 5.09433 4.99702 1.42968 9.7092 1.42968ZM9.7092 5.79023C11.2924 5.79023 12.5599 7.00539 12.5599 8.53127C12.5599 10.0571 11.2902 11.2723 9.7092 11.2723C8.137 11.2723 6.86511 10.055 6.86511 8.53127C6.86511 7.00752 8.137 5.79023 9.7092 5.79023ZM15.3135 15.818C13.8163 17.0757 11.8577 17.8419 9.7092 17.8419C7.56288 17.8419 5.61309 17.0736 4.12039 15.818C6.7812 11.0914 12.9905 11.5681 15.3135 15.818Z" fill="white"/>
</svg>
